<svg id="Layer_1" data-name="Layer 1" xmlns="http://www.w3.org/2000/svg" viewBox="0 0 378.12 404.83"><path d="M7241.44,7033l-15.13,20.18c-.45.6-.93,1.19-1.34,1.82-1.84,2.84-.6,5.37,2.78,5.44,5,.09,10,0,15,0h3.08c.57,3.11.37,5.33-2.19,7.47-3.38,2.81-6.15,6.35-8.82,9.19-5.58-.34-11.14-1.37-16.56-.89a36.56,36.56,0,0,0-33.42,37.31c0,2.66-.71,3.78-3.14,4.6a39.76,39.76,0,0,0-6.54,3.31c-2,1.1-3.05,2.77-1.72,4.9s3.15,1.76,5.18.72a63.07,63.07,0,0,1,8.73-3.91c4.37-1.46,4.71-1.69,4.16-6.42a29.69,29.69,0,0,1,6.38-22.54,30.6,30.6,0,0,1,34.89-9.82c4.31,1.6,4.53,1.46,7.11-2.3,1.69-2.46,3.62-4.74,5.43-7.09l.79.25v10.29c0,2.64,0,5.29,0,7.93,0,2.92,1.15,4.4,3.33,4.28,2.74-.16,3.29-2.08,3.29-4.37,0-4.82,0-9.64,0-14.45,0-6.8,0-13.6,0-20.4,0-3.52-1-4.51-4.57-4.53-4.5,0-9,0-14.23,0l42.69-56.94c14.2,18.93,28.24,37.66,42.71,56.94h-13.62c-4.37,0-5.19.78-5.19,5q0,16.86,0,33.71a16,16,0,0,0,0,1.7c.21,1.92,1.13,3.26,3.19,3.3s3.33-1.29,3.37-3.37c.09-4.63,0-9.26,0-13.89v-5.07l.69-.46c1.89,2.44,3.89,4.81,5.64,7.35,2.35,3.41,2.84,3.66,6.7,2.2a30.73,30.73,0,0,1,41.58,31.94c-.52,5.24-.45,5.35,4.4,6.73a30.84,30.84,0,0,1,22.1,34.18c-2,14.79-15,26.08-30.27,26.19-14.92.1-29.85,0-44.77,0h-29.76c2.57-4.59,3.54-9,2.23-13.71a16,16,0,0,0-14.46-11.64c-2.11-.09-3.91.44-4.15,2.82s1.23,3.43,3.61,3.69c5.71.62,9.23,4.69,8.93,10.07-.27,5.12-4.29,8.74-9.92,8.75q-27.2.06-54.4,0c-.55,0-1.11-.08-1.8-.12a58.24,58.24,0,0,0,2.07-6.13,15.86,15.86,0,0,0-14.47-19.09c-2.22-.14-4.1.33-4.32,2.9s1.37,3.35,3.69,3.61c5.65.64,9.19,4.8,8.84,10.16-.32,5-4.31,8.46-9.75,8.69-8,.34-15.58-1-22.23-5.91a30.81,30.81,0,0,1-7.67-41.67c.41-.63.91-1.22,1.26-1.88.91-1.73.75-3.34-.91-4.5s-3.29-.68-4.47.86a34.68,34.68,0,0,0-6.67,14.85,37.27,37.27,0,0,0,36.92,44.8q64.74.06,129.47,0h4.25c-1,7-1.69,13.76-3,20.36-8.06,39.75-27.52,72.55-60,97.27-3.6,2.74-7.42,5.19-11.27,7.57-2.22,1.37-3.06,2.83-2.58,5.56q6.93,39.44,13.64,78.92a20.46,20.46,0,0,1,.11,2.05H7138.56c-.23-2.81-.5-5.59-.67-8.38q-1.53-24.73-3-49.48c-.26-4.14-2.11-5.22-6.07-3.57-13.78,5.75-27.8,10.77-42.6,13.16a82.5,82.5,0,0,1-13,.83c-5.69,0-10.09-2.53-13.2-7.41-4.68-7.32-7.55-15.4-10-23.63-6-20.22-9.55-41-12.47-61.8-1.08-7.66-1.95-15.35-2.83-23-.22-1.95-1.26-2.87-2.95-3.71-4.62-2.3-9.21-4.71-13.65-7.35a19.71,19.71,0,0,1-4.54-4.22c-3.7-4.27-4.21-6.47-1.09-11.16,4.22-6.34,8.88-12.42,13.69-18.34,3.57-4.38,7.6-8.4,11.58-12.43a7.07,7.07,0,0,0,2.12-5.26c1-44.16,15.75-82.76,47.07-114.32,23.56-23.74,52.13-37.66,85.58-40.85a132.68,132.68,0,0,1,67.38,11.23C7240.34,7032.37,7240.73,7032.63,7241.44,7033Zm-71.74,53.46a36.3,36.3,0,1,0-36.1,36.26A36.13,36.13,0,0,0,7169.7,7086.49Zm-6,153.21a36.33,36.33,0,1,0,36.37-36.34A36.28,36.28,0,0,0,7163.66,7239.7Zm88.53-102.06c7.23,0,12.09-2,16.16-5.84,1.51-1.44,1.84-3.18.38-4.77s-3.17-1.39-4.79-.09c-.36.29-.69.64-1.06.93a14.48,14.48,0,0,1-23.21-7.69c-1.34-5.14.06-9.6,3.42-13.68a5.2,5.2,0,0,0,.74-4c-.18-.78-1.93-1.78-2.82-1.65a6,6,0,0,0-3.4,2.15c-5.51,6.86-6.7,14.49-3,22.49S7245,7137.38,7252.19,7137.64Zm64.3-10.72c.78-1.4,1.25-2.21,1.69-3,4.23-7.92,2.84-18.31-3.23-24.4-1.55-1.56-3.27-2-5-.51s-1.36,3.11-.07,4.78c5.67,7.3,5.68,13.06,0,20.39-1.39,1.8-1.37,3.44.19,5,2,2,4,4,6,6,1.59,1.52,3.39,1.8,5,.09s1.16-3.32-.37-4.75C7319.33,7129.23,7317.85,7128.07,7316.49,7126.92Zm-40.4,76.51c4.06,0,8.11,0,12.16,0,2.29,0,4.23-.42,4.36-3.22.1-2.16-1.38-3.28-4.27-3.29q-12.3,0-24.6,0c-2.87,0-4.35,1.18-4.22,3.35.14,2.6,1.92,3.17,4.13,3.16C7267.8,7203.42,7272,7203.43,7276.09,7203.43Zm30.55-3.24a3.75,3.75,0,0,0-3.71-3.81,3.79,3.79,0,1,0,0,7.58A3.74,3.74,0,0,0,7306.64,7200.19Z" transform="translate(-7010.44 -6997.09)"/><path d="M7133.43,7116.17a29.75,29.75,0,1,1,.15-59.5,29.75,29.75,0,0,1-.15,59.5Zm-3.3-26.41c0,2.83,0,5.34,0,7.86,0,2.17.93,3.82,3.23,3.83s3.38-1.64,3.34-4c0-2.51,0-5,0-7.71,2.86,0,5.31,0,7.75,0s4-.9,4-3.36-1.76-3.31-4.07-3.27c-2.49,0-5,0-7.65,0,0-2.81,0-5.16,0-7.5,0-2.77-1.32-4.46-3.38-4.25-2.47.25-3.21,2-3.2,4.21,0,2.42,0,4.84,0,7.54-2.8,0-5.23,0-7.66,0s-4,.82-4,3.33,1.74,3.31,4,3.29C7124.93,7089.74,7127.35,7089.76,7130.13,7089.76Z" transform="translate(-7010.44 -6997.09)"/><path d="M7229.69,7239.8A29.76,29.76,0,1,1,7200.1,7210,29.81,29.81,0,0,1,7229.69,7239.8Zm-33-3.31c-3,0-5.43,0-7.88,0-2.18,0-3.82.77-3.88,3.13-.06,2.52,1.6,3.38,3.92,3.35,2.52,0,5,0,7.84,0,0,2.82,0,5.26,0,7.69,0,2.28.68,4,3.22,4.07s3.29-1.8,3.3-4V7243c2.92,0,5.37,0,7.82,0,2.18,0,3.81-.75,3.87-3.12.06-2.54-1.58-3.39-3.91-3.36-2.5,0-5,0-7.79,0,0-3,0-5.52,0-8.05,0-2.18-.93-3.75-3.32-3.7s-3.2,1.62-3.17,3.82C7196.74,7231.08,7196.72,7233.61,7196.72,7236.49Z" transform="translate(-7010.44 -6997.09)"/></svg>