<svg id="Layer_1" data-name="Layer 1" xmlns="http://www.w3.org/2000/svg" viewBox="0 0 407.14 446.21"><path d="M7398.06,7187.35v2.6q0,99.26,0,198.51c0,19.41-14.79,34.14-34.16,34.14H7034.06a33.39,33.39,0,0,1-33.66-33.43q-.06-99.72,0-199.43c0-.76.07-1.51.12-2.39Zm-247.45,117.59v53.46c0,3.1-.1,6.2.08,9.29a7.09,7.09,0,0,0,10.46,6c.62-.31,1.22-.68,1.82-1l67-38.69,38.64-22.3c3.51-2,4.94-4.62,4.39-7.93-.45-2.68-2.19-4.3-4.45-5.6q-38.15-22-76.27-44-15.18-8.77-30.38-17.54c-4.43-2.55-9.37-1-10.85,3.57a12.6,12.6,0,0,0-.42,3.89Q7150.59,7274.49,7150.61,7304.94Z" transform="translate(-6990.93 -6976.39)"/><path d="M7079.37,7133.42c-3.4,3.56-6.31,6.63-9.23,9.68q-13.47,14.1-26.94,28.19a4.7,4.7,0,0,1-3.84,1.6c-8.82-.07-17.64,0-26.46,0h-2.69c.7-.87,1.06-1.42,1.51-1.89q17.25-18,34.55-36a4.14,4.14,0,0,1,2.43-1.48C7058.67,7133.38,7068.64,7133.42,7079.37,7133.42Z" transform="translate(-6990.93 -6976.39)"/><path d="M7164.72,7172.6l14.83-15.52c7.11-7.43,14.21-14.88,21.37-22.27a4.16,4.16,0,0,1,2.5-1.34c9.9-.09,19.8-.05,30.14-.05a18.3,18.3,0,0,1-1.18,1.59q-17.48,18.28-35,36.54a4.06,4.06,0,0,1-2.51,1.25c-9.67.09-19.35.05-29,0A8.48,8.48,0,0,1,7164.72,7172.6Z" transform="translate(-6990.93 -6976.39)"/><path d="M7216,7172.85l8.94-9.35q13.64-14.25,27.26-28.52a4.5,4.5,0,0,1,3.6-1.6c9,.08,17.95,0,26.93,0,.67,0,1.33.06,2.33.11-.55.71-.88,1.2-1.27,1.62q-17.41,18.19-34.85,36.36a3.85,3.85,0,0,1-2.28,1.29C7236.69,7172.88,7226.72,7172.85,7216,7172.85Z" transform="translate(-6990.93 -6976.39)"/><path d="M7267.74,7172.6c4.73-5,9.2-9.65,13.69-14.33,7.49-7.83,15-15.67,22.52-23.44a4.4,4.4,0,0,1,2.71-1.35c9.52-.1,19-.06,28.57-.06.35,0,.7.07,1.52.16-3.52,3.7-6.74,7.1-10,10.49q-13.17,13.74-26.38,27.46a4.06,4.06,0,0,1-2.51,1.27c-9.67.09-19.35.05-29,0A8.49,8.49,0,0,1,7267.74,7172.6Z" transform="translate(-6990.93 -6976.39)"/><path d="M7047.22,7063.46c10.19-2.72,19.88-5.33,29.59-7.86a2.79,2.79,0,0,1,1.93.39q22.34,13.52,44.65,27.1c.12.07.19.23.52.61-1,.29-1.81.57-2.65.8-8.52,2.29-17,4.6-25.57,6.8a4.69,4.69,0,0,1-3.23-.27q-22-13.2-43.89-26.57C7048.25,7064.27,7048,7064,7047.22,7063.46Z" transform="translate(-6990.93 -6976.39)"/><path d="M7246.33,7010.19c1.52-.43,2.75-.8,4-1.13,8.15-2.19,16.28-4.41,24.45-6.51a4.67,4.67,0,0,1,3.24.3q21.9,13.13,43.69,26.44c.37.23.7.53,1.4,1.07-2.48.68-4.59,1.28-6.71,1.85-7.32,2-14.64,3.95-22,5.84a4,4,0,0,1-2.79-.26q-22.08-13.28-44.08-26.69C7247.22,7010.9,7246.93,7010.65,7246.33,7010.19Z" transform="translate(-6990.93 -6976.39)"/><path d="M7388.42,7133.42l-9.19,9.65c-8.94,9.34-17.9,18.65-26.79,28a5.23,5.23,0,0,1-4.22,1.8c-8.66-.09-17.33,0-26,0h-2.9a20.9,20.9,0,0,1,1.29-1.72q17.32-18.11,34.71-36.18a4.43,4.43,0,0,1,2.66-1.48C7367.88,7133.38,7377.78,7133.42,7388.42,7133.42Z" transform="translate(-6990.93 -6976.39)"/><path d="M7196.52,7023.46c10.11-2.71,19.73-5.3,29.37-7.82a3.06,3.06,0,0,1,2.14.38q22.16,13.36,44.27,26.82c.25.16.46.39.9.76-.73.26-1.26.5-1.82.65-8.89,2.4-17.77,4.82-26.68,7.12a4.33,4.33,0,0,1-3-.35q-22-13.2-43.87-26.57C7197.49,7024.26,7197.22,7024,7196.52,7023.46Z" transform="translate(-6990.93 -6976.39)"/><path d="M7223.68,7057c-8.39,2.26-16.47,4.14-24.35,6.65-4.38,1.4-7.74.75-11.58-1.68-12.76-8.08-25.77-15.76-38.67-23.6-.65-.39-1.28-.82-2.23-1.44.9-.33,1.49-.59,2.1-.76,8.83-2.37,17.64-4.76,26.49-7a4.34,4.34,0,0,1,3,.3q22.11,13.29,44.12,26.72C7222.82,7056.35,7223,7056.55,7223.68,7057Z" transform="translate(-6990.93 -6976.39)"/><path d="M7074.35,7097.05c-7.69,2.07-15.21,3.68-22.44,6.16-5.63,1.93-10,1.13-15-2.13-11.86-7.75-24.16-14.83-36.28-22.18-.91-.55-1.82-1.13-3.06-1.9a19.46,19.46,0,0,1,1.86-.73c8.9-2.39,17.8-4.8,26.72-7.1a4.29,4.29,0,0,1,3,.29q22.22,13.34,44.32,26.82A9,9,0,0,1,7074.35,7097.05Z" transform="translate(-6990.93 -6976.39)"/><path d="M7182.21,7133.55c-1.22,1.3-2.13,2.3-3.06,3.27q-16.62,17.37-33.27,34.7a3.84,3.84,0,0,1-2.28,1.28c-10,.08-20,.05-30.49.05.83-.94,1.32-1.56,1.87-2.13q17.19-18,34.41-35.86a4.42,4.42,0,0,1,2.69-1.38c9.52-.1,19-.06,28.56,0C7181,7133.43,7181.36,7133.48,7182.21,7133.55Z" transform="translate(-6990.93 -6976.39)"/><path d="M7097,7050.12l7.23-1.92c7.1-1.91,14.18-3.86,21.3-5.68a4.67,4.67,0,0,1,3.24.35c14.59,8.75,29.13,17.61,43.68,26.44.37.23.69.53,1.33,1-1.49.44-2.63.8-3.79,1.11-8.29,2.22-16.58,4.46-24.9,6.59a4.27,4.27,0,0,1-3-.38q-21.78-13.09-43.48-26.33C7098.2,7051.05,7097.8,7050.7,7097,7050.12Z" transform="translate(-6990.93 -6976.39)"/><path d="M7061.59,7172.86c.9-1,1.36-1.58,1.87-2.11q17.09-17.86,34.16-35.74a4.74,4.74,0,0,1,3.83-1.63c8.89.08,17.79,0,26.69,0h2.49c-.66.82-1,1.35-1.47,1.82q-17.23,18-34.55,36a5.57,5.57,0,0,1-3.54,1.55C7081.48,7172.91,7071.88,7172.86,7061.59,7172.86Z" transform="translate(-6990.93 -6976.39)"/><path d="M7372.87,7017.05l-9.23,2.49c-6.43,1.72-12.85,3.49-19.31,5.13a4.44,4.44,0,0,1-3-.25q-22-13.22-43.92-26.59a15.48,15.48,0,0,1-1.28-1l9-2.44c6.5-1.74,13-3.52,19.53-5.17a4.33,4.33,0,0,1,3,.26q22,13.22,43.92,26.6C7371.94,7016.28,7372.27,7016.59,7372.87,7017.05Z" transform="translate(-6990.93 -6976.39)"/><path d="M7379.66,7004.24l-34.11-20.7,26.63-7.15C7374.64,6985.57,7377.06,6994.56,7379.66,7004.24Z" transform="translate(-6990.93 -6976.39)"/><path d="M6991.51,7090.06l33.35,20.25-26.62,7.15c-2.46-9.17-4.89-18.2-7.31-27.23Z" transform="translate(-6990.93 -6976.39)"/><path d="M7397.92,7144.21v28.47h-27.26Z" transform="translate(-6990.93 -6976.39)"/><path d="M7000.64,7133.55h27.1l-27.1,28.34Z" transform="translate(-6990.93 -6976.39)"/></svg>