<svg id="Layer_1" data-name="Layer 1" xmlns="http://www.w3.org/2000/svg" viewBox="0 0 320.46 427.29"><path d="M7039.3,7199.65c0-62.9-.13-125.8.17-188.7a37.71,37.71,0,0,1,4.36-17.21c3.85-7,11.49-7.85,19.06-7.84q73,.14,145.94.06c9.27,0,18.57-.32,27.82.17,3.26.18,7.25,1.53,9.5,3.76q55,54.45,109.43,109.44a15.72,15.72,0,0,1,4,10.07q.31,140.84.15,281.69c0,14.11-7.73,22-21.74,22q-138.47.07-276.94,0c-14,0-21.7-7.92-21.71-22Q7039.26,7295.36,7039.3,7199.65Zm13.73,46.49v100c1.74.13,3.06.3,4.37.3q99.8,0,199.59,0c7.59,0,9.3-1.87,9.31-9.91q0-39,0-78.08c0-11.29-1-12.3-12.46-12.3l-192.8,0Zm193.3-236c-.11,1-.27,1.87-.27,2.7,0,25.78,0,51.55.08,77.33,0,7.15,2.19,9.14,9.49,9.16q37.65.08,75.29,0c1.45,0,2.9-.25,4.35-.39Z" transform="translate(-7039.27 -6985.86)"/><path d="M7143.6,7261.31c7.25,0,13.58-.42,19.82.1,8.38.69,13.31,5,13.66,13.28.6,14.44.64,29-.09,43.38-.46,8.91-5.91,13-14.94,13.38-5,.18-9.95.05-14.93,0-.87,0-1.74-.2-3.52-.41v-69.75Zm11.5,10.55v49.49c10,.68,11.56-.65,11.56-9.58,0-10.16,0-20.31,0-30.47C7166.56,7271.72,7165.07,7270.5,7155.1,7271.86Z" transform="translate(-7039.27 -6985.86)"/><path d="M7105.47,7331.13v-69.28c20.65-3.33,30.67.31,31.78,12.49,2.08,22.7.77,30.09-21.12,31.66v25.13Zm11-36.8c8.92,1.18,10.1.23,10.26-7.91,0-2.25.05-4.5,0-6.75-.2-8.06-1.41-9-10.25-7.66Z" transform="translate(-7039.27 -6985.86)"/><path d="M7196,7292.63h13.52v9.53l-13.89.62v28.4h-10.6v-69.6h28.16V7271H7196Z" transform="translate(-7039.27 -6985.86)"/></svg>