<svg id="Layer_1" data-name="Layer 1" xmlns="http://www.w3.org/2000/svg" viewBox="0 0 406.58 385.34"><path d="M6996.7,7163.42h405.76v2.87q0,94.26,0,188.52c0,2.41-1.4,7.66-2.68,11.18a39.74,39.74,0,0,1-4.85,8.93,8.29,8.29,0,0,1-.86,1.34c-3.55,3.53-6.88,7.3-11.24,9.94a56.38,56.38,0,0,1-11.41,4.65c-1.39.33-2.8.42-4.14.73a16.77,16.77,0,0,1-3.84.59c-1.48,0-3,0-4.44,0q-161.2,0-322.39-.05a37.94,37.94,0,0,1-22.5-7.46,48.09,48.09,0,0,1-10.59-10.58c-2.92-4-4.56-8.59-6.07-13.19a22.08,22.08,0,0,1-.74-6.86q-.06-93.57,0-187.15ZM7190,7364.56c0-.6-.09-1.15.12-1.47a10.34,10.34,0,0,0,1.29-6c0-7.39,0-14.79,0-22.19a7.5,7.5,0,0,0,0-2.37c-1.09-3.09-2.41-6.1-5.18-8.08a13.73,13.73,0,0,0-8.1-2.66q-26.64,0-53.26,0a20,20,0,0,0-8.76,2.74,10.19,10.19,0,0,0-4.5,7.91c-.24,9.32-.1,18.66-.07,28a8.32,8.32,0,0,0,.5,1.83c1.33,5.13,6.51,8.71,11.92,8.71h46.42c3,0,5.94.18,8.88-.06,2.54-.21,5.05-.65,7.12-2.62C7187.63,7367.07,7188.62,7365.55,7190,7364.56Zm19.16.16a15.4,15.4,0,0,1,1.6,1.41,15.68,15.68,0,0,0,4.28,3.57,13.42,13.42,0,0,0,5.95,1.3q27.14,0,54.28,0a13.26,13.26,0,0,0,4.15-.75c5.1-1.63,8.46-6.89,8.35-11.19-.21-8.65,0-17.3-.09-25.95a10.69,10.69,0,0,0-4.56-8.58c-2-1.51-6.49-2.75-9.09-2.75q-25.79,0-51.55,0c-1.53,0-3.12-.32-4.5.68-5.42.22-10.31,6.86-10.22,12.44.11,6.6.08,13.2,0,19.8,0,3.09,0,6.13,1.37,9C7209.22,7363.91,7209.15,7364.18,7209.15,7364.72Zm-114.77-33.39a10.82,10.82,0,0,0-.69-1.43c-1.13-1.7-2-3.7-3.51-5a13.64,13.64,0,0,0-8.92-3.06q-26.44-.14-52.91,0a14.8,14.8,0,0,0-5.44.83c-4.92,2.05-8.21,6.08-8.39,11.7-.23,7,0,14.1-.07,21.16a17.82,17.82,0,0,0,1.3,8c.8,1.72,1.53,3.44,3,4.52a14.89,14.89,0,0,0,9,3q26.8-.06,53.6,0a13.65,13.65,0,0,0,7.36-2c3.08-1.86,5.64-5.84,5.64-9.32C7094.39,7350.1,7094.38,7340.55,7094.38,7331.33Zm210.4-.31v30.48c.63,1.24,1.14,2.28,1.68,3.31a11,11,0,0,0,10,6.11c18.66.16,37.32.08,56,.05a12,12,0,0,0,5.56-1.39c4.61-2.49,6.44-6.3,6.61-11.38.26-7.84.11-15.7.05-23.55a12.49,12.49,0,0,0-3.44-8.48,13,13,0,0,0-4.72-3.35c-4.79-1.35-9.39-1-14-1q-21,0-42,0a22.25,22.25,0,0,0-5.88.59c-3.11.83-5.92,1.77-7.52,4.84C7306.48,7328.56,7305.58,7329.77,7304.78,7331Zm-193.32-69c0,9.67,0,19.12,0,28.57a9.6,9.6,0,0,0,1.16,4.65,11.9,11.9,0,0,0,10.78,6.72c18.44.14,36.88,0,55.33.1a12.8,12.8,0,0,0,8.79-3.46,10.42,10.42,0,0,0,3.09-4.81,21.39,21.39,0,0,0,.87-5.83c-.17-7.17-.05-14.34-.08-21.52a13.18,13.18,0,0,0-2.05-7.33c-2.2-3.36-5-5.65-9.36-5.63-19.12.08-38.25,0-57.37,0-3.89,0-6.32,1.31-8.6,4.65C7113.14,7259.38,7112.35,7260.65,7111.46,7262Zm104.88-8.51c-.26.24-.47.56-.76.67-5.45,2.19-7.59,6.65-7.74,12.07-.23,7.73,0,15.48-.08,23.22a13.52,13.52,0,0,0,1.11,5,12.66,12.66,0,0,0,11.4,7.57q27.49-.12,55,0a12,12,0,0,0,4.15-.76c4.91-1.76,8.42-5.79,8.33-11.19-.12-8.42-.08-16.85,0-25.27a9.42,9.42,0,0,0-1.42-5.23c-2.4-3.94-5.62-6.19-10.57-6.16C7256,7253.58,7236.14,7253.49,7216.34,7253.49ZM7024,7233c19.19,0,38.65,0,58.12,0a11.2,11.2,0,0,0,6.7-2c3.64-2.49,5.66-5.58,5.62-10.07-.08-8.19-.05-16.39,0-24.58a10.77,10.77,0,0,0-3.42-8.18,21.49,21.49,0,0,0-5.34-3.69h-59.73c-4.21,0-7.2,2.18-9.38,5.56a13.41,13.41,0,0,0-2.06,7.33q0,10.24,0,20.49a25.12,25.12,0,0,0,.59,5.89,10.75,10.75,0,0,0,5.58,7.54C7021.67,7231.87,7022.72,7232.37,7024,7233Zm351.16,0c1.31-.61,2.28-1,3.22-1.51a10.38,10.38,0,0,0,4.94-5.06,15.44,15.44,0,0,0,1.42-6.24c0-6.72,0-13.43,0-20.15a31.71,31.71,0,0,0-.59-6.56c-1-4.92-6.45-9-10.6-9-19.46.05-38.92,0-58.38,0a4.93,4.93,0,0,0-2,.2c-4.3,1.95-8.57,6.2-8.43,11.75.22,8,.15,15.94,0,23.9-.08,4.86,1.78,8.41,6,10.8,1.78,1,3.42,1.84,4.7,1.84Zm-254.63-48.5a16,16,0,0,0-6.05,4.14,9.85,9.85,0,0,0-3,7.31q0,12.81,0,25.61a7.71,7.71,0,0,0,0,2c1.44,5,6.27,9.46,11.51,9.44,18.89-.09,37.79-.05,56.68,0a6.63,6.63,0,0,0,4.58-1.35c.88-.73,2.25-1,3-1.79a15.16,15.16,0,0,0,3.34-5.06,17.26,17.26,0,0,0,.88-5.49c-.17-7.28-.06-14.56-.07-21.85a15.51,15.51,0,0,0-2.06-7.33c-2-3.37-5-5.59-9-5.61C7160.22,7184.45,7140.08,7184.5,7120.5,7184.5Zm96.64,48.5h58.6a9.14,9.14,0,0,0,2.72,0c4.92-1.57,9.37-6.17,9.28-11.66-.15-8.31-.06-16.62,0-24.93a10.76,10.76,0,0,0-3.41-8.18,21.76,21.76,0,0,0-5.34-3.69h-6.81c-17.53,0-35,0-52.58-.05a9.75,9.75,0,0,0-4.72,1,22.13,22.13,0,0,0-5,4.31c-1,1.09-2.09,5.4-2.09,7q0,12.12,0,24.24c0,.35,1.21,5,1.36,5.24a10.82,10.82,0,0,0,5.7,5.46A15.48,15.48,0,0,1,7217.14,7233Zm-193.61,20.49c-1,.38-1.38.5-1.75.69a12.77,12.77,0,0,0-7.25,11.51c-.24,8.08-.07,16.17-.07,24.25a32,32,0,0,0,1.37,4.9c2.39,4.75,6.18,7.15,11.27,7.15q27.33,0,54.65,0a14.7,14.7,0,0,0,4.16-.66c4.71-1.37,8.69-6.58,8.54-11.41-.24-8.19-.11-16.39,0-24.59a12.79,12.79,0,0,0-.73-4.15,9,9,0,0,0-3.07-4.8c-2.15-1.43-4.3-3-7.31-3C7063.28,7253.56,7043.24,7253.49,7023.53,7253.49Zm352.44,0h-62.49c-.85.51-1.57,1-2.33,1.36a10.88,10.88,0,0,0-6.36,10.3q-.06,12.63,0,25.27a9.51,9.51,0,0,0,.38,2.89,12.7,12.7,0,0,0,12,8.69c18.32,0,36.65,0,55,0a12.22,12.22,0,0,0,12.44-12.18q.38-12.12,0-24.25a12.34,12.34,0,0,0-3.67-8.72A22.7,22.7,0,0,0,7376,7253.49Z" transform="translate(-6996.21 -7006.83)"/><path d="M7065.69,7057.45v2.78c0,9.22,0,18.44,0,27.66a24.3,24.3,0,0,0,.74,7.2c1.3,4,2.35,8.16,5.05,11.56,1.63,2.05,2.93,4.48,4.91,6.1,2.14,1.75,4.42,3.44,6.72,5.05,3.24,2.28,7,3,10.44,4.54,1.5-.42,2.76.63,4.16.66,2.62.07,5.31.4,7.84-.06,4.25-.78,8.5-1.77,12.34-4a46.1,46.1,0,0,0,6.91-4.8,29.45,29.45,0,0,0,6.17-7c2.24-3.6,4.33-7.23,5.12-11.55a49,49,0,0,0,1.29-9q0-13.14,0-26.29v-2.78h124.32v2.87c0,9,0,18,0,27a38.1,38.1,0,0,0,1.69,10.24,39.94,39.94,0,0,0,5.3,10.76c2.55,4,9.27,9.28,14,11.3a49,49,0,0,0,8.78,2.77,32.84,32.84,0,0,0,9.3.46,30,30,0,0,0,9.33-2.15,41.15,41.15,0,0,0,10.89-6.73,33.46,33.46,0,0,0,9.05-11.95,36.21,36.21,0,0,0,2.82-9.1c1-5.84.38-11.67.53-17.49s0-11.83,0-18.06h3c8,0,15.94.07,23.91,0a44.92,44.92,0,0,1,15.93,2.79,34.81,34.81,0,0,1,8.4,4.43,47.78,47.78,0,0,1,11.06,11.06,37.57,37.57,0,0,1,2.9,4.94,70.88,70.88,0,0,1,3,8,19.56,19.56,0,0,1,.75,6.51c.06,15.59,0,31.19,0,46.78,0,1.15.2,2.3.32,3.69a3.08,3.08,0,0,1-1.08.63,9.24,9.24,0,0,1-2,0H6997c-.25-.26-.5-.5-.74-.74,0-.16-.13-.42-.07-.47,1-.84.44-1.94.44-2.89q.06-20.83,0-41.67c0-1.36,0-2.73,0-4.09-.12-4.85,1.34-9.31,3.1-13.75a37.2,37.2,0,0,1,8.45-12.57,40.75,40.75,0,0,1,12.13-8.69,53.74,53.74,0,0,1,11.28-3.33c5.61-1.12,11.21-.41,16.81-.57S7059.82,7057.45,7065.69,7057.45Z" transform="translate(-6996.21 -7006.83)"/><path d="M7081.41,7057c0-10.8,0-21.61,0-32.41a14.87,14.87,0,0,1,3.94-9.61,23,23,0,0,1,5.6-5.16,18.15,18.15,0,0,1,4.31-2,20.44,20.44,0,0,1,14.28.8,21.63,21.63,0,0,1,10,9.07,15.43,15.43,0,0,1,2.19,7.62q-.08,31.72,0,63.46c0,3.68-1.56,6.79-3.27,9.91-1.55,2.83-4.31,4.34-6.52,6.44-.48.46-6.18,2.15-6.93,2.21-1,.07-2-.33-2.84.63-.18.22-1-.1-1.54-.22s-.8-.42-1.19-.39c-2,.11-3.75-.74-5.6-1.33a17.08,17.08,0,0,1-9.39-7.64,21.77,21.77,0,0,1-2.56-5.78,11.6,11.6,0,0,1-.45-3.2C7081.39,7078.59,7081.41,7067.78,7081.41,7057Z" transform="translate(-6996.21 -7006.83)"/><path d="M7317.76,7057.26q0,16,0,32.07c0,2.88-1.16,5.33-2.42,7.87a18.91,18.91,0,0,1-14.52,10.11c-.84.14-1.76-.29-2.52.58-.21.24-1,0-1.55-.09s-.78-.47-1.16-.46A12.87,12.87,0,0,1,7290,7106c-2.7-1.23-7.14-4-8.41-5.94a24.82,24.82,0,0,1-2.65-4.7,17.08,17.08,0,0,1-1.47-5.88q0-32.4,0-64.82c0-2.51,2.11-7.82,4.1-9.89a27.26,27.26,0,0,1,5.7-5.11,21,21,0,0,1,10.46-2.84,21.58,21.58,0,0,1,11.76,3.77,23,23,0,0,1,8.14,11.56,8.82,8.82,0,0,1,.13,2.68Q7317.77,7041.05,7317.76,7057.26Z" transform="translate(-6996.21 -7006.83)"/></svg>