<svg id="Layer_1" data-name="Layer 1" xmlns="http://www.w3.org/2000/svg" viewBox="0 0 318.33 360.69"><path d="M7114.89,7226c-5.31-4.9-9.13-10.88-12.26-17.35-6.88-14.22-8.15-29.2-6.25-44.68a145.72,145.72,0,0,1,9.84-37.39c4.25-10.43,5-21.49,5.37-32.58.35-10,.84-20,4-29.6,8-24.1,24.78-38.54,49.55-42.68,16.94-2.83,34.26-3.23,50.92,2.11,24.53,7.87,38.48,25.33,42.79,50.37,1.54,8.93,1.61,18.12,2.16,27.2A87.22,87.22,0,0,0,7267,7129a127.81,127.81,0,0,1,9.65,51.2c-.34,13.81-4.74,26.41-12.42,37.88a11.79,11.79,0,0,1-.8.91c-4.74-4.12-10.72-6.09-15.78-9.34-6.64-4.26-13.43-2.91-20.23-3.26-2.1-.11-3.54-.56-4.81-2.13-4-5-6-10.88-7.53-17a2.29,2.29,0,0,1,.92-1.84c17.7-12,24.88-29.9,27.91-50.07a5.41,5.41,0,0,0-.59-3.31c-10.66-18.31-19.28-37.61-28.05-56.84a7.1,7.1,0,0,0-.72-1.43,3,3,0,0,0-5-.08,6.47,6.47,0,0,0-.86,1.65c-6,15.46-17.18,24.74-33.45,28.11a154.31,154.31,0,0,0-17,4.7c-12.47,4.16-21.67,12.48-28.58,23.46a5.68,5.68,0,0,0-.81,3.52c2.84,20.23,10.08,38.06,27.69,50.17.59.41,1.31,1.45,1.17,2-1.6,6.34-3.55,12.58-8.17,17.48a6,6,0,0,1-3.68,1.44c-5.16.37-10.34.39-15.49.79-3.7.28-4.68,1.54-3.95,5.07.47,2.26-.19,3.51-1.92,4.94C7121.18,7219.75,7118.2,7222.84,7114.89,7226Z" transform="translate(-7040.84 -7019.66)"/><path d="M7099.39,7372.59c.25-2.1.58-4.19.74-6.3.19-2.34-1-4-2.92-4-2.16,0-3.1,1.3-3.3,3.41a28.68,28.68,0,0,1-1,5.78c-2.65,8.36-12.3,11.62-19.2,6.18a31.43,31.43,0,0,1-7.3-8.74c-5.36-9.11-7.87-19.29-9.76-29.57a270.13,270.13,0,0,1-3.42-71.2,3.27,3.27,0,0,1,1.57-2.47c6.77-1.89,13.6-3.57,20.85-5.42,1.85,6.35,3.8,12.53,5.44,18.79,5.15,19.69,9.58,39.52,12.08,59.74.44,3.54.65,7.11.77,10.68.07,2.17.72,3.71,3,4,2,.22,3.49-1.45,3.25-4-.77-8.16-1.41-16.36-2.75-24.44-1.71-10.29-4.06-20.46-6.09-30.7a6.66,6.66,0,0,1-.1-3.1c4.85-16,10.19-31.76,18.58-46.32a89,89,0,0,1,15.13-20c.7-.67,1.44-1.31,2.6-2.35.62,4.95,1.16,9.48,1.78,14,1.37,9.87-.58,8,8.79,11.11q6.21,2.09,12.4,4.21a3.3,3.3,0,0,1,.65.45c-1.5,4.37-2.92,8.86-4.59,13.25-1,2.68-.49,4.42,1.88,6.15q16.53,12.07,32.85,24.47a5,5,0,0,1,1.8,3.42c.1,24.29.08,48.57.07,72.85,0,.79-.1,1.57-.16,2.45h-38.88v-55.14c.49.06,1.24.2,2,.26,1.87.15,3.2-.62,3.52-2.51a3,3,0,0,0-2.43-3.58l-.77-.22c-6.3-1.55-10.23-5.69-12.18-11.67-3.43-10.49-2.44-20.48,4.29-29.47,2.1-2.81,1.54-5.78,1.18-8.69-.11-.88-2.1-2.18-3.12-2.09s-2.78,1.76-2.71,2.6c.34,3.67-1.76,6.23-3.34,9.06-5.62,10.13-5.55,20.61-2,31.34a6.12,6.12,0,0,1,.5,3c-4.26,17.18-9.29,34.11-18.05,49.61-2.66,4.71-6.2,8.92-9.32,13.36-.56.8-1,1.65-1.56,2.48Z" transform="translate(-7040.84 -7019.66)"/><path d="M7221.39,7252c5.89-2,11.51-4,17.21-5.66,2.83-.84,4-2.43,4.28-5.3.85-8.24,1.93-16.45,3-25a34.82,34.82,0,0,1,16.53,11.11c5.89,7.15,8.21,15.68,9.47,24.64,4.82,34.47,8.05,69.11,10.6,103.81.2,2.74.21,2.74-3.28,6.42a69.1,69.1,0,0,0-7-4.13q-11.22-4.95-22.63-9.51c-1.46-.58-2.41-1-2.6-2.77-1.3-11.79-2.72-23.56-4-35.35a9.39,9.39,0,0,1,.65-4.14c4.63-12.38,4.1-24.24-3.14-35.6a11.86,11.86,0,0,1-1.48-4.92c-.31-2.61-1.37-4.22-3.3-4-2.31.26-3,1.81-3,4a12.73,12.73,0,0,0,2.26,8.23c6.35,9,6.81,18.92,3.16,29.08a15.9,15.9,0,0,1-11.2,10.6c-2.17.59-4.4,1.24-3.76,4.14s3,2.5,5.17,2.09c.16,0,.34,0,.29,0v25.08c-9,.12-17.26,1.67-24,7.51s-9.33,13.89-10.45,22.5h-4.52c-.05-1-.13-1.87-.13-2.74q0-36-.05-72a4.57,4.57,0,0,1,2.13-4.18c10.93-8,21.76-16.19,32.7-24.2,2.33-1.71,3-3.41,1.88-6.14C7224.4,7261.23,7223,7256.8,7221.39,7252Z" transform="translate(-7040.84 -7019.66)"/><path d="M7212,7083.34c2.29,4.94,4.28,9.58,6.54,14.08,6.05,12,12.23,24,18.3,36a5.34,5.34,0,0,1,.6,3,76.25,76.25,0,0,1-8.8,26.23c-11,19.36-28.69,26.49-49.4,24-21.08-2.53-33.12-15.89-40-34.79-1.68-4.58-2.55-9.46-3.78-14.2a6,6,0,0,1,1.15-5.23c7.84-11.43,18.84-17.9,32.12-21q7.82-1.81,15.49-4.13c11.47-3.47,20-10.62,26-21C7210.68,7085.45,7211.22,7084.57,7212,7083.34Zm-25.72,89.13c2.65-.87,5.2-1.56,7.64-2.53a3.1,3.1,0,1,0-2.6-5.62,10.1,10.1,0,0,1-9.93,0,2.82,2.82,0,0,0-4.09,1.29c-.88,1.72-.49,3.47,1.37,4.27C7181,7170.88,7183.59,7171.58,7186.24,7172.47Zm31.47-44.15c0-4.31-1.52-6.19-3.94-5.44-1.81.57-2.41,2-2.37,3.76.05,2.09-.52,4.45,2,5.6a3.06,3.06,0,0,0,4.17-2.18A7.45,7.45,0,0,0,7217.71,7128.32Zm-62.65-.86a12.79,12.79,0,0,0,0,2.4,2.8,2.8,0,0,0,3.45,2.52c2.59-.39,2.69-2.43,2.7-4.48,0-3.48-.89-5.31-2.92-5-1.18.17-2.3,1.48-3.2,2.49C7154.76,7125.78,7155.06,7126.75,7155.06,7127.46Z" transform="translate(-7040.84 -7019.66)"/><path d="M7152.91,7210.45c6-5.88,8.62-13.46,10.91-21.21a62.09,62.09,0,0,0,45.05,0c2.32,7.77,4.88,15.35,10.9,21.24-5.18,8.78-10.46,17.37-15.34,26.18-1.74,3.13-3.65,4.3-7.25,4.16-8.12-.31-16.25-.06-24.37-.15a3.57,3.57,0,0,1-2.65-1.11C7164.35,7229.91,7158.67,7220.22,7152.91,7210.45Z" transform="translate(-7040.84 -7019.66)"/><path d="M7133,7212.59c4.35,0,8.43-.07,12.5.07a3.26,3.26,0,0,1,2.22,1.47q17.41,29.31,34.71,58.69a3.85,3.85,0,0,1,.7,1.7c.06,4.87,0,9.74,0,15-10-7.46-19.69-14.6-29.28-21.84a2.84,2.84,0,0,1-.42-2.45c1.31-4.16,2.79-8.27,4.21-12.4s.87-5-3.32-6.43c-5.4-1.8-10.83-3.54-16.19-5.46a3.63,3.63,0,0,1-2.18-2.16c-1.1-8.12-2-16.27-3-24.41C7133,7214.07,7133,7213.72,7133,7212.59Z" transform="translate(-7040.84 -7019.66)"/><path d="M7189.43,7289.62c0-5.27-.05-9.9,0-14.51a6,6,0,0,1,1-2.69q17.06-28.92,34.11-57.83a3.53,3.53,0,0,1,3.34-2.1c3.88,0,7.77,0,12,0-.73,6.21-1.36,11.6-2,17a37.71,37.71,0,0,0-.71,5.83c.13,3.91-1.52,5.8-5.36,6.74-4.92,1.2-9.67,3.1-14.47,4.73-3,1-3.65,2.28-2.64,5.27,1.48,4.39,3.08,8.74,4.49,13.15a2.81,2.81,0,0,1-.37,2.47C7209.27,7274.92,7199.6,7282.07,7189.43,7289.62Z" transform="translate(-7040.84 -7019.66)"/><path d="M7071.8,7231c-2.1,0-3.89-.12-5.66,0-6.68.51-11.17,7.63-8.45,13.65a4.2,4.2,0,0,0,3.38,2.1,4.06,4.06,0,0,0,2.48-3.06c.17-6.17.63-6.73,6.86-6.46.26,0,.52.08,1,.15.69,5.58,1.39,11.18,2.11,17-6.93,1.76-13.82,3.54-20.73,5.24a2.2,2.2,0,0,1-1.82-.49c-6.28-6.72-10.84-14.2-10-23.9a27.84,27.84,0,0,1,4.54-13.27c2.44-3.66,5.8-5.44,10.31-4.54,3.41.67,6.87,1.11,10.23,2,5.44,1.42,6.29,2.75,6,8.33C7072,7228.64,7071.92,7229.6,7071.8,7231Z" transform="translate(-7040.84 -7019.66)"/><path d="M7054.64,7210.69l-6.16.79c0-.93,0-1.86,0-2.78q1.64-70.39,3.26-140.79c.07-2.88,1.19-4.3,3.31-4.23s3.07,1.44,3,4.46q-1,41.35-2,82.71-.67,28.63-1.27,57.28C7054.79,7208.92,7054.71,7209.71,7054.64,7210.69Z" transform="translate(-7040.84 -7019.66)"/><path d="M7284.57,7367l7.39-4.51-.16-.38-5.58,2.05c13.9-17.83,38.87-31.14,62.22-23.94l-32.18,12.44.06.29c3.93-.52,7.85-1.34,11.8-1.49a67.53,67.53,0,0,1,12,.63,20.8,20.8,0,0,1,11.35,5.56C7327.91,7354.77,7306.19,7360.35,7284.57,7367Z" transform="translate(-7040.84 -7019.66)"/><path d="M7359.16,7374.82H7284l-.12-.39c2.23-.77,4.44-1.59,6.68-2.31,15.25-4.94,30.71-8.92,46.86-8.93,5.57,0,11.15,1.05,16.72,1.62a3.59,3.59,0,0,1,3.54,3.31C7358.08,7370.3,7358.64,7372.44,7359.16,7374.82Z" transform="translate(-7040.84 -7019.66)"/><path d="M7275.4,7374.88h-75.14c.77-3,1.35-5.85,2.27-8.56.22-.66,1.49-1.15,2.36-1.38,9.93-2.57,20-2.21,30-.9a187.57,187.57,0,0,1,39.3,9.9c.41.15.81.33,1.22.49Z" transform="translate(-7040.84 -7019.66)"/><path d="M7275.14,7367.28c-21.7-6.9-43.49-12.53-67-9.65,4.42-4,9.32-5.6,14.61-6.19,10-1.12,19.51,1,28.87,4.14A90.28,90.28,0,0,1,7275.14,7367.28Z" transform="translate(-7040.84 -7019.66)"/><path d="M7198.05,7247.19l-11.7,19.86-11.75-19.86Z" transform="translate(-7040.84 -7019.66)"/></svg>