<svg id="Layer_1" data-name="Layer 1" xmlns="http://www.w3.org/2000/svg" viewBox="0 0 221.44 221.56"><path d="M7309.77,7190.34c0,2.31.56,4.57.43,6.91a58,58,0,0,0,0,6.85c.07,1.19-.55,2.21-.49,3.36a10.35,10.35,0,0,1-.07,3.52,9,9,0,0,0-.35,2.94c0,1-.62,1.85-.51,2.92.09.86-.47,1.72-.43,2.69a6.79,6.79,0,0,1-.49,2.43c-.32.84,0,1.89-.8,2.55-.12,2.74-1.32,5.23-1.84,7.88a16.5,16.5,0,0,1-1.35,4.07c-.94,1.84-1.5,3.81-2.37,5.67-1.26,2.71-2.34,5.52-3.74,8.18-.9,1.7-2,3.33-2.86,5a71.3,71.3,0,0,1-4.66,7.36c-1,1.42-2,2.86-3.06,4.26s-2.11,2.85-3.29,4.16c-2.35,2.6-4.74,5.16-7.2,7.64a48.92,48.92,0,0,1-5.79,5.28c-1.65,1.19-2.79,3.07-4.88,3.66-2.36,2.48-5.41,4-8.21,5.88a84.76,84.76,0,0,1-10.07,5.55,175.34,175.34,0,0,1-16.53,6.56c-2.8.15-5.31,1.52-8.08,1.91a17.82,17.82,0,0,0-5.24,1.21c-.12.06-.28,0-.42,0a36.23,36.23,0,0,0-5.12.49c-1.72.4-3.49.06-5.12.47-2.25.55-4.47.27-6.7.35a36.31,36.31,0,0,1-6.84-.07c-1.81-.28-3.61-.11-5.35-.43-1.13-.2-2.25-.26-3.37-.4a19.71,19.71,0,0,1-3.12-.49c-1.87-.54-3.81-.58-5.69-1.17a36.23,36.23,0,0,0-5.41-1.34c-1.75-.26-3.26-1.1-5-1.44a39.61,39.61,0,0,1-4.62-1.64c-2.48-.82-4.82-1.92-7.21-2.92a49.5,49.5,0,0,1-5.37-2.51,74.62,74.62,0,0,1-7-4c-1.23-.89-2.63-1.51-3.84-2.48-2-1.62-4.25-2.95-6.32-4.52a98.57,98.57,0,0,1-13-11.82,97.49,97.49,0,0,1-7.62-9.19c-1.35-1.88-2.58-3.87-4.09-5.66-1.27-1.5-2-3.45-3.05-5.13a77.72,77.72,0,0,1-3.9-7.46,94.83,94.83,0,0,1-4-9.43c-.79-2.18-1.66-4.34-2.29-6.57a65.4,65.4,0,0,1-1.69-6.4,33.77,33.77,0,0,0-1.15-4.82c-.29-.87-.2-1.77-.48-2.67a19.73,19.73,0,0,1-.51-4.88c-.05-1.14-.64-2.16-.5-3.36a4.41,4.41,0,0,0-.38-3.15c-.17-.25,0-.72,0-1.09,0-3.54,0-7.08,0-10.62,0-1.05.33-2.09.4-3.14s-.25-2.3.09-3.29a8.33,8.33,0,0,0,.36-2.94c0-1,.62-1.85.51-2.92-.09-.87.47-1.72.43-2.69a6.44,6.44,0,0,1,.49-2.44c.34-.84,0-1.88.79-2.54.12-2.74,1.33-5.23,1.85-7.89a27.45,27.45,0,0,1,1.27-3.88c.66-1.79,1.47-3.52,2.19-5.29a60.13,60.13,0,0,1,3.59-8c1.57-2.59,2.88-5.32,4.49-7.9,1.79-2.9,4-5.53,5.65-8.49.52-.94,1.41-1.55,2-2.48a51.65,51.65,0,0,1,3.37-3.94,62,62,0,0,1,6.29-6.67,102.14,102.14,0,0,1,8.26-7.32,135.47,135.47,0,0,1,11.72-7.95c3.43-2.07,6.93-3.92,10.52-5.64,4.75-2.27,9.74-3.92,14.67-5.71,2.81-.14,5.31-1.53,8.09-1.91a17.15,17.15,0,0,0,5.23-1.21,1.2,1.2,0,0,1,.43,0,36.1,36.1,0,0,0,5.11-.5c1.72-.4,3.5-.06,5.12-.46,2.33-.58,4.62-.26,6.92-.35a40.69,40.69,0,0,1,7.07.06c1.65.23,3.31.13,4.9.43,1.14.21,2.25.26,3.37.4a21.86,21.86,0,0,1,3.12.49c1.87.55,3.82.58,5.69,1.17a49.77,49.77,0,0,0,5.41,1.36,37,37,0,0,1,5.18,1.43,87.77,87.77,0,0,1,11.25,4.36c1.63.84,3.49,1.29,5,2.28,2.56,1.64,5.26,3,7.87,4.55,2.34,1.36,4.35,3.19,6.81,4.36a14.39,14.39,0,0,1,2.47,2c2,1.55,3.89,3.16,5.82,4.76a92.07,92.07,0,0,1,8.33,8.07,103.69,103.69,0,0,1,7.16,8.72c1.94,2.58,3.71,5.28,5.49,7.95a79.75,79.75,0,0,1,5.46,9.89,108,108,0,0,1,6.42,16.58,71.11,71.11,0,0,1,2.08,8.25,25.82,25.82,0,0,0,1.17,5.24c.39,1,.18,2.21.44,3.35A42.38,42.38,0,0,1,7309.77,7190.34Zm-115.09,109.6-.09.08.31.36.14-.13a3.55,3.55,0,0,0-.34-.28,6.18,6.18,0,0,0-.23-1.24,33.68,33.68,0,0,1-1.53-5.56,12.26,12.26,0,0,1-.52-2.45,8.54,8.54,0,0,0-.37-2.72c-.33-.92,0-2-.09-3.07s-.3-1.94-.42-2.92.36-2.12.38-3.14a43.43,43.43,0,0,1,.91-8c.43-2.11,1-4.17,1.55-6.23.12-.43.16-.88.25-1.35a53.83,53.83,0,0,1-15,12.36,55.42,55.42,0,0,1-17.79,6.43,58,58,0,0,1,17.72,6.18A64.2,64.2,0,0,1,7194.68,7299.94Zm-37-26.9a70.41,70.41,0,0,1,9.8-8.92,53.47,53.47,0,0,1,10.77-6,63,63,0,0,1,11.56-3.6,67.51,67.51,0,0,1-17.28-6.34,58.82,58.82,0,0,1-14.93-11.94,1.47,1.47,0,0,0,.05.82c.23.78.53,1.55.7,2.35.48,2.24,1.49,4.38,1.34,6.74.86.78.29,1.8.44,2.69a22.79,22.79,0,0,1,.43,2.69,34.62,34.62,0,0,1,0,4.2c-.11,1.41.21,2.8-.34,4.27-.44,1.19-.23,2.64-.45,4a46.1,46.1,0,0,1-1.39,5.85,9.8,9.8,0,0,0-.41,2.73l-.09-.09-.36.31.14.14C7157.73,7272.82,7157.84,7272.7,7157.65,7273Zm36.66-64.59-5.65,5.66a8.59,8.59,0,0,1-1.26,1.23c-2.66,1.64-5,3.67-7.77,5.23a71.59,71.59,0,0,1-7.76,3.71,19.15,19.15,0,0,1-2.28.88c-2.41.67-4.83,1.29-7.58,2a14.29,14.29,0,0,1,3.19.7c.9.44,1.9.23,2.78.79a11.79,11.79,0,0,0,2.7.93c.91.29,1.83.56,2.72.89s1.77.71,2.64,1.11,1.74.79,2.58,1.25,1.77,1.06,2.64,1.62,1.6,1.11,2.41,1.65,1.66,1,2.44,1.57,1.57,1.23,2.32,1.87,1.48,1.38,2.29,2a5.24,5.24,0,0,1,1.91,2.21c1.11,0,.77,1.77,2,1.57-.62-2.34-1.76-4.53-1.78-7-1-.69.12-2.05-.88-2.73a8.19,8.19,0,0,0-.07-2.85,6.77,6.77,0,0,1-.36-2.93c.15-3.18-.22-6.36.35-9.56a53.84,53.84,0,0,1,1.33-6.76,31.9,31.9,0,0,0,.92-4.73l.08.09.36-.31-.14-.14C7194.35,7208.51,7194.25,7208.63,7194.31,7208.45Zm10.21-17.74,1-1a75.63,75.63,0,0,1,8.84-8,65.13,65.13,0,0,1,6.85-4.32,43,43,0,0,1,5.38-2.5c2.05-.77,4.18-1.32,6.28-2,1.25-.37,2.52-.7,4.09-1.14a62.92,62.92,0,0,1-12.14-3.68,58.39,58.39,0,0,1-10.77-6.06c-3.58-2.4-6.35-5.7-9.8-8.87a58.48,58.48,0,0,1,.62,37.05l-.08-.09-.37.31.14.14C7204.66,7190.48,7204.76,7190.36,7204.52,7190.71Zm48.07,81.9a57.09,57.09,0,0,1,31.47-18.44l-.06-.66a11,11,0,0,1-4-.75c-1.31-.4-2.7-.59-4-1.06s-2.42-1.37-3.72-1.68a10.59,10.59,0,0,1-3.71-1.7c-1.19-.86-2.64-1.21-3.75-2.25a37.34,37.34,0,0,0-3.46-2.25c-1.15-.85-2.13-1.93-3.29-2.77a7.47,7.47,0,0,1-2.93-3c-1.55-.17-1.52-2.18-3-2.73a55.49,55.49,0,0,1,3.27,18.61,65.16,65.16,0,0,1-2.69,18.62l-.09-.09-.36.31.14.14A.94.94,0,0,0,7252.59,7272.61Zm-.45-91.66.09-.09-.31-.36-.14.14a.91.91,0,0,0,.48.25c.13,2.09,1,4,1.43,6a46.59,46.59,0,0,1,1.08,5.92c.15,2.15.59,4.27.58,6.45s-.41,4.3-.55,6.45a39.92,39.92,0,0,1-.88,6.05c-.44,1.95-1.15,3.85-1.74,5.77a58.66,58.66,0,0,1,31.89-18.44,62.08,62.08,0,0,1-16.91-6.32A64.59,64.59,0,0,1,7252.14,7181Zm.22-18.06a19.9,19.9,0,0,1,1.62-2.13c1.16-1.17,2.39-2.27,3.67-3.34a75.92,75.92,0,0,1,6.37-4.95,38.74,38.74,0,0,1,7.51-4.25,48.28,48.28,0,0,1,8.35-2.83,19.32,19.32,0,0,1,3.86-.8c.1,0,.19-.15.29-.23l-.52-.52a40.36,40.36,0,0,1-10.58-3.08,56.61,56.61,0,0,1-21.25-15.31c1.82,6.2,3.19,12.21,3.23,18.52a72.93,72.93,0,0,1-2.68,18.82l-.09-.08-.36.31.14.14A.64.64,0,0,1,7252.36,7162.89ZM7194,7098.48a61.57,61.57,0,0,1-15,12.44,67.13,67.13,0,0,1-17.32,6.46c2.06.68,3.9,1.06,5.69,1.48,3.17.74,6,2.36,9,3.31,1.33,1.4,3.47,1.49,4.75,3,3.29,1.46,5.83,3.94,8.46,6.28,1.32,1.18,2.5,2.51,3.78,3.74.19.19.3.67.87.4a42.37,42.37,0,0,1-1.52-4.92,16.19,16.19,0,0,1-.76-4.32c-.84-.86-.11-2-.49-2.89a7.12,7.12,0,0,1-.39-2.94c0-1.1,0-2.21,0-3.32s0-2.36,0-3.54a11.88,11.88,0,0,1,.35-3.16,18,18,0,0,0,.46-3.34,27.72,27.72,0,0,1,1.2-5.05,15.88,15.88,0,0,0,.59-3.1l.09.09.36-.31-.14-.14C7193.91,7098.73,7193.81,7098.85,7194,7098.48Zm-84.37,55.91.09-.09-.31-.36-.14.14a.76.76,0,0,1,.26.3,48.86,48.86,0,0,1,1.43,4.95c.33,1.78.67,3.58,1,5.35s.12,3.59.38,5.35a12.81,12.81,0,0,1,0,5.41c-.45,1.68-.09,3.53-.43,5.33s-.69,3.57-1,5.36-1,3.21-1.36,5.28c1.55-1.61,2.34-3.36,4.06-4.18.76-1.75,2.81-2.15,3.8-3.67,2.25-1.25,4.13-3,6.38-4.31,2-1.12,4.12-1.9,6-3.21,1.48-.1,2.65-1.08,4.06-1.42s2.86-.92,4.33-1.29c.36-.09.69-.43,1.16-.4a3.62,3.62,0,0,0,1.09,0c.25,0,.46-.29.71-.4a11.17,11.17,0,0,1,1.25-.31,51.69,51.69,0,0,1-17.7-6.13A65.3,65.3,0,0,1,7109.6,7154.39Zm179.78,53.9a101.57,101.57,0,0,1-9.52,8.48,63.4,63.4,0,0,1-10.72,6.15,67.64,67.64,0,0,1-12,3.82,56.79,56.79,0,0,1,32.59,18.36,59.38,59.38,0,0,1-.37-36.79l.09.09.36-.31-.14-.14A1.62,1.62,0,0,0,7289.38,7208.29Zm-7.94-80.55-.09.08.31.37.14-.14a1.7,1.7,0,0,1-.32-.34c-1.48-1.65-2.9-3.35-4.45-4.92-1.26-1.29-2.68-2.41-4-3.62-1.61-1.45-3.14-3-4.85-4.33a19.26,19.26,0,0,0-2.47-2c-1.93-1-3.52-2.49-5.33-3.67-2.71-1.78-5.43-3.58-8.29-5.09a125.39,125.39,0,0,0-17.95-7.91c-2.6-.88-5.36-1.18-7.84-2.42-.24-.12-.65.09-.86,0-1-.63-2.27-.09-3.19-.87-1.11.38-2.1-1-3.22-.25a62.3,62.3,0,0,1,5.8,2.52c1,.56,2,1.17,3,1.72a17.64,17.64,0,0,1,2.5,1.44c2.25,1.73,4.55,3.4,6.62,5.33s4.13,4.3,6.11,6.53a18.1,18.1,0,0,1,1.89,2.75,16.05,16.05,0,0,0,2.44,3.31c2.34.42,4.48-.41,6.5.56,2.09-.2,4.05.49,6,.92a52.32,52.32,0,0,1,5.68,1.74,28.79,28.79,0,0,1,5.44,2.34c1.72,1,3.58,1.72,5.25,2.87A33.22,33.22,0,0,0,7281.44,7127.74ZM7302.57,7234l.28.07c.52-1.72,1.14-3.43,1.54-5.18.48-2.09,1.33-4.09,1.48-6.27.06-.86.63-1.68.72-2.55s.27-1.8.42-2.7.3-1.8.47-2.69-.13-2,.48-2.91c-.26-2.18.45-4.3.42-6.46-.08-5.4.37-10.81-.4-16.19-.27-1.85-.13-3.76-.54-5.56a24.08,24.08,0,0,0-.41-2.69,69.15,69.15,0,0,1-1.63-7.05c-.86-3.44-1.87-6.8-3.06-10.48-.08.54-.12.74-.13,1a15.19,15.19,0,0,0,.39,3.36,37.77,37.77,0,0,1,0,4.64c0,1.48.37,3.1-.14,4.38-.57,1.46.26,3-.75,4.33.26,1.89-.63,3.6-1,5.37a24,24,0,0,1-1.45,4.25c-.58,1.45-1.09,2.94-1.74,4.37s-1.36,2.68-2,4a56.64,56.64,0,0,1,5.38,13.51,32.67,32.67,0,0,1,1.21,5.23c.24,1.91.78,3.82.52,5.79a12.33,12.33,0,0,0,0,2.43,10.87,10.87,0,0,0,.41,1.61c-.08.09-.25.19-.26.3a53.25,53.25,0,0,1-.68,7.23c.35-.32.51-.41.5-.47a3.51,3.51,0,0,0-.19-.63C7302.36,7234.29,7302.29,7234.56,7302.57,7234Zm-185,37.24.09-.09-.31-.36-.14.14a.42.42,0,0,0,.5.1l-.12.18c1.26,1.46,2.42,3,3.79,4.37,2.53,2.47,5.2,4.78,7.87,7.1a84.15,84.15,0,0,0,6.85,5.4,101.52,101.52,0,0,0,14.33,8.61c2.83,1.35,5.63,2.75,8.58,3.84,1.39.51,2.81,1,4.19,1.63a85.83,85.83,0,0,0,8.6,2.72c1.66.5,3.44.47,5,1.28,1.09-.38,2.08,1,3.22.22a7.2,7.2,0,0,0-1.09-.64,51.31,51.31,0,0,1-9.86-5c-1.48-1.05-3-2-4.44-3.15a34,34,0,0,1-4.47-4.08c-.94-1.09-1.85-2.2-2.87-3.22a20.27,20.27,0,0,1-2.52-3.37c-1-1.47-2.1-2.84-3.08-4.15-2.24-.3-4.3,0-6.41-.4s-4-.66-6-1.06a30.51,30.51,0,0,1-5.7-1.69,54.84,54.84,0,0,1-5.66-2.35,48.33,48.33,0,0,1-5.19-2.94A35.65,35.65,0,0,0,7117.57,7271.26Zm102.83,34.84c2,.29,3.52-.42,5.07-.81,2-.51,4-1,6-1.63,2.68-.81,5.31-1.75,7.94-2.74,3.2-1.2,6.2-2.83,9.38-4.08.73-.28,1.35-.93,2.11-1.3a71.51,71.51,0,0,0,8-4.68c1.52-1,3-2.06,4.48-3.09,2.26-1.57,4.43-3.25,6.55-5a90.66,90.66,0,0,0,7-6.55c1.84-1.83,3.55-3.8,5.29-5.73.09-.1,0-.39-.07-.69a43.41,43.41,0,0,1-7.57,5.33,41.68,41.68,0,0,1-8.37,3.84,51.53,51.53,0,0,1-8.76,2.38c-3.17.47-6.33,1.13-9.5.85a59.48,59.48,0,0,1-27.23,24.27l0-.38-.86.17,0,.29C7220.2,7306.57,7220.48,7306.55,7220.4,7306.1Zm-42.14-213.29a5,5,0,0,0-2,0c-1.16.55-2.45.52-3.59,1s-2.37.74-3.52,1.08-2.39.66-3.57,1a62.66,62.66,0,0,0-11,4.39,7.4,7.4,0,0,1-1.84.88c-2.87.7-5.1,2.64-7.69,3.89a27,27,0,0,0-3.08,1.65,153.18,153.18,0,0,0-12.89,9.44c-2.11,1.74-4.09,3.68-6.06,5.58-2.15,2.07-4.1,4.34-6.13,6.53a.58.58,0,0,0-.15.37c0,.13.09.25.15.42a45.07,45.07,0,0,1,7.51-5.23,44.34,44.34,0,0,1,8.37-3.86,48.31,48.31,0,0,1,8.74-2.41c3.18-.5,6.33-1.16,9.55-.81,3.45-5.25,7-10.23,11.84-14.25a96.58,96.58,0,0,1,15.34-10.05l0,.38.87-.17,0-.28A1,1,0,0,0,7178.26,7092.81Zm-26.15,132.72a40.67,40.67,0,0,0,3.34-7.44c.67-2,1.08-4,1.68-5.95s.65-4.12,1.16-6.14c.35-1.43.16-3,.4-4.47.44-2.78-.68-5.59-.35-8.43-.69-.47-.35-1.19-.46-1.81s-.27-1.35-.43-2c-.37-1.61-.66-3.26-1.16-4.83-.74-2.34-1.59-4.65-2.5-6.93a36.32,36.32,0,0,0-1.83-3.42,5.53,5.53,0,0,0-.64.79,46.14,46.14,0,0,0-2.23,5.05,28.07,28.07,0,0,0-1.35,3.64c-.41,2.26-1.43,4.4-1.36,6.75-.8.87-.12,2-.49,2.89a7,7,0,0,0-.38,3.16c.14,3.11-.39,6.24.4,9.34a22.54,22.54,0,0,0,.41,2.71,17,17,0,0,1,.44,2.68,68,68,0,0,0,3.42,10.55C7150.65,7222.89,7151.36,7224,7152.11,7225.53Zm2-53.83a4.87,4.87,0,0,1,1.12-.52c1.26-.24,2.51.09,3.83-.35,1.13-.38,2.52-.23,3.77-.54,1-.26,2.05-.39,3-.72,2.2-.75,4.4-1.46,6.56-2.32a54.78,54.78,0,0,0,8.73-4.55,40.16,40.16,0,0,0,4.25-3.06c2.05-1.73,4.05-3.51,5.93-5.42.45-.46.83-1.12,1.29-1.65.7-.81,1.4-1.62,2-2.48,1.05-1.44,2.05-2.93,3.09-4.41-.22-.09-.35-.19-.47-.18a8.6,8.6,0,0,0-3.16.38c-1,.42-2.31-.38-3.34.5-2.28-.11-4.36.8-6.52,1.32a35.84,35.84,0,0,0-6.59,2.26,55.19,55.19,0,0,0-13.15,8.24,58.14,58.14,0,0,0-7.85,8.22,23.45,23.45,0,0,0-2,2.93C7154.27,7170,7153.53,7170.67,7154.14,7171.7Zm45.56,84.88a4.55,4.55,0,0,0-.63.77,68.62,68.62,0,0,0-3.14,8,27.44,27.44,0,0,0-1.25,4.55c-.17,1.19-.82,2.32-.49,3.58-.67.81-.35,1.78-.45,2.69s-.34,1.79-.42,2.69c-.35,3.5.48,6.95.43,10.43a.81.81,0,0,0,0,.22c.94,2.1,1.05,4.41,1.69,6.6a49.62,49.62,0,0,0,4.75,11.49,9.09,9.09,0,0,1,.39-.93A34.68,34.68,0,0,0,7203,7301a39.68,39.68,0,0,0,1.31-4.09c.33-1.42,1.16-2.74.91-4.28.85-.7.09-1.75.48-2.44.55-1,.3-2,.41-2.94a24.1,24.1,0,0,0,.41-3.14,22.86,22.86,0,0,0-.34-5.58c-.39-1.48-.19-3.1-.45-4.68a49.29,49.29,0,0,0-1.41-6.51c-.82-2.6-1.44-5.28-2.85-7.67a1.26,1.26,0,0,1-.22-.57C7201.29,7258,7200.48,7257.37,7199.7,7256.58Zm-47.55-27.64c-.89,1.85-1.69,3.48-2.48,5.12a3.7,3.7,0,0,0-.19.59c-1,3.36-2.47,6.59-2.65,10.17-.85.78,0,2-.51,2.65a4,4,0,0,0-.35,2.72c.09,4.75-.54,9.55.86,14.22-.08,2.86,1.34,5.35,2,8a35.16,35.16,0,0,0,2.45,5.83c.28.63.64,1.21,1,1.86a24.76,24.76,0,0,0,3.43-7.05c.71-2.3,1.35-4.61,1.9-7,.5-2.18.73-4.38,1.14-6.56a28.67,28.67,0,0,0,.06-5.08c0-1.62.37-3.36-.1-4.83s-.25-3.19-.67-4.78a16.79,16.79,0,0,1-1-4.89C7155.52,7236.32,7154.4,7232.52,7152.15,7228.94Zm140.63-84c-1.58.24-2.69-.12-3.82.49-.57.3-1.45,0-2.18.07s-1.35.38-2,.4c-1.07,0-2,.77-3.13.47-2.22,1.25-5,1.1-7.08,2.65a49.53,49.53,0,0,0-16.84,10.62c-3,3-6.05,6-8.28,9.62a4.2,4.2,0,0,0-.8,1.88,16,16,0,0,1,1.95-.41c1.49-.13,3,.25,4.46-.46,2.49.09,4.72-1.23,7.17-1.38,3.91-1.59,7.92-2.9,11.58-5.18a62.2,62.2,0,0,0,7.68-5.35A60.82,60.82,0,0,0,7291,7148,34.31,34.31,0,0,0,7292.78,7145Zm.32,54.89a15.3,15.3,0,0,0-3.7.37c-1.16.42-2.49-.36-3.5.61-2.29-.09-4.4.72-6.52,1.35a54.3,54.3,0,0,0-8.23,3.09c-1.36.67-2.64,1.47-4,2.2a53.34,53.34,0,0,0-8.83,6.46c-2.91,2.52-5.17,5.65-7.63,8.58-.68.82-1.63,1.71-1.61,3.11,1.54,0,3.15.39,4.42-.1s2.76-.16,4.14-.68a44.27,44.27,0,0,1,4.44-1.08,32.65,32.65,0,0,0,6.33-2.31c2.07-1,4.36-1.74,6.13-3.35,4-1.83,7.06-4.89,10.3-7.71a33.7,33.7,0,0,0,2.87-3.21A64.94,64.94,0,0,0,7293.1,7199.84Zm-45.61,80c1-2.23,2.08-4.22,2.89-6.31.74-1.91,1.19-3.93,1.81-5.89a28.33,28.33,0,0,0,1.21-6.32,51.34,51.34,0,0,0,.56-6.44,19.41,19.41,0,0,0-.4-4.48c-.31-1.08.11-2.4-.27-3.43s-.13-2.19-.56-3.3-.52-2.55-1-3.81-.38-2.75-1.35-3.86c.22-1.14-.69-1.93-1-2.93a25.83,25.83,0,0,0-2.31-4.57c-1,2.18-1.95,4.14-2.83,6.12a36.92,36.92,0,0,0-1.83,6.1c-.42,1.62-1.12,3.2-.91,4.93-.84.95-.29,2.09-.44,3.14a17.69,17.69,0,0,0-.42,3.13c.06,2.08-.23,4.15.34,6.25.41,1.48.19,3.11.44,4.68a46.38,46.38,0,0,0,1.23,5.27,70.42,70.42,0,0,0,2.42,7.18A49.66,49.66,0,0,0,7247.49,7279.83Zm-46.33-26.41c3.25.39,6.12-.85,9.11-.8,2.73-1.1,5.69-1.45,8.42-2.63a61.17,61.17,0,0,0,7.76-3.69,52.44,52.44,0,0,0,7.37-5.17,89.61,89.61,0,0,0,6.67-6.28c1.66-2.44,3.77-4.58,5.29-7.68-.84.33-1.26.65-1.68.63a33.35,33.35,0,0,0-7.38.85,33.73,33.73,0,0,0-4.26,1,60.26,60.26,0,0,0-7.09,2.61,51.31,51.31,0,0,0-9.64,5.62,27.12,27.12,0,0,1-2.29,1.9,28.05,28.05,0,0,0-4.58,3.82,40.41,40.41,0,0,0-4.1,4.91C7203.56,7250,7202.45,7251.65,7201.16,7253.42Zm-.41-108a54.38,54.38,0,0,0,26.2,21.91,51.83,51.83,0,0,0,18.39,3.69,52.43,52.43,0,0,0-31.15-23.51A56.63,56.63,0,0,0,7200.75,7145.45Zm48.26,81.69c.09.76,0,1.19.19,1.44a41.32,41.32,0,0,0,3.93,5.21,79.4,79.4,0,0,0,8,7.73,47.14,47.14,0,0,0,10,6.23c1.94.83,3.84,1.78,5.83,2.46a42.56,42.56,0,0,0,11.16,2.42,7.59,7.59,0,0,1,1.22.26,8.38,8.38,0,0,0,3.79,0c-.65-.88-1.4-1.5-1.56-2.24-.22-1-1.28-1.27-1.54-2.25-.21-.75-1.06-1.33-1.63-2s-1.25-1.41-1.9-2.09-1.22-1.29-1.88-1.87a10.43,10.43,0,0,0-2.12-1.82c-.75-.36-1.24-1.23-1.93-1.77s-1.53-.92-2.27-1.43-1.32-1.07-2-1.54a18.25,18.25,0,0,0-2.13-1.25c-.79-.41-1.63-.71-2.41-1.12a12.44,12.44,0,0,0-2.16-1.19c-.87-.23-1.49-1-2.48-1a8.55,8.55,0,0,1-2.29-.83,12.07,12.07,0,0,0-2.52-.85c-.84-.11-1.55-.79-2.46-.5-.62-1-1.75-.09-2.59-.71-.6-.44-1.64-.29-2.48-.38a10.92,10.92,0,0,0-2.78-.17c-.8.12-1.53-.61-2.35-.12Zm-49.48-25.72c-1.43,2.23-2.1,4.52-3.11,6.64a9.18,9.18,0,0,0-.87,2.5c-.34,2.2-1.28,4.24-1.49,6.49-.14,1.42-.7,2.85-.73,4.31-.08,3.61,0,7.22,0,10.83,0,.36-.16.87,0,1.07.5.57.34,1.21.42,1.83s.34,1.35.42,2a25.36,25.36,0,0,0,1.26,5c.62,1.88,1.11,3.81,1.89,5.63a17.83,17.83,0,0,0,2.46,4.51,11.74,11.74,0,0,0,1-1.53c.58-1.3,1.11-2.63,1.64-4a57.3,57.3,0,0,0,2.41-7.63c.26-1.06.06-2.22.48-3.1a7.55,7.55,0,0,0,.35-2.29,10.51,10.51,0,0,0,.42-2.24c-.18-3.55.4-7.11-.34-10.67-.24-1.14-.31-2.38-.56-3.55s-.52-2.43-.79-3.63a50.44,50.44,0,0,0-2.73-8.16C7201.15,7204.2,7200.37,7203,7199.53,7201.42Zm-95-3.18c.24-.44.4-.74.55-1.05a21.46,21.46,0,0,0,1.86-3.87c.87-3.32,2.62-6.41,2.7-9.95,1-.68-.12-2.05.89-2.73,0-1-.06-1.92,0-2.87s.42-2,.4-2.92a51.83,51.83,0,0,0-.31-6.69c-.34-2.22-.45-4.5-1-6.7-.41-1.59-.84-3.19-1.25-4.78-.5-1.93-1.33-3.74-1.9-5.65a24.63,24.63,0,0,0-2.24-4.2c-.86,2.32-2.16,4-2.71,6.07-.61,2.32-1.55,4.53-2.16,6.86-.52,2-.72,4-1.16,5.91a34.56,34.56,0,0,0-.43,5.12,68.67,68.67,0,0,0,.35,8.22c0,.07,0,.16,0,.22.64,1.43.56,3,.89,4.5s.78,2.91,1.21,4.36A49.1,49.1,0,0,0,7104.53,7198.24Zm1.57,55.8c2-.25,3.56.25,5-.54,2.42,0,4.67-.76,7-1.29a53.33,53.33,0,0,0,10.58-3.85,45.32,45.32,0,0,0,7.23-4.48,73.88,73.88,0,0,0,6.45-5.22,15.57,15.57,0,0,0,2.56-2.91c.86-1.3,2.09-2.36,3.07-3.61s1.64-2.38,2.57-3.75c-.49-.06-.76-.11-1-.12a16.6,16.6,0,0,0-3.31,0,11.2,11.2,0,0,1-3.15.39c-.78,1-2.16-.06-3,.89a22.19,22.19,0,0,0-6.92,2,72.22,72.22,0,0,0-8.48,4.15,70,70,0,0,0-9.27,6.92,31.18,31.18,0,0,0-4.15,4.43c-1.45,1.75-2.76,3.57-4,5.44C7107,7252.9,7106.72,7253.26,7106.1,7254Zm95.1-55.64c.26.11.4.22.51.2,1.06-.15,2.15.32,3.21-.28s2.32.37,3.29-.59c2,.25,3.93-.49,5.76-1.06a61.15,61.15,0,0,0,11.34-4.68,57.83,57.83,0,0,0,12-8.9,48.39,48.39,0,0,0,5.31-6.2,14.31,14.31,0,0,0,2.43-4c-2.1.25-4-.09-6,.42-1.53.39-3.14.57-4.71.95a78.46,78.46,0,0,0-9.68,3.34,58.87,58.87,0,0,0-13.75,9,57.72,57.72,0,0,0-7.82,8.7A29.82,29.82,0,0,0,7201.2,7198.4Zm-.29,56.72a10,10,0,0,1,1,1,45.27,45.27,0,0,0,7.37,9.11,48.44,48.44,0,0,0,4.7,4.15,70.57,70.57,0,0,0,5.9,3.88,47.65,47.65,0,0,0,8.7,4.11c2.73.95,5.4,2.16,8.36,2.26.72.82,1.76.06,2.46.46a5.35,5.35,0,0,0,2.5.4l3.73.28a5.7,5.7,0,0,0-.46-1.3c-1-1.53-2.3-2.91-3.34-4.39-1.33-1.91-3.49-3.05-4.47-5.21-1.68-.6-2.55-2.21-4-3.19a70.51,70.51,0,0,0-7.7-4.95,53.45,53.45,0,0,0-8-3.59,37,37,0,0,0-6.2-1.64c-1.79-.26-3.54-.88-5.4-.81-.14,0-.33.06-.43,0C7204.28,7254.8,7202.81,7255.51,7200.91,7255.12Zm-2.69-1.56a36.37,36.37,0,0,0-5.45-7.42c-1.31-1.49-2.8-2.83-4.2-4.24a38,38,0,0,0-5.7-4.4c-1.71-1.17-3.62-2-5.29-3.19s-3.52-1.29-5-2.5c-1.45,0-2.53-1.1-3.88-1.3-1.52-.21-2.86-1.19-4.47-1-1.63-.91-3.49-.84-5.24-1.21a27.16,27.16,0,0,0-5.21-.07,52.83,52.83,0,0,0,19.65,18.57A53.42,53.42,0,0,0,7198.22,7253.56Zm1.12-161.78c-.43.21-.62.23-.67.33a59,59,0,0,0-4.16,11.12c-.37,1.67-.84,3.36-1.13,5a19.44,19.44,0,0,0-.56,5.34,3.26,3.26,0,0,1-.33,2.52,2.39,2.39,0,0,0,0,2.12,2.72,2.72,0,0,1,.35,1.63,28.9,28.9,0,0,0,.94,8c.36,1.53.82,3.06,1.21,4.57.49,1.95,1.33,3.75,1.91,5.65a26,26,0,0,0,2.3,4.38,32,32,0,0,0,3.39-7c.3-1,.66-1.95.87-2.95.49-2.25,1.5-4.39,1.35-6.75.86-.78.14-1.85.47-2.68a6.83,6.83,0,0,0,.41-2.71c0-1.4-.11-2.81,0-4.2.22-2.19-.56-4.29-.47-6.46-.84-1-.27-2.19-.63-3.27s-.44-2.24-.8-3.22-.55-2.28-1-3.35C7201.73,7097.23,7200.54,7094.56,7199.34,7091.78Zm47.42,81.52c-.18.48-.26.67-.33.86-.45,1.14-.87,2.3-1.34,3.42a11.14,11.14,0,0,0-.85,1.64c-.65,2.74-2.22,5.22-2.26,8.13-1,2.06-.65,4.39-1.31,6.53.2,5-.57,10.13.87,15.11.27.93.26,1.94.48,2.9a25.54,25.54,0,0,0,.87,2.95c1.19,3.38,2.16,6.85,4.23,9.87.23-.25.51-.43.62-.68.62-1.36,1.28-2.72,1.76-4.13a20.75,20.75,0,0,0,1.45-4.28c.15-1.25.91-2.42,1.2-3.68s.53-2.56.85-3.84.16-2.66.44-4a25.29,25.29,0,0,0,.07-4.85c0-1.55.39-3.24-.1-4.6-.56-1.53.21-3.18-.79-4.54.16-1.72-1-3.22-.88-4.93-1-1.37-.77-3.18-1.73-4.61-.54-.81-.53-2-.95-2.9C7248.46,7176.32,7247.7,7175.05,7246.76,7173.3Zm-96.47,53.2.1-1c-.33-.77-1.39-1-1.36-1.92-1.45-1.58-2.45-3.5-4.06-5s-2.9-2.93-4.4-4.35a22.66,22.66,0,0,0-3.26-2.8c-4.05-2.58-8.06-5.25-12.62-6.91a10.2,10.2,0,0,0-2.64-1,28.6,28.6,0,0,1-4.24-1.07c-2.33-.51-4.59-1.26-7-1.2-.29,0-.67.12-.87,0-1.21-.88-2.5-.2-4.22-.56,2,2.67,3.61,5.07,5.51,7.18a59.66,59.66,0,0,0,7.6,7.22,17.2,17.2,0,0,0,2.19,1.65c2.6,1.4,5.09,3,7.72,4.33,2.07,1.07,4.38,1.54,6.37,2.77,2.19,0,4.12,1.18,6.3,1.41,2,.21,4,.85,6.05.81.67,0,1.33,0,2,0C7149.7,7226.09,7149.93,7226.31,7150.29,7226.5Zm48,28.77a8.18,8.18,0,0,0-2.67.06,8.77,8.77,0,0,1-2.71.4,18.94,18.94,0,0,0-2.91.45c-1.49.37-3.07.45-4.47.95a52.93,52.93,0,0,0-8.74,3.45c-2.33,1.32-4.75,2.46-7,3.95a68.17,68.17,0,0,0-6.49,5.08,43.6,43.6,0,0,0-4.17,4.41c-1.37,1.56-2.28,3.46-3.84,4.86.06.92-1.54,1.27-.8,2.46a12.84,12.84,0,0,1,1.74-.38,20.69,20.69,0,0,0,4.05-.37,15.86,15.86,0,0,1,2.89-.5,28.41,28.41,0,0,0,3-.85,40.85,40.85,0,0,0,9.09-3.18,53.74,53.74,0,0,0,13.52-9,43.64,43.64,0,0,0,4.15-4.43A82.65,82.65,0,0,0,7198.32,7255.27Zm-93.32-1.91a8.8,8.8,0,0,1,.38-1.56,46.83,46.83,0,0,0,3.62-8.89,39.84,39.84,0,0,0,1.91-10.67c0-4,.51-8-.36-12-.29-1.3-.09-2.75-.54-4-.32-.85-.13-1.7-.45-2.46-1.44-3.53-2.23-7.32-4.34-10.57-.23-.36-.41-.74-.8-1.46a66.36,66.36,0,0,0-2.71,6.19c-1.1,3.47-2.62,6.85-2.69,10.59-1,1.44.08,3.27-.89,4.72.25,3-.26,6.05.35,9.11.41,2,.57,4.17.91,6.26.13.83.46,1.6.55,2.45s.62,1.53.73,2.33a23.69,23.69,0,0,0,1.52,4.46A39.53,39.53,0,0,0,7105,7253.36Zm95.75-109.64a5.11,5.11,0,0,1,1,0c1.54.32,3-.48,4.47-.49a11.86,11.86,0,0,0,3.76-.51c2.34-.78,4.82-1.07,7.09-2.1,1.67-.75,3.43-1.33,5.1-2.09a39.28,39.28,0,0,0,4.55-2.37,53.68,53.68,0,0,0,8.47-6.23c1.56-1.46,3-3,4.55-4.52a5.5,5.5,0,0,0,.92-.95c1.32-2.19,3.07-4.09,4.37-6.3-2.53-.52-5,.21-7.51.32-.69.72-1.65.23-2.43.52-2.5.94-5.13,1.37-7.6,2.51a74.08,74.08,0,0,0-8.5,4,66.23,66.23,0,0,0-7.13,5.19c-.74.61-1.35,1.36-2.05,2s-1.28,1-1.87,1.63-1.25,1.38-1.84,2.1c-.45.55-.83,1.14-1.26,1.69a12.74,12.74,0,0,0-1.46,1.83A32.15,32.15,0,0,1,7200.75,7143.72Zm.8,164.75c1.34-.27,2.37.08,3.56-.44s2.49-.19,3.78-.43a75,75,0,0,0,7.87-1.87,49.24,49.24,0,0,0,14.42-7.43c2.18-1.7,4.4-3.36,6.42-5.24,1-1,1.81-2.25,2.85-3.22,2-1.81,3.14-4.2,4.81-6.22.25-.3.19-.86.31-1.48a6.85,6.85,0,0,1-1.6.56c-1.49.1-3,.13-4.47.38-2.27.38-4.52.83-6.73,1.42a55.82,55.82,0,0,0-8.22,3.12c-1.62.72-3.1,1.76-4.67,2.62a42.46,42.46,0,0,0-7.47,5.46c-1.24,1.1-2.57,2.11-3.7,3.31s-2.23,2.95-3.49,4.28A42.81,42.81,0,0,0,7201.55,7308.47Zm47.32-27.92c2.36-.16,4.36.18,6.35-.45,1.06-.34,2.35-.08,3.31-.55s2.17-.39,3.22-.76a50.14,50.14,0,0,0,6.36-2.29c2.49-1.28,5-2.47,7.46-3.9a49.1,49.1,0,0,0,7.76-5.79,53.79,53.79,0,0,0,7.81-8.7c.68-1,1.65-1.84,1.76-3.3-1.46.11-2.79-.15-4.12.42a9.12,9.12,0,0,1-2.54.29c-.84.1-1.69.15-2.52.33s-1.54.6-2.34.73a38.18,38.18,0,0,0-8.33,2.87,44.48,44.48,0,0,0-4.56,2.33,47.76,47.76,0,0,0-4.58,2.83,40.75,40.75,0,0,0-4.78,3.91A67.55,67.55,0,0,0,7253,7275C7251.63,7276.73,7250.46,7278.57,7248.87,7280.55Zm-97.27-161.44c-.9,1.93-1.72,3.58-2.45,5.26-.4.94-.61,2-1,2.9a49.91,49.91,0,0,0-1.52,5.34,28.77,28.77,0,0,0-1,5.52c-.2,2.28-.48,4.58-.53,6.88,0,1,.33,1.94.4,2.92s0,2.06,0,3.09c0,.15-.06.38,0,.43.68.49.33,1.21.44,1.82s.28,1.36.44,2c.37,1.62.78,3.22,1.13,4.84.53,2.42,1.73,4.6,2.54,6.91a28.38,28.38,0,0,0,1.86,3.52c.54-1.17,1-2.08,1.39-3,.66-1.57,1.34-3.13,1.91-4.73a40.42,40.42,0,0,0,1.87-7.21c.19-1.2.55-2.43.76-3.64s.2-2.53.41-3.8a32.27,32.27,0,0,0,.08-5.3c0-1.8-.76-3.53-.45-5.35-.7-.88-.13-2-.51-2.88a34,34,0,0,1-1.2-4.36c-.45-1.51-.92-3-1.46-4.49C7153.89,7123.55,7152.71,7121.45,7151.6,7119.11Zm97.14,53.44c-.05.22-.14.41-.09.49a72.29,72.29,0,0,0,6.94,8.85,59.26,59.26,0,0,0,6.88,5.89,31.61,31.61,0,0,0,3.41,2.4,64.34,64.34,0,0,0,8.43,4.21c.94.39,1.88.81,2.85,1.11,1.39.41,2.8.73,4.2,1.08a24.37,24.37,0,0,0,6.16,1.15c.37,0,.83-.15,1.09,0,1.37.86,2.81.19,4.46.51a45.34,45.34,0,0,0-5.72-7.6,58.36,58.36,0,0,0-8.34-7.58,49.92,49.92,0,0,0-8.32-5,54.45,54.45,0,0,0-19.56-5.13A18.19,18.19,0,0,1,7248.74,7172.55Zm-51.32-81.95a4.87,4.87,0,0,0-1.45,0,13.75,13.75,0,0,1-4.69.42,1.22,1.22,0,0,0-.43,0,22,22,0,0,1-4.78,1.24,52.67,52.67,0,0,0-9.65,3.45c-1.79.85-3.54,1.79-5.27,2.77a72.77,72.77,0,0,0-6.65,4.74,14.35,14.35,0,0,0-1.57,1.55c-.58.57-1.06,1.42-1.75,1.65-.85.27-.82,1-1.32,1.49a34.89,34.89,0,0,0-5.65,6.93,15.85,15.85,0,0,0-.95,1.87c.56-.25.84-.48,1.11-.47a27.93,27.93,0,0,0,8-.9,60,60,0,0,0,6-1.51,53.35,53.35,0,0,0,7.68-3.36,48,48,0,0,0,6.21-3.74c1.34-1,2.64-2.15,4-3.12a41,41,0,0,0,5.68-5.41,64.22,64.22,0,0,0,4.72-6A8.06,8.06,0,0,0,7197.42,7090.6Zm-47.4,27.89a19.54,19.54,0,0,0-4.43.06c-2,.5-4.1.68-6.12,1.2a51.1,51.1,0,0,0-8.05,2.49,57.31,57.31,0,0,0-14.82,9,63.43,63.43,0,0,0-8.61,9.47c-.75,1-1.31,2.1-2,3.22a2.61,2.61,0,0,0,.69.18,8.82,8.82,0,0,0,3.59-.39c.76-.33,1.73.26,2.52-.31s1.62.07,2.46-.54c.55-.39,1.6-.3,2.42-.46a36.31,36.31,0,0,0,8.14-2.82,57.77,57.77,0,0,0,6.35-3.38,49,49,0,0,0,7.77-5.78c1.23-1.17,2.38-2.41,3.6-3.59A41.94,41.94,0,0,0,7150,7118.49Zm144.48,27.63a32,32,0,0,0-3.36,7.24c-.73,2.29-1.32,4.62-1.91,7s-.49,4.73-1.19,7c.25,3.4-.54,6.84.44,10.21-.27,1.31.46,2.51.44,3.79s.61,2.41.87,3.62a55.19,55.19,0,0,0,4,11.15c.16.35.56.58,1,1,.51-1.27.89-2.34,1.38-3.37a39.73,39.73,0,0,0,2.93-8.52,23.6,23.6,0,0,1,1-3.79c.54-1.31-.27-2.78.78-3.88,0-1.4.06-2.8,0-4.2-.15-2.74.18-5.46-.33-8.23-.35-1.92-.57-3.9-1-5.79-.37-1.44-.7-2.92-1.19-4.35-.69-2-1.56-3.93-2.31-5.9C7295.62,7148.14,7295.08,7147.26,7294.5,7146.12Zm-95.13,51.22c.25-.11.45-.12.49-.21a44.36,44.36,0,0,0,2.6-5.77,36.62,36.62,0,0,0,1.54-5.13,29.09,29.09,0,0,0,.86-4.27c.76-.64.1-1.59.44-2.25a5,5,0,0,0,.4-2.48c0-2.29-.05-4.57,0-6.85a32.22,32.22,0,0,0-.91-8.92c-.4-1.59-.83-3.18-1.25-4.77-.5-1.93-1.3-3.75-1.89-5.64a27,27,0,0,0-2.35-4.4,11.58,11.58,0,0,0-.69,1.08c-.69,1.48-1.45,2.94-2,4.46a42.84,42.84,0,0,0-2,6.26c-.36,1.64-1.09,3.21-.88,4.94-.87.78-.14,1.86-.48,2.68a6.81,6.81,0,0,0-.41,2.7c0,1.92,0,3.83,0,5.75,0,.37-.14.84,0,1.09.61.85.33,1.8.43,2.7s.38,1.79.41,2.69a26.3,26.3,0,0,0,1.19,5.27c.59,2.46,1.6,4.79,2.41,7.17A27.33,27.33,0,0,0,7199.37,7197.34Zm-1.36,3a11,11,0,0,0-1.34,0c-.76.12-1.5.35-2.26.42s-1.62,0-2.43,0c-.07,0-.18,0-.21,0-.78.88-1.88.1-2.67.5a10.37,10.37,0,0,1-2.77.79,35.65,35.65,0,0,0-8.34,2.82c-2.15,1-4.29,2.13-6.36,3.35a48.12,48.12,0,0,0-6.46,4.61,76.6,76.6,0,0,0-6.59,6.53,37.87,37.87,0,0,0-3.13,4c-.63.87-1.11,1.86-1.75,2.94a13.84,13.84,0,0,1,1.54-.31,28.91,28.91,0,0,0,4.7-.38c1.54-.35,3.13-.61,4.7-.94a39.15,39.15,0,0,0,7.83-2.46,57.6,57.6,0,0,0,14.79-9.08,48.17,48.17,0,0,0,8.32-9.13C7196.35,7203,7197.08,7201.79,7198,7200.38Zm-44.12,82.78a77,77,0,0,0,4.75,6.22,61.06,61.06,0,0,0,12.36,10.7,56.9,56.9,0,0,0,10.48,5.15,42.16,42.16,0,0,0,12.37,2.72,1.58,1.58,0,0,1,.63.08c1.36.7,2.73.29,4.25.26a5.59,5.59,0,0,1-.92-.94c-1.46-2.79-3.63-5-5.66-7.38a48.93,48.93,0,0,0-6.94-6.15,45.87,45.87,0,0,0-6.31-4c-5.3-2.88-6.74-3.29-12.35-4.93-2.55-.74-5.14-1.08-7.71-1.64A25.51,25.51,0,0,0,7153.89,7283.16Zm-3.11-2.4c-1.2-1.65-2.3-3.29-3.53-4.82a59.13,59.13,0,0,0-4-4.52,51.42,51.42,0,0,0-4.68-4.17c-1.53-1.18-3.32-2-4.83-3.22s-3.4-1.81-5.06-2.77a48.48,48.48,0,0,0-5.25-2.25c-1.86-.81-3.84-1.07-5.71-1.7a25.31,25.31,0,0,0-5.72-1.08c-1.79-.16-3.61-.95-5.69-.28,1.88,2.36,3.32,4.8,5.3,6.83a22.89,22.89,0,0,0,2.55,2.88,27.23,27.23,0,0,1,2.43,2.09,41.86,41.86,0,0,0,4,3.14c1.59,1.11,3.23,2.13,4.87,3.17a26.78,26.78,0,0,0,4,2.08,28.62,28.62,0,0,0,4.15,1.74c1.65.4,3.22,1.19,4.87,1.54,1.84.39,3.63.94,5.52,1.17s3.71.32,5.57.38c.22,0,.43.24.63.37Zm2.42-162.27c1.83,2.44,3.33,4.74,5.12,6.78a49.87,49.87,0,0,0,9.49,8.58,55.75,55.75,0,0,0,11.2,6.06,56.59,56.59,0,0,0,10.5,3,20.25,20.25,0,0,1,3.34.45c1.66.64,3.24.2,5.08.4a8.2,8.2,0,0,1-1.07-1.17,36.24,36.24,0,0,0-5.38-7,47.87,47.87,0,0,0-7.08-6.32,55.26,55.26,0,0,0-7-4.49,55.9,55.9,0,0,0-11.81-4.61c-2.78-.72-5.6-1.08-8.4-1.58A25.61,25.61,0,0,0,7153.2,7118.49Zm-3.26,53.1c0-.43.1-.88-.07-1.11a51.22,51.22,0,0,0-4.24-5.53,74.56,74.56,0,0,0-8.06-7.73,68.5,68.5,0,0,0-6.79-4.47,41.07,41.07,0,0,0-5.74-2.68,32.33,32.33,0,0,0-6-2.07c-.66-.12-1.29-.46-2-.6-1.84-.37-3.69-.72-5.55-1a11.35,11.35,0,0,1-2.72-.38,4.4,4.4,0,0,0-2.81.09,20.22,20.22,0,0,0,1.74,3c2.07,2.48,4.22,4.91,6.41,7.3.76.83,1.78,1.43,2.6,2.22a22.27,22.27,0,0,0,3.86,3c1.72,1,3.3,2.34,5.09,3.23s3.62,1.87,5.55,2.61,3.62,1.21,5.38,2a23.1,23.1,0,0,0,5.86,1.29,19.91,19.91,0,0,0,5.34.55A7.68,7.68,0,0,1,7149.94,7171.59Zm-44,27.58a18.28,18.28,0,0,0,3.7-.4c1.17-.37,2.48.31,3.51-.6a19.18,19.18,0,0,0,6.52-1.36,53,53,0,0,0,7.84-3,55.43,55.43,0,0,0,8-4.81c2.12-1.55,4.15-3.18,6.13-4.9,3-2.61,5.15-6,7.64-9a7.58,7.58,0,0,0,.79-1.75c-1.55,0-3-.39-4.14.1-1.3.58-2.76-.21-3.88.78-2.35-.06-4.48.94-6.65,1.58a61.83,61.83,0,0,0-7.21,2.87c-.94.41-1.74,1.12-2.66,1.59a42.44,42.44,0,0,0-9,6.44c-1.81,1.63-3.45,3.43-5.18,5.14a19,19,0,0,0-2.54,3.37C7107.94,7196.49,7107,7197.65,7105.93,7199.17Zm141.16-29.09c.81-1.9,1.49-3.46,2.13-5,.72-1.77,1.45-3.53,2.05-5.34.3-.92,0-2.16.54-2.85.7-.91.1-1.92.73-2.84.47-.69-.09-2,.53-2.86-.24-2.4.32-4.74.44-7.12.06-1.14-.59-2.16-.49-3.36s.41-2.46-.4-3.57a18.89,18.89,0,0,0-.9-5.38,32.59,32.59,0,0,0-2.6-7.77,8.81,8.81,0,0,1-1-2.48,9.23,9.23,0,0,0-1.42-2.59,48,48,0,0,0-4.52,11.62,34.89,34.89,0,0,0-1.52,8.67,5,5,0,0,1-.09,1.73c-.79,2-.11,4-.35,6.05.8.87.5,1.95.39,2.9s.53,1.92.5,2.92c-.05,2,.69,3.81,1.21,5.69.44,1.59.9,3.16,1.45,4.71A42.49,42.49,0,0,0,7247.09,7170.08Zm-93.79,3.3a45.75,45.75,0,0,1,3.65,4.68c.66,1.1,1.76,1.73,2.37,2.77a11.54,11.54,0,0,0,2.39,2.76c1.39,1.21,3,2.21,4.3,3.48a34.23,34.23,0,0,0,6.58,4.44,57.43,57.43,0,0,0,9.28,4.3,49.64,49.64,0,0,0,11,2.36c.22,0,.5-.09.65,0,1.36.89,2.79.2,4.44.52a5.72,5.72,0,0,0-.48-1,18.35,18.35,0,0,1-1.84-2.34c-1.31-2.42-3.45-4.14-5.07-6.3-.58-.77-1.59-1.2-2.27-1.92a35.23,35.23,0,0,0-5-4.06,54.58,54.58,0,0,0-6.91-4.16c-1.26-.64-2.6-1.21-3.92-1.76s-2.69-1-4-1.42a44.57,44.57,0,0,0-12.09-2.34C7155.46,7173.34,7154.57,7173.38,7153.3,7173.38Zm139.06-30.07.22-.44a7.07,7.07,0,0,1-.95-1.11,42.76,42.76,0,0,0-6-7.69,35.86,35.86,0,0,0-5.7-4.87,66.23,66.23,0,0,0-8.57-5.48,57.76,57.76,0,0,0-5.43-2.35,50.86,50.86,0,0,0-8.7-2.51,20.25,20.25,0,0,1-3.11-.45c-1.86-.72-3.68-.19-5.95-.35,1.84,2.37,3.27,4.53,4.95,6.49.7.82,1.37,1.67,2.13,2.43s1.58,1.39,2.37,2.08c1.3,1.14,2.56,2.33,3.89,3.42a26.69,26.69,0,0,0,2.92,2c.87.54,1.87.87,2.71,1.44,2.74,1.86,5.84,3,8.85,4.26a35.24,35.24,0,0,0,5.7,1.65c2,.49,4.08,1.2,6.25,1,.21,0,.5-.1.65,0C7289.83,7143.7,7291.13,7143.07,7292.36,7143.31ZM7245.48,7226a13.39,13.39,0,0,0-2.08-3.25,46.58,46.58,0,0,0-5.07-6.28,59.19,59.19,0,0,0-5.69-4.9,51.69,51.69,0,0,0-6.63-4.33,27.45,27.45,0,0,0-5.68-2.79c-2-.62-3.86-1.91-6.07-1.92a28.67,28.67,0,0,0-8.59-1.69c-.36,0-.83.12-1.08-.05-1.08-.76-2.19-.27-3.6-.4,1.74,2.36,3.13,4.55,4.84,6.48,2.09,2.37,4.43,4.53,6.7,6.75a19.12,19.12,0,0,0,2,1.56c.16.12.39.15.55.27,1.69,1.2,3.47,2.26,5.23,3.38a47.48,47.48,0,0,0,7.78,3.65,26.63,26.63,0,0,0,8.8,2.26c.77.87,2,0,2.65.51.94.64,1.83.27,2.73.35S7244.39,7225.46,7245.48,7226Zm-.71-109.71a5.92,5.92,0,0,0-.47-1.44,41.71,41.71,0,0,0-6.39-7.76c-1.5-1.42-2.77-3.14-4.43-4.32-2.14-1.53-4.22-3.16-6.51-4.5a63.31,63.31,0,0,0-6.94-3.58c-2.48-1.08-5.06-2.23-7.89-2.31-.53-.9-1.61-.15-2.35-.82-.46-.41-1.43-.06-2.23-.44s-1.73-.06-2.62-.07a1.77,1.77,0,0,1-.84-.08c-1.09-.66-2.17-.33-3.65-.23,1.84,2.37,3.47,4.48,5.11,6.58.65.84,1.64,1.37,2.07,2.46a2.49,2.49,0,0,0,1.22,1.24c1.12.49,1.73,1.5,2.63,2.21s2.12,1.63,3.19,2.43a50.36,50.36,0,0,0,5.23,3.4,69.13,69.13,0,0,0,7.77,3.68c1.7.53,3.38,1.13,5.09,1.59s3.24.74,4.87,1.06a24.18,24.18,0,0,0,2.92.43c1,.08,2.06,0,3.09,0A4.26,4.26,0,0,1,7244.77,7116.28Zm49.65,135.53.52,0c.9-2,1.94-3.89,2.67-5.92a25.27,25.27,0,0,0,1.94-6.72c.77-.62.09-1.67.5-2.2.65-.86,0-1.8.42-2.49.7-1.26,0-2.63.46-3.8a12.36,12.36,0,0,0,.38-4c0-1.42-.27-2.85-.34-4.24a49.88,49.88,0,0,0-1-7.14c-.3-1.48-.9-2.89-1.19-4.36-.46-2.38-1.81-4.42-2.41-6.76a13.53,13.53,0,0,0-1.56-2.9c-.26.06-.37.05-.39.09a53.9,53.9,0,0,0-4.06,9.82c-.16.53-.14,1.12-.33,1.63a32.46,32.46,0,0,0-1.5,8.21,54.12,54.12,0,0,0,0,6.62,50.19,50.19,0,0,0,.34,6.47c.3,2,.67,4,1.1,6s1.46,4,2.07,6S7294,7249.69,7294.42,7251.81Zm-197.62-87.68-.28-.05c-.2.55-.37,1.11-.61,1.64a62.73,62.73,0,0,0-1.76,6.12,15.12,15.12,0,0,0-.85,3.18c-.13,1.9-1.23,3.63-.92,5.59-1,2.15-.87,4.51-1.25,6.76a68.8,68.8,0,0,0-.51,8.87c-.06,1.76.09,3.54,0,5.3-.23,3.35.49,6.65.46,10,0,.14-.06.34,0,.43.63.75.34,1.64.44,2.47s.31,1.65.43,2.48a13.43,13.43,0,0,0,.53,3.53c.36.81.1,1.6.39,2.27a44.11,44.11,0,0,1,1.69,6.15c.67,2.52,1.62,4.93,2.54,7.9.1-.78.25-1.11.15-1.3-.58-1-.35-2.09-.44-3.14s-.36-2.09-.41-3.14c-.07-1.69,0-3.39,0-5.08,1.11-1.42-.2-3.29.89-4.72-.33-1.25.4-2.36.48-3.57a11.83,11.83,0,0,1,.52-2.87,69.2,69.2,0,0,1,4.48-11.18c.45-.8.93-1.57.78-2.08l-.95-1.68a42.73,42.73,0,0,1-4.42-11.87c-1.74-7.4-1.81-7.85-1.78-12.08,0-1.84,0-3.69,0-5.53,0-1.05-.23-2.14.41-3.15C7097,7165.07,7096.8,7164.55,7096.8,7164.13Zm144.9-38.48c-1.68,1.68-3,2.89-4.17,4.19a34.51,34.51,0,0,1-6.05,5.14,46.74,46.74,0,0,1-5.07,3.24c-2.13,1.06-4.23,2.19-6.47,3.06a51.5,51.5,0,0,1-10.3,3l.54.59a25.23,25.23,0,0,1,3.81.73c6.1,2.16,8.31,2.79,14.57,6.45a52.35,52.35,0,0,1,8.41,6.34c1.47,1.33,2.81,2.81,4.24,4.19.19.19.3.7.75.44-.58-2-1.22-3.95-1.71-5.94a44.51,44.51,0,0,1-1.15-5.92c-.22-2.17-.17-4.37-.19-6.56a34.68,34.68,0,0,1,.08-6.61,36.93,36.93,0,0,1,1.1-5.94C7240.76,7130.16,7241.1,7128.12,7241.7,7125.65Zm-131.65,120.24a63.89,63.89,0,0,1,9.73-8.92,66.42,66.42,0,0,1,10.75-6.07c3.65-1.73,7.62-2.43,11.77-3.71a62.1,62.1,0,0,1-17.66-6.41,60.1,60.1,0,0,1-15.06-12.35,44,44,0,0,0,1.44,5.38c.69,1.7.72,3.51,1.21,5.24a23.48,23.48,0,0,1,.49,5.32c.08,1.84-.05,3.69,0,5.53a28.06,28.06,0,0,1-.47,5.34c-.25,1.8-.49,3.61-.9,5.38A41.52,41.52,0,0,0,7110.05,7245.89Zm78.1-101.42,0-.17c-.88-.19-1.76-.44-2.65-.57a31,31,0,0,1-5.34-1.57,54.4,54.4,0,0,1-7.63-3.47,47.28,47.28,0,0,1-11.21-8.17c-1.32-1.29-2.6-2.62-3.93-3.9-.2-.19-.3-.68-.84-.43a10.31,10.31,0,0,1,.89,2.29c.2,1.52.93,2.89,1.07,4.46.1,1.2.77,2.37.73,3.65s.59,2.47.49,3.8-.34,2.59.38,3.81a1,1,0,0,1,0,.86,3.91,3.91,0,0,0-.41,2.71,33.61,33.61,0,0,1-.92,8.48c-.41,1.88-1,3.72-1.48,5.58-.12.43-.18.87-.32,1.56,3.07-2.74,5.42-5.75,8.51-8a57.79,57.79,0,0,1,6.25-4.14,53.77,53.77,0,0,1,9.3-4.25c2.54-.84,5-2,7.92-2.22Zm54.22,128.41c-.54-1.74-1-3.46-1.45-5.16a33.05,33.05,0,0,1-1.5-8.41c-.11-5.26-.49-10.55.76-15.78.51-2.14,1-4.3,1.6-6.42a9.39,9.39,0,0,0,.19-1.38c-2.81,2.34-4.88,5.12-7.67,7.17-1.92,1.41-3.83,2.79-5.82,4.1-1.4.91-2.89,1.61-4.34,2.38a29.15,29.15,0,0,1-4.65,2.11,65.88,65.88,0,0,1-9.41,2.59l.53.57a50.37,50.37,0,0,1,17.17,6.35C7232.33,7263.75,7236,7266.18,7242.37,7272.88Zm-37.31-9.74-.34.39a4.87,4.87,0,0,1,.53.86c.45,1.31.59,2.72,1,4a28.8,28.8,0,0,1,1.54,8.39c.17,5.33.52,10.7-.73,16-.35,1.48-.73,3-1.07,4.44a12.27,12.27,0,0,0-.75,3.2c8.59-9.91,19.29-15.94,32.18-18.78C7224.46,7278.93,7213.63,7273,7205.06,7263.14Zm51.61-91.39a57,57,0,0,1,32.79,18.69c-.43-2.34-1.33-4.19-1.77-6.16a41.1,41.1,0,0,1-.94-6.23c-.13-2.15-.54-4.27-.55-6.45s.51-4.28.57-6.45a33.14,33.14,0,0,1,.93-6.23c.43-2,1.1-3.88,1.66-5.81A57.46,57.46,0,0,1,7256.67,7171.75Zm-110.25-45.12a56.81,56.81,0,0,1-14.53,11.75,52.64,52.64,0,0,1-17,6.41l.06.47c1.91.44,3.84.74,5.67,1.35s3.56,1.37,5.37,2a12.84,12.84,0,0,1,3.36,1.47,18.23,18.23,0,0,0,2.5,1.48,45.48,45.48,0,0,1,8.74,6.13c.87.74,1.63,1.58,2.59,2.25a5.59,5.59,0,0,1,2.3,2.54c.17.47.71.8,1.08,1.19-.58-2.56-1.23-5-1.76-7.46-.46-2.12-.52-4.3-1.12-6.38.14-5-.49-10.14.87-15.12.24-.88.26-1.81.47-2.69s.53-1.7.75-2.56S7146.22,7127.57,7146.42,7126.63ZM7157,7181a33.89,33.89,0,0,1,1.73,5.81c.38,2.06.77,4.15,1.09,6.23a57.21,57.21,0,0,1,.3,6.25,27.94,27.94,0,0,1-.11,6.6c-.42,2-.56,4.13-1.06,6.16a40,40,0,0,0-1.49,6.26c3.23-4.51,11.52-10.45,14.64-12.23a53.92,53.92,0,0,1,17.27-6.37l-.51-.51a51.1,51.1,0,0,1-17.23-6.39A56.09,56.09,0,0,1,7157,7181Zm5-8.78a57.53,57.53,0,0,1,17.69,6.49,49.82,49.82,0,0,1,15,12.49,3.88,3.88,0,0,0,0-.86,28.39,28.39,0,0,1-1.64-4.6,19.61,19.61,0,0,0-.74-3.47c-.47-1.23.25-2.61-.66-3.7.31-2.11-.5-4.14-.45-6.23,0-1.49.23-3,.36-4.46a50.33,50.33,0,0,1,1-7.35,28.51,28.51,0,0,1,1.67-5.94,2.48,2.48,0,0,0,0-1.05A56.85,56.85,0,0,1,7161.93,7172.25Zm42-73.58a1.88,1.88,0,0,1,.37.53c.1.33.06.71.18,1a38.39,38.39,0,0,1,2.53,12.21c0,.3-.12.69,0,.87.84,1,.32,2.25.4,3.37a10.06,10.06,0,0,1-.05,3.51,8,8,0,0,0-.35,2.93,16.45,16.45,0,0,1-.44,2.92,43.8,43.8,0,0,1-1.22,5.9c-.28,1.24-.82,2.43-1.08,4.1.78-.78,1.47-1.19,1.72-1.79a5.87,5.87,0,0,1,2.27-2.56c1.83-1.16,3.09-2.93,4.88-4.16,2.35-1.6,4.67-3.23,7.15-4.63a74.89,74.89,0,0,1,8.57-3.87,36.93,36.93,0,0,1,5.15-1.42c.35-.08.75,0,1.1,0s.46-.3.71-.4a10.6,10.6,0,0,1,1.18-.3,52.51,52.51,0,0,1-18-6.36A64.17,64.17,0,0,1,7204,7098.67Zm37.8,82.24a61,61,0,0,1-14.49,11.89,57,57,0,0,1-17.15,6.44l.09.6c2.49.19,4.79,1.18,7.19,1.78a39.62,39.62,0,0,1,7.36,3.05,40.39,40.39,0,0,1,7.25,4.44,62.83,62.83,0,0,1,6.76,5.52l3,3A58.58,58.58,0,0,1,7241.75,7180.91ZM7147,7273a57.69,57.69,0,0,1,.11-36.7c-.14,0-.35-.12-.41-.06-1.48,1.57-2.9,3.21-4.43,4.72a30.22,30.22,0,0,1-3.76,3.21c-1.91,1.37-3.85,2.69-5.89,3.88a57.67,57.67,0,0,1-8.7,4.13c-1.86.7-3.8,1.13-5.67,1.79a7.34,7.34,0,0,1-2.48.42c-.12,0-.24.12-.39.2l.09.62a8.36,8.36,0,0,1,2,.14c2.28.73,4.64,1.24,6.85,2.15a39.36,39.36,0,0,1,6,2.64c2.34,1.47,4.86,2.6,7.07,4.35s4.39,3.36,6.43,5.23C7144.91,7270.77,7145.94,7271.92,7147,7273Zm0-92c-3,2.66-5.24,5.4-8,7.55a65,65,0,0,1-6.91,4.68,47.14,47.14,0,0,1-9.1,4.19,44.93,44.93,0,0,1-8.2,2.19l.6.48a59,59,0,0,1,17,6.36,52.89,52.89,0,0,1,14.48,11.92,5.75,5.75,0,0,0-.12-1.49c-1.55-3.23-1.81-6.79-2.55-10.22-.26-1.23-.2-2.52-.38-3.8a27.39,27.39,0,0,1,0-6.83,12.24,12.24,0,0,0,.33-2.7c-.12-1,.4-1.79.46-2.69a30.23,30.23,0,0,1,1.35-6.52C7146.21,7183.27,7146.55,7182.4,7147,7181.05Zm58,63.94a61.8,61.8,0,0,1,9.51-8.46,55.24,55.24,0,0,1,10.54-6,73.72,73.72,0,0,1,11.58-3.82,57.75,57.75,0,0,1-17.08-6.4,53.81,53.81,0,0,1-14.69-11.85c.49,2.36,1.08,4.68,1.7,7,.66,2.46.7,5,1.11,7.51a27.9,27.9,0,0,1,.12,7.63,45.42,45.42,0,0,1-1,7.5C7206.11,7240.35,7205.61,7242.68,7205,7245Z" transform="translate(-7088.78 -7088.72)"/></svg>