<svg id="Layer_1" data-name="Layer 1" xmlns="http://www.w3.org/2000/svg" viewBox="0 0 1920 1080.4"><path d="M218.18.81c-2.35,2.81-4.48,5.78-7.12,8.37C203.58,16.54,196.2,24,188.75,31.42A27.46,27.46,0,0,1,186,33.53c1.06,1.12,1.65,1.79,2.28,2.42l38,38c2.48,2.47,5,4.91,7.42,7.43s4.35,5.34,7,7.43,5,4.74,7.52,7.1,5,4.93,7.44,7.4l7.14,7.14,7.42,7.43,7.43,7.42,7.42,7.43c2.48,2.48,5,4.93,7.42,7.44.9.93,1.59,2.07,2.51,3a28.82,28.82,0,0,0,2.8,2.19L409.05,34c-.51-.62-1-1.35-1.65-2Q393,17.63,378.58,3.21c-.74-.74-1.35-1.6-2-2.4h29.09c.66.8,1.27,1.66,2,2.39q14,14,28,28l2.26,2.27L297.37,174,156.83,33.48c.59-.6,1.43-1.44,2.27-2.27q14-14,28-28c.73-.74,1.34-1.6,2-2.4Z" transform="translate(-0.81 -0.81)"/><path d="M1545.05.81c-.67.8-1.27,1.66-2,2.39q-14,14-28,28l-2.25,2.26,111.67,111.67c2.53-3.18,6-6.22,9.18-9.48,3.39-3.46,6.84-6.86,10.27-10.29l10-10,10.28-10.28,10-10q5.15-5.13,10.28-10.28l10-10q5.15-5.13,10.28-10.28l10-10c3.43-3.42,6.85-6.86,10.28-10.27s6.68-6.63,10.2-10.12c-.63-.75-1.14-1.48-1.77-2.11Q1719,17.62,1704.64,3.2a30.61,30.61,0,0,1-2-2.39h29.09c.76.89,1.46,1.85,2.29,2.68q15.4,15.43,30.93,30.94c-1.66,1.44-3.37,2.8-4.92,4.32s-3,3.34-4.56,5-3.23,3.25-4.85,4.87-3.23,3.24-4.85,4.85l-4.86,4.86-4.85,4.86L1731.19,68l-4.86,4.86c-1.61,1.62-3.23,3.23-4.85,4.85l-4.86,4.86c-1.62,1.62-3.23,3.24-4.85,4.85l-4.86,4.86-4.85,4.86L1697.2,102l-4.86,4.86q-2.41,2.43-4.85,4.85l-4.86,4.86-4.85,4.86-4.86,4.85-4.85,4.86-4.86,4.85-4.86,4.86-4.85,4.85-4.86,4.86-4.85,4.86-4.86,4.85-4.86,4.86c-1.61,1.62-3.23,3.23-4.85,4.85l-4.57,4.57L1483.78,33.68a16.33,16.33,0,0,1,1.34-1.61q14.4-14.44,28.83-28.86c.73-.74,1.34-1.6,2-2.4Z" transform="translate(-0.81 -0.81)"/><path d="M881.62.81c-.67.8-1.28,1.66-2,2.39q-14,14-28,28l-2.26,2.26L961.08,145.13c2.7-1.85,96.37-95.13,111.18-110.85Q1059,21,1045.72,7.72c-1.15-1.16-2.14-2.48-3.26-3.67s-2.18-2.16-3.27-3.24h29.9c.67.8,1.28,1.66,2,2.39q14,14,28,28l2.27,2.27L960.74,174.07,820.35,33.68a15.86,15.86,0,0,1,1.33-1.61Q836.1,17.63,850.51,3.21c.74-.74,1.35-1.6,2-2.4Z" transform="translate(-0.81 -0.81)"/><path d="M1213.74.81c-.67.8-1.28,1.66-2,2.39q-14,14-28,28L1181,33.92c.78.79,1.4,1.44,2,2.07,7.52,7.52,15,15.08,22.59,22.53,1.52,1.49,2.61,3.33,4.44,4.62a40.14,40.14,0,0,1,4.9,4.78l4.85,4.85,4.86,4.85,4.85,4.86,4.85,4.85,4.86,4.85,4.85,4.86,4.85,4.85,4.57,4.57,4.85,4.85,4.86,4.86,4.85,4.85,4.85,4.85,4.86,4.86,4.85,4.85c1.62,1.62,3.24,3.23,4.85,4.85l4.69,4.69q55.57-55.58,111.37-111.37a21.33,21.33,0,0,0-1.42-1.7q-14.4-14.43-28.82-28.85c-.73-.73-1.34-1.59-2-2.39h29.09c.67.8,1.28,1.66,2,2.39q14,14,28,28l2.26,2.27L1292,174.13c-2.29-.92-3.61-3.76-5.69-5.83q-66-66-132-132c-.93-.93-1.93-1.81-2.9-2.72,10.13-10.13,20.14-20.13,30.12-30.14.83-.83,1.54-1.78,2.3-2.68Z" transform="translate(-0.81 -0.81)"/><path d="M550.3.81c-.66.8-1.27,1.66-2,2.39q-14,14-28,28l-2.25,2.26L629.3,144.66,740.17,33.8a21.34,21.34,0,0,0-1.47-1.75Q724.3,17.62,709.89,3.2c-.74-.73-1.34-1.59-2-2.39H737c.67.8,1.27,1.66,2,2.39q14,14,28,28l2.73,2.73c-1.65,1.66-3.14,3.16-4.64,4.65s-2.87,2.84-4.28,4.29-3,3-4.38,4.66c-1.22,1.48-2.94,2.36-4.17,3.83-1.39,1.64-3.05,3-4.53,4.61s-2.78,3.18-4.27,4.68-2.87,2.52-4.25,3.84c-1.56,1.48-3.08,3-4.58,4.56s-2.69,3-4.1,4.36-3,2.75-4.42,4.16-3.05,3-4.57,4.57l-4.29,4.28q-2.28,2.3-4.57,4.57c-1.43,1.43-2.9,2.81-4.27,4.3s-3.33,2.65-4,4.79c-2.2.62-3.24,2.64-4.79,4s-2.9,2.82-4.3,4.27a60.45,60.45,0,0,1-4.16,4.59c-1.49,1.26-2.87,2.67-4.34,4s-3.07,3-4.59,4.55l-4.29,4.28-4.57,4.57-4.57,4.57-4.28,4.29-4.57,4.57L655.61,148q-2.28,2.29-4.57,4.57l-4.57,4.57c-1.43,1.43-2.78,2.94-4.3,4.27s-2.42,3.15-4.17,4.32a31.91,31.91,0,0,0-4.33,4.22l-4.52,4.52L488.72,34.06c.52-.63,1-1.36,1.65-2q14.4-14.43,28.83-28.86c.73-.74,1.34-1.6,2-2.4Z" transform="translate(-0.81 -0.81)"/><path d="M739.39,1081.21c.29-.55.58-1.1,1-1.86-3.3-3.3-6.64-6.58-9.91-9.93-1.62-1.66-3-3.52-4.68-5.16s-3.54-3.15-5.27-4.79-3.43-3.41-5.15-5.13l-5.14-5.14-5.43-5.43-5.14-5.14-5.14-5.14-5.14-5.14-5.14-5.14c-1.72-1.72-3.57-3.31-5.12-5.16a230.57,230.57,0,0,0-21.26-21.82c-4.91-4.51-9.63-9.2-14.4-13.83s-9.54-9.51-14-14L518.05,1079.79c.16.32.45.87.74,1.42H489.7c-.26-.43-.51-.87-1-1.67a30.51,30.51,0,0,1,2.81-3.75q67.07-67.14,134.2-134.21a30.55,30.55,0,0,1,3.36-2.59l140.17,140.18c-.07.2-.42,1.12-.78,2Z" transform="translate(-0.81 -0.81)"/><path d="M1734.14,1081.21l1.19-1.69L1624,968.19c-.3.26-1,.78-1.65,1.4-4.78,4.74-9.5,9.54-14.32,14.24a12.9,12.9,0,0,1-3.57,3c-1.25.57-1.91,2.36-2.94,3.51-1.16,1.31-2.45,2.49-3.69,3.73l-3.43,3.43-3.43,3.42c-1.14,1.15-2.34,2.24-3.41,3.45s-2.73,2.05-3.75,3.59-2.78,2.91-4.21,4.34l-4,4-4.28,4.28-4,4-4.28,4.28-4,4-4.28,4.28-4,4-4,4-4.28,4.28-4,4-4.29,4.28-4,4-4.29,4.29-4,4-4.29,4.29-4,4-1.06,1.07,1,1.85h-29.1c-.32-.79-.65-1.58-1.06-2.57l2.3-2.3q67.52-67.51,135-135c1.07-1.06,1.82-2.82,3.77-2.37l140.21,140.21-1.46,2Z" transform="translate(-0.81 -0.81)"/><path d="M1402.83,1081.21l.71-1.38L1292.19,968.48l-111.12,111.13,1.15,1.6h-29.09l-1.5-2.13,2.27-2.27q67.69-67.69,135.41-135.38c1.07-1.07,1.84-2.76,4.06-2.4l9.25,9.25,30,30c1.33,1.33,3.25,2.47,3.79,4.07.61,1.8,2.34,2,3.19,3.44a9.36,9.36,0,0,0,4.59,4.22c.89.33,1.27,1.86,2.06,2.67,3.1,3.19,6,6.6,9.49,9.35a84,84,0,0,1,7.27,6.69,27.72,27.72,0,0,1,4.7,5.29c.87,1.47,2.84,2.23,4.12,3.51,20.3,20.25,40.58,40.54,61.1,61.07l-1,2.63Z" transform="translate(-0.81 -0.81)"/><path d="M1070.71,1081.21l1.16-1.66L960.81,968.48,849.73,1079.57l1.18,1.64H821.82l-1.62-1.28v-.4c0-.13,0-.31.06-.38L960.4,939a5.15,5.15,0,0,1,.57,0,.64.64,0,0,1,.35.12l140,140-1.51,2.12Z" transform="translate(-0.81 -0.81)"/><path d="M408.08,1081.21c.29-.55.57-1.1.72-1.37L297.44,968.48,186.32,1079.61l1.15,1.6H158.38l-1.19-1.69L297.51,939.2c2.27,1.62,136.05,135.17,140.51,140.37-.28.53-.56,1.09-.85,1.64Z" transform="translate(-0.81 -0.81)"/><path d="M.81,459c1-.86,2-1.65,3-2.58q36.84-36.81,73.81-73.79l-3.86-3.85q-35-35-69.95-69.93c-.92-.92-2-1.72-3-2.58v-29.9c2.26,1.79,4.52,3.55,5.85,6.23a5.52,5.52,0,0,0,1.12,1.15C13.3,289.26,18.6,295,24.42,300.2a107.82,107.82,0,0,1,9.81,9.28,427.08,427.08,0,0,0,30.13,30.64c13.86,12.88,26.79,26.67,40.41,39.79.67.64,1.42,1.2,2.31,1.95-.79.93-1.32,1.66-1.94,2.28Q54,435.26,2.92,486.36a26.82,26.82,0,0,1-2.11,1.72Z" transform="translate(-0.81 -0.81)"/><path d="M1920.81,305.45a15,15,0,0,0-1.54,1.15L1845,380.81a8.81,8.81,0,0,1-1.57.92c.78.94,1.14,1.45,1.58,1.89q37.11,37.13,74.23,74.22a12.59,12.59,0,0,0,1.54,1.15v29.09a12.59,12.59,0,0,1-1.54-1.15L1815.91,383.61a7.74,7.74,0,0,0-1.63-.91c1.06-1.16,1.64-1.84,2.27-2.47q17.55-17.57,35.1-35.12c2.65-2.65,5.51-5.06,8-7.9,2.65-3,5.66-5.75,8.51-8.61l8.28-8.27,8.28-8.28,8.28-8.28q4.27-4.29,8.56-8.56l8.28-8.28c2.76-2.76,5.5-5.54,8.29-8.27.84-.82,1.78-1.53,2.68-2.3Z" transform="translate(-0.81 -0.81)"/><path d="M.81,807.27c1-.85,2-1.65,3-2.57q36.84-36.81,73.81-73.79l-3.86-3.85q-35-35-69.95-69.94c-.92-.92-2-1.72-3-2.57v-29.1c1,.86,2,1.66,3,2.58q51.39,51.36,102.9,102.88l-3.86,3.85-99,99c-.92.92-2,1.72-3,2.57Z" transform="translate(-0.81 -0.81)"/><path d="M1920.81,654.55A19.54,19.54,0,0,0,1919,656c-4.2,4.17-8.32,8.43-12.59,12.53-2.09,2-3.66,4.59-6.5,5.74-1.13,2.85-3.8,4.35-5.73,6.49s-4.17,4.22-6.26,6.31-4.19,4.19-6.28,6.28l-6.29,6.29-6,6-6.29,6.28-6.28,6.29-6.28,6.28-6.45,6.45,3.26,3.26q35.27,35.26,70.54,70.52c.93.93,2,1.73,3,2.58v29.09c-1-.85-2-1.65-3-2.57L1815,730.91l3.85-3.85q49.52-49.51,99-99c.93-.92,2-1.72,3-2.58Z" transform="translate(-0.81 -0.81)"/><path d="M.81,110.71a18.28,18.28,0,0,0,1.82-1.44q37.08-37,74.14-74.13c.27-.26.52-.55.78-.83Q62.12,18.88,46.73,3.48C45.91,2.66,45.2,1.7,44.44.81h29.9c2.76,2.89,5.55,5.77,8.27,8.7.87.93,2.13,1.56,2.35,3.07a1.71,1.71,0,0,0,1.1,1.11c2.17.49,3.26,2.34,4.42,3.82a26,26,0,0,0,3.72,3.63,61.72,61.72,0,0,1,5.44,5.41c1.57,1.75,3.69,3,4.68,5.31.32.75,1.61,1.09,2.7,1.76-.63.78-1.06,1.41-1.59,1.94Q53.9,87.12,2.35,138.65A13.4,13.4,0,0,1,.81,139.8Z" transform="translate(-0.81 -0.81)"/><path d="M1876.36.81c-.66.8-1.27,1.66-2,2.39q-13.81,13.86-27.67,27.68c-.93.93-1.91,1.82-3,2.85.49.61.77,1,1.12,1.38q37.23,37.23,74.46,74.45a12.59,12.59,0,0,0,1.54,1.15V139.8a12.59,12.59,0,0,1-1.54-1.15L1815.72,35.11c-.28-.28-.53-.58-1-1.06.57-.68,1.1-1.4,1.72-2q14.4-14.43,28.8-28.83c.73-.73,1.34-1.59,2-2.39Z" transform="translate(-0.81 -0.81)"/><path d="M1920.81,1002.83c-1,.86-2,1.65-3,2.58q-36.85,36.83-73.7,73.68c.51.71,1,1.42,1.52,2.12h-29.09l-1.79-1.41a7.13,7.13,0,0,1,.8-1.22q52.11-52.14,104.26-104.26a4.45,4.45,0,0,1,1-.58Z" transform="translate(-0.81 -0.81)"/><path d="M76,1081.21l1.5-2.13-2.27-2.27q-35.7-35.7-71.42-71.4c-.92-.93-2-1.72-3-2.58V973.74c1,.85,2,1.65,3,2.58q51.42,51.38,102.8,102.77c-.51.71-1,1.42-1.52,2.12Z" transform="translate(-0.81 -0.81)"/><path d="M769.88,382.69,629.73,522.84c-1.14.32-1.91-.37-2.65-1.2-4-4.48-9-8-12.28-13.1-1.53-.31-2.37-1.57-3.37-2.58q-32.56-32.54-65.17-65.06c-1.33-1.31-2.12-3-3.85-4.09s-3.1-3-4.62-4.48-2.77-3-4.31-4.25-2.6-3.36-4.45-4.63-3.29-3.16-4.9-4.78l-4.57-4.57-4.86-4.85-4.86-4.86L505,399.53c-1.52-1.52-3.05-3-4.57-4.57l-4.86-4.85c-1.61-1.62-3.26-3.21-4.84-4.87-.89-.92-2.28-1.59-1.86-3.09q70.26-70.26,140.24-140.24Zm-29.81-.39L628.79,271,518.11,381.7a.67.67,0,0,0-.13.35,5.31,5.31,0,0,0,0,.58l9.88,9.87,10.28,10.29,10,10,10.28,10.29,10,10q5.15,5.13,10.28,10.28l10,10L599,463.63l10,10c3.43,3.43,6.88,6.84,10.28,10.29,3.21,3.26,6.62,6.33,9.45,9.74Z" transform="translate(-0.81 -0.81)"/><path d="M1623.08,522.82,1483.65,383.39v-1.58L1623.45,242,1764.3,382.86l-140,140ZM1734.9,382.68c-37-37-73.81-73.81-111.12-111.12h-.67C1605.7,288,1514.93,379.21,1512.87,382.22l111.24,111.24,3.58-3.57,3.71-3.72c1.24-1.23,2.43-2.53,3.73-3.69s2.27-3,4.22-3.45c.48-1.77,2.37-2.32,3.21-3.49a49.24,49.24,0,0,1,3.33-3.82c1.15-1.31,2.57-2.4,3.66-3.75s2.74-1.66,3.48-3.33c.63-1.44,2.46-1.91,3.38-3.36a25.29,25.29,0,0,1,3.64-3.76c1.24-1.23,2.29-2.84,3.77-3.61,1.73-.91,2-3.05,3.63-3.72s2-2.47,3.33-3.47,2.46-2.47,3.75-3.65,3.13-1.89,3.71-3.25c.75-1.75,2.4-2.13,3.39-3.37s2.2-2.61,3.37-3.86,2.49-2.46,3.7-3.72,2.49-1.93,3.46-3.32,2.54-2.29,3.62-3.69a39.34,39.34,0,0,1,3.68-3.74,30,30,0,0,1,3.8-3.52c1.36-.92,1.82-2.54,3.35-3.39,1.35-.74,2.2-2.37,3.33-3.55s2.58-2.39,3.67-3.75,2.9-1.77,3.51-3.31,2.56-1.77,3.39-3.36,2.55-2.73,3.89-4.06a23.84,23.84,0,0,1,3.75-3.64c1.46-.92,2.18-2.36,3.33-3.46S1733.92,383.66,1734.9,382.68Z" transform="translate(-0.81 -0.81)"/><path d="M298.59,871.11h-1.44L156.94,730.9,297.1,590.73h1.33q69.87,69.88,139.62,139.62a4.59,4.59,0,0,1-.46,1.69,21.31,21.31,0,0,1-2.25,2.31q-27.85,27.87-55.7,55.73a75.78,75.78,0,0,0-5.43,5.33c-1.71,2.07-3.77,3.84-5.67,5.75l-5.72,5.71-5.71,5.72-5.71,5.71L345.68,824,340,829.73c-1.9,1.9-3.94,3.69-5.67,5.74-1.31,1.55-3.2,2.35-4.36,4.15s-3,3.1-4.49,4.63-2.85,2.85-4.28,4.28-3.05,3.05-4.57,4.57-3.16,2.95-4.54,4.6-3.08,2.53-4.32,4.17a49.11,49.11,0,0,1-4.52,4.61ZM186.44,730.55,297.5,841.62q55.29-55.29,111.05-111l-8.3-8.3-8.86-8.86-8.57-8.57-8.57-8.57-8.85-8.85-8.57-8.57-8.58-8.57-8.57-8.58-8.85-8.85c-2.86-2.86-5.81-5.63-8.55-8.6s-6.12-5.15-8-8.78c-3.54-2-4.86-6.39-8.76-8-1.37-3.89-5.77-5-7.67-8.35Z" transform="translate(-0.81 -0.81)"/><path d="M1623.94,590l140.6,140.6L1624,871.18c-1.11-.85-2.49-1.78-3.71-2.88a23.91,23.91,0,0,1-3.26-3.49c-.91-1.25-2.36-1.79-3.31-3a42.64,42.64,0,0,0-3.4-3.46c-1.14-1.14-2.21-2.37-3.44-3.4-1.65-1.38-2.73-3.26-4.47-4.6a54,54,0,0,1-4.89-4.8l-4.86-4.86-4.57-4.57-4.86-4.85-4.85-4.86-4.86-4.86c-1.62-1.62-3.24-3.23-4.85-4.85l-4.86-4.86-4.57-4.57-4.86-4.86c-1.62-1.62-3.32-3.16-4.83-4.88-1.28-1.46-3.31-2.32-3.74-4.49-1.87-.58-2.9-2.19-4.22-3.44s-2.87-2.85-4.3-4.28l-4-4a46.56,46.56,0,0,0-4.32-4.23c-1.53-1.16-2.11-3-3.86-4.09s-2.91-2.77-4.34-4.2l-4-4c-1.43-1.42-2.82-2.89-4.29-4.27s-2.72-3.26-4.47-4.59a50.4,50.4,0,0,1-4.9-4.8l-4.86-4.86-4.85-4.85-4.86-4.86-4.86-4.86v-1.44ZM1513.18,730.45l111.17,111.17,110.83-110.84-111.59-111.6c0,.27,0,.78-.18,1-3,3.08-5.75,6.56-9.22,9-2.42,1.72-3.88,4.25-6.31,5.89-1.26.85-1.31,3.17-3.43,3.3-.6,1.85-2.12,3-3.45,4.22-2.8,2.6-5.11,5.73-8.46,7.79-1,.62-1.38,2.61-2.37,2.9-1.69.5-2,2.05-3.17,2.9a35.52,35.52,0,0,0-3.54,3.19c-1.64,1.59-3.77,3-4.72,4.91-1.15,2.35-3.71,2.75-5,4.73a22,22,0,0,1-2.86,3.65c-1.09,1.09-2.55,1.81-3.61,2.91-1.91,2-3.53,4.25-5.47,6.19C1545.48,698.18,1529.1,714.53,1513.18,730.45Z" transform="translate(-0.81 -0.81)"/><path d="M1292.09,590.72h1.21l139.43,139.43v1.28L1292.38,871.77,1151.7,731.1Zm-.33,251.3,111.5-111.49c-8.77-8.77-18-17.83-27-27.07s-18.42-17.91-27-27.56c-6-6.85-12.87-13-19.34-19.5-.57-.57-1-1.39-1.73-1.65a3.23,3.23,0,0,1-2.31-2.27,4.48,4.48,0,0,0-2.22-2.26c-2.35-1.15-3.79-3.24-5.63-4.91-1.19-1.09-2.29-2.28-3.43-3.42s-2.53-2.43-3.7-3.73c-1-1.15-1.69-2.81-2.93-3.55-1.51-.91-2-2.48-3.29-3.51-3.78-3.13-6.5-7.43-10.84-10,0-1.63-1.14-1.4-2.06-1.32L1180.68,730.94Z" transform="translate(-0.81 -0.81)"/><path d="M959.58,242.44h2.58c.26.29.83.65.93,1.1.31,1.42,1.35,2.15,2.39,2.93.83.61,1.6,1.31,2.47,1.86,1.62,1,2.22,2.95,3.88,4s3.1,3,4.63,4.49,2.86,2.85,4.28,4.29A24.36,24.36,0,0,1,984,265c.8,1.23,2.43,1.88,3.56,2.93,2.15,2,3.82,4.44,6.2,6.28a63.54,63.54,0,0,1,6.61,6.52,11.5,11.5,0,0,1,2.7,3.32c.44,1,2.08,1.44,3,2.36,2,2.09,3.74,4.41,5.76,6.47,5.47,5.58,10.81,11.3,16.62,16.5,3.86,3.47,8,6.75,11.23,10.72,6,7.25,13.06,13.39,19.52,20.14,2.18,2.27,5.12,3.91,7,6.39,2.4,3.22,6.49,4.77,8.06,8.68,3.63,1.9,5.84,5.36,8.78,8,1.45,1.32,2.58,3,4,4.39s2.7,2.32,4,3.54q2.2,2.08,4.29,4.29c2.15,2.27,4.26,4.6,6.26,6.76L961,522.83a1.5,1.5,0,0,1-.28,0,.6.6,0,0,1-.36-.09L820.2,382.62c1.47-1.73,2.7-3.81,4.48-5.14,2.33-1.73,3.83-4.14,5.9-6,2.29-2.07,4.43-4.26,6.56-6.48s4.17-4.15,6.22-6.26,4.43-3.84,6.26-6.22c1-1.29,2.68-2,3.86-3.21s1.83-2.53,2.92-3.61,3-1.89,3.81-3.24a11.21,11.21,0,0,1,3-3.54c2.51-1.7,4.06-4.28,6.22-6.27s4.23-4.08,6.24-6.24,4.54-3.73,6.29-6.21c.93-1.32,2.66-2,3.85-3.22s1.82-2.52,2.91-3.6,3-1.89,3.82-3.24a11.21,11.21,0,0,1,3-3.54c2.51-1.71,4.05-4.29,6.21-6.27s4.24-4.08,6.24-6.24,4.53-3.73,6.28-6.21c.94-1.32,2.67-2,3.86-3.22S920,282.12,921,281s3-1.89,3.82-3.24a11,11,0,0,1,3-3.54c2.51-1.71,4.06-4.28,6.21-6.27s4.24-4.07,6.24-6.24,4.46-3.79,6.28-6.2,4.63-4,6.51-6.53c.9-1.2,2.49-1.84,3.58-2.93A40.4,40.4,0,0,0,959.58,242.44Zm1,251.3L1071.54,382.8,960.38,271.64c-.65.42-2,.81-2.46,1.68-1.11,2.25-3.08,3.6-4.68,5.32-1.92,2.07-4,4-6,6l-6,6a86.33,86.33,0,0,1-6.32,6.23,79.69,79.69,0,0,0-5.61,5.73c-6.5,6.45-12.94,13-19.45,19.39-1.19,1.18-3,1.88-3.82,3.23a17.49,17.49,0,0,1-2.41,3c-1.28,1.38-2.65,2.68-4,4l-4,4L892,340c-1.33,1.33-2.46,3-4.05,3.89s-2.17,2.73-3.58,3.81a44.24,44.24,0,0,0-4,4L874,357.91c-2.19,2.19-4.3,4.47-6.59,6.54s-3.65,4.61-6.5,5.74c-1.28,2.9-4,4.55-6,6.79-1.78,2-3.73,3.77-5.51,5.55Z" transform="translate(-0.81 -0.81)"/><path d="M769.72,731.29l-139.8,139.8h-1.54L488.14,730.85,628.71,590.28ZM629.37,841.87l111.3-111.3L632.58,622.48a24.59,24.59,0,0,0-2.31-2.26,5.22,5.22,0,0,0-1.74-.51C614.85,632.49,520.12,727.6,518.07,730.57Z" transform="translate(-0.81 -0.81)"/><path d="M1100.9,731.27,961.05,871.11h-.32c-.13,0-.3,0-.37-.06L819.77,730.86c2.82-3.47,5.94-6.18,8.81-9.12s5.9-5.91,8.85-8.87l8.85-8.85,8.86-8.85c3-3,5.85-6,8.87-8.84a113.87,113.87,0,0,1,9-8.4c3.28-2.52,6-5.8,8.93-8.75l8.85-8.86c2.86-2.86,5.94-5.52,8.51-8.62s5.44-6.14,8.35-9,5.84-5.74,9-8.36,6-5.83,8.9-8.79,5.66-5.93,8.38-9a57.91,57.91,0,0,1,8.92-8.48c3.32-2.44,6-5.79,8.93-8.74l8.56-8.56ZM961,842l111.15-111.15C1054.48,712.16,963.41,621.57,961,620.1L850,731Z" transform="translate(-0.81 -0.81)"/><path d="M437.58,382.17,296.92,522.83h.4c-.13,0-.31,0-.38-.05q-70-70-139.79-139.78L297.78,242.37ZM297.83,270.86,186.33,382.35,297.65,493.67a3.77,3.77,0,0,0,.67-.49q55.28-55.24,110.53-110.53c.07-.07,0-.25,0-.38v-.35Z" transform="translate(-0.81 -0.81)"/><path d="M1292.53,242.37q69.84,69.84,139.77,139.77L1292,522.42,1152.25,382.66Zm-.4,250.85,111.1-111.1L1292.29,271.17,1181.18,382.28Z" transform="translate(-0.81 -0.81)"/><path d="M131.65,646.61,42,557v-1.42l89.27-89.26c2,1.7,4.14,3.28,6,5.18,2,2.08,4.6,3.65,5.78,6.46a13.26,13.26,0,0,1,5.53,4.93c2.17,3.26,6.35,4.54,7.76,8.41,3.24,1.51,5.16,4.51,7.63,6.88,4.76,4.56,9.38,9.27,14,14,1.38,1.4,2.51,3,3.89,4.43a44.75,44.75,0,0,0,4.37,3.77c1.82,1.41,2.58,3.67,4.72,4.94s3.69,3.5,5.5,5.31l5.14,5.14c1.71,1.71,3.46,3.39,5.13,5.14q7.41,7.81,14.75,15.65C219.65,559.14,137.87,641.21,131.65,646.61ZM71.72,556.69l60.43,60.43c7-6.25,58.43-58,60-60.28l-60.28-60.27Z" transform="translate(-0.81 -0.81)"/><path d="M132.28,298.85,41.37,207.93c4.1-4.11,8.09-8.53,12.53-12.44a234.41,234.41,0,0,0,20.39-19.84c8.66-9.72,18.17-18.56,27.25-27.85s18.46-18.49,27.67-27.75a17.49,17.49,0,0,0,1.69-2.24l90.41,90.41c.06-.24,0,.45-.26,1a8.25,8.25,0,0,1-1.39,1.45q-43.29,43.28-86.56,86.58A6.93,6.93,0,0,0,132.28,298.85Zm-1-150.94c-9.82,9.82-19.82,19.94-30,29.93s-20.25,19.71-30.21,29.38v1.57c18.21,19.08,58.29,58.73,60.52,60l60.29-60.29C172,188.6,151.82,168.46,131.28,147.91Z" transform="translate(-0.81 -0.81)"/><path d="M1699.75,208.36l90.46-90.46c1.7,1.75,3.56,3.64,5.32,5.69s4.07,3.79,6.08,5.72,4,4,6,6l6,6,6,6,6,6,6,6,6,6,6,6,6,6,6,6,6,6,6,6,6,6,6.15,6.16a15,15,0,0,1-.79,2,6.07,6.07,0,0,1-1.12,1.15q-43.27,43.29-86.55,86.58a5.44,5.44,0,0,0-.75,1.3C1786.85,295.94,1720.06,229.51,1699.75,208.36Zm150.76,0q-30.66-30.65-61.06-61.06l-60.85,60.85,60.75,60.75a.75.75,0,0,0,.34.15c.13,0,.27,0,.12,0Z" transform="translate(-0.81 -0.81)"/><path d="M463.46,815.43a2.61,2.61,0,0,1,1.14.33,8.21,8.21,0,0,1,1.44,1.39l86.27,86.27,1.11,1.11q-45.39,45.4-90.15,90.15l-89.53-89.53Zm61,90-57.38-57.38c-1.09-1.09-2.07-2.28-3.27-3.61h-1.21l.52.54-60.22,60.22,60.9,60.89Z" transform="translate(-0.81 -0.81)"/><path d="M1458,646.34l-89.48-89.48L1458.37,467q44.52,44.5,90.06,90.06c-3.07,3.05-6.23,6.29-9.54,9.36-.39.36-.78.67-1.18,1.09-3.88,4-7.92,8-11.91,11.9-1.67,0-1.14,1.75-2.09,2.51-4,3.23-6.93,7.73-11.44,10.48-2.28,4-6.13,6.58-9.15,9.92-1.27,1.4-2.79,2.56-4.12,3.89-1.5,1.51-2.9,3.11-4.38,4.64s-2.82,2.89-4.29,4.27c-1.14,1.08-2.44,2-3.55,3.1s-2.13,2.5-3.25,3.71-2.28,2.29-3.42,3.43-2.37,2.21-3.4,3.45c-1.3,1.54-3.12,2.46-4.32,4.17a38.44,38.44,0,0,1-4.51,4.61c-1.52,1.52-3.13,3-4.53,4.59-1.14,1.31-2.82,2-3.81,3.46C1459.2,646.14,1458.22,646.23,1458,646.34Zm.22-151q-30.67,30.67-60.84,60.84l60.87,60.87c5.32-3.5,9.45-8.42,14-12.92q18.91-18.78,37.68-37.7c1.65-1.66,3.86-2.9,4.6-5.35,2.65-.54,3-3.32,4.7-4.75Q1488.67,525.85,1458.18,495.35Z" transform="translate(-0.81 -0.81)"/><path d="M1457.35,815.38h1.51l89.42,89.42v.27c0,.13,0,.32,0,.39q-44.65,44.68-89.38,89.4a7.46,7.46,0,0,1-1.86-.52,7.86,7.86,0,0,1-1.44-1.39l-86.53-86.5a2.67,2.67,0,0,0-1-.54,8.34,8.34,0,0,1,0-1.08.7.7,0,0,1,.15-.34Zm61.84,90.07c-.94-.93-1.83-1.76-2.64-2.66s-1.41-1.87-2.23-2.69-1.79-1.33-2.57-2.11q-24.7-24.66-49.37-49.38c-.7-.7-1-1.81-1.76-2.46a13.17,13.17,0,0,0-2.5-1.48l-60.54,60.55,60.62,60.62c1.15.3,1.86-1.29,2.84-2.27C1480.37,944.28,1499.68,925,1519.19,905.45Z" transform="translate(-0.81 -0.81)"/><path d="M1216.16,208.08c-29.8,29.79-59.85,59.85-89.7,89.7l-89.7-89.7,89.7-89.7Zm-150.27-.26,60.8,60.8,60.86-60.87q-30.15-30.15-60.63-60.61c-.07-.08-.24-.06-.37-.07h-.11c-1.06,1.21-1.91,2.32-2.9,3.31-7.59,7.62-15.16,15.27-22.84,22.82-3.3,3.24-6.31,6.78-10.14,9.51-1.86,1.33-2.81,4-4.7,5.18a36.48,36.48,0,0,0-5.84,5.29c-2.32,2.32-5.08,4.28-6.6,7.33-1.82.62-2.31,2.56-3.64,3.68S1067,206.74,1065.89,207.82Z" transform="translate(-0.81 -0.81)"/><path d="M462.67,646.34,373.33,557s0-.18,0-.32,0-.3.06-.37l89.92-89.93,90.1,90.1c-4.68,4.68-9.73,9.25-14.22,14.32-11.49,13-24.25,24.68-36.36,37s-24.34,24.41-36.56,36.57C465.31,645.35,464.66,647.09,462.67,646.34ZM402.43,556.7l60.63,60.62c1.41.65,2.24-.67,2.7-1.58a18.29,18.29,0,0,1,3.8-4.48Q497,583.84,524.31,556.5l-60.84-60.84Z" transform="translate(-0.81 -0.81)"/><path d="M795,118.46l89.88,89.12a13.66,13.66,0,0,1-.74,2A5.78,5.78,0,0,1,883,210.7L796.77,297l-1.12,1.12Q750.34,252.78,705.52,208Zm-.26,28.61-60.49,60.48L795.68,269c1.33-1.33,3-2.88,4.52-4.55s2.62-3.24,4-4.78,3.22-3.25,4.83-4.87,3.05-3,4.57-4.57l4.86-4.85c1.62-1.62,3-3.53,4.91-4.77s2.69-3,4.11-4.39,3.41-2.53,4.67-4.4,3.16-3.29,4.78-4.91l4.56-4.57,4.86-4.85c1.52-1.52,3-3.06,4.57-4.57s3.26-3.15,4.89-4.73C835.43,187.76,815.16,167.48,794.75,147.07Z" transform="translate(-0.81 -0.81)"/><path d="M1367.8,208.7q45.65-45.63,90.38-90.38l90.27,90.27c-1.32,1.61-3,3.1-4.58,4.7s-3.23,3.24-4.85,4.86l-4.85,4.85c-1.52,1.52-3,3.05-4.57,4.57l-4.85,4.85-4.85,4.86-4.86,4.85-4.85,4.85-4.86,4.86-4.56,4.57-4.86,4.85c-1.62,1.62-3.23,3.24-4.85,4.85s-3.21,3.26-4.86,4.85-3.3,3.07-5,4.59-3.35,3-5,4.56-3.06,3-4.58,4.56l-4.85,4.86c-1.62,1.61-3.77,3-4.71,4.92-1.05,2.14-3.11,2.38-4.08,4.41-6.9-6.9-13.29-13.23-19.6-19.63-1.93-2-4.23-3.61-5.46-6.21-.77-1.63-2.67-2.11-3.74-3.6s-2.14-3.08-4.11-3.56c-1.68-3.09-4.49-5.17-6.91-7.57-3.29-3.26-7.1-6-10.14-9.51a281.31,281.31,0,0,0-19.79-20.33c-5.17-4.81-10.28-9.66-15.28-14.65-.92-.91-1.62-2.05-2.53-3A31.64,31.64,0,0,0,1367.8,208.7Zm90.57-61.24-60.91,60.91,5.85,5.85,6.28,6.28,6,6,6.28,6.28c2,2,4,4,6,6a60.26,60.26,0,0,1,5.78,6.46c1.66,2.25,3.93,4,5.93,6l6.28,6.28c2,2,3.76,4.35,6.06,5.91s3.45,4.4,5.78,5.69l61.19-61.2Z" transform="translate(-0.81 -0.81)"/><path d="M704.65,556.36l89.86-89.86,89.93,89.94L794.29,646.6c-1.4.13-2.54-2.12-3.66-3.67a29.63,29.63,0,0,0-3-3.56q-35.25-35.31-70.56-70.57c-1.36-1.36-3-2.47-4.31-3.82s-2.39-2.8-3.64-4.13C707.73,559.37,706.26,558,704.65,556.36Zm90.14-60.26q-21,21-42,42c-1.09,1.08-2.78,1.69-3.58,2.91-2.91,4.4-7.12,7.53-10.67,11.29-1.44,1.51-3.17,2.74-4.13,4.63,12.61,13.53,58.16,58.68,61,60.47,17-16,58.65-58.14,60.1-60.54Z" transform="translate(-0.81 -0.81)"/><path d="M1790.18,646.26l-90-90,89.45-89.45,89.91,89.91C1877.84,559.11,1794.77,642.39,1790.18,646.26Zm-.46-150.16c-14,13-58.86,58.32-60.12,60.49l60.2,60.19,60.3-60.3Z" transform="translate(-0.81 -0.81)"/><path d="M1216,906.68c-.6.53-1.64,1.37-2.58,2.31q-25.29,25.26-50.56,50.55c-1.43,1.42-2.63,3.48-4.35,4.11-1.88.69-2.31,2.44-3.73,3.42-1.94,1.35-4.07,2.95-5,5.48-.3.81-1.26,1.37-1.94,2l-21,20.18a4.09,4.09,0,0,1-.53,0,.65.65,0,0,1-.35-.1l-89.09-89.08,90.1-90.11c.36.37,1,1,1.65,1.65q42.7,42.71,85.39,85.42C1215,903.5,1216.54,904.22,1216,906.68ZM1066.35,905l60.48,60.47c5.47-4.74,58.46-58,60.24-60.57-9.47-10.4-58.18-58.72-60.48-60.14Z" transform="translate(-0.81 -0.81)"/><path d="M1879.89,904.94l-90,90a12.92,12.92,0,0,1-2.15-1.94c-.57-.78-2.3-.31-2-1.92-1.73-1.4-2.89-3.41-5-4.44-.79-.39-1.08-1.69-1.81-2.34-3.35-3-5.92-6.86-9.91-9.19-.68-.4-1.54-1.05-1.66-1.7-.27-1.52-1.48-2.16-2.37-3.07q-10.24-10.32-20.57-20.57c-1.09-1.08-2-2.4-3.62-2.94-.76-.25-1.24-1.31-1.84-2-1.1-1.27-2-3-3.34-3.69-1.53-.74-1.63-2.62-3.51-3.11-1.19-.31-1.85-2.37-2.92-3.47-3.48-3.58-7-7.07-10.55-10.59-5.34-5.33-10.66-10.68-16-16-1-1-2.1-1.82-3.27-2.82a132.1,132.1,0,0,1,9.2-9.66q5.13-5.16,10.29-10.29l10-10c3.34-3.34,6.61-6.73,10-10s7-6,10.19-9.38,7-6.39,9.87-10.1,6.4-6.74,9.56-10.13c3.31-3.54,6.83-6.88,10.26-10.31l10-10a7.46,7.46,0,0,1,1.86.51,8.31,8.31,0,0,1,1.45,1.4l86.27,86.27Zm-151.06,1c5,4.27,9.44,9.57,14.77,14.06,4.75,4,8.54,9.13,13,13.52,10.37,10.28,20.89,20.41,31.35,30.59.64.62,1.33,1.19,2,1.76,11.2-10.22,58.93-58.37,60.33-60.65l-60.34-60.34Z" transform="translate(-0.81 -0.81)"/><path d="M884.85,905.21l-89.53,89.53h-1a68.55,68.55,0,0,0-7.89-8.06c-.86-.77-1.91-1.35-2.73-2.15-3.08-3-6.15-6-9.13-9.14-1.26-1.31-2.13-3-3.49-4.17-2.77-2.36-5-5.25-7.6-7.73-2.84-2.67-5.54-5.5-8.3-8.26l-8-8c-2.19-2.19-4.33-4.43-6.58-6.56-3.46-3.27-7.27-6.23-10.44-9.76-6.61-7.37-13.63-14.32-20.63-21.3-1.46-1.46-3.06-2.77-4.68-4.22a4.46,4.46,0,0,1,2.89-3.19c1.48-.56,1.56-2.89,3.4-3.31,1.17-2.78,4.1-3.8,6-5.9,4.62-5.15,9.14-10.47,14.31-15,6.9-6.11,13.26-12.73,19.76-19.22,2.3-2.3,4.54-4.69,6.62-7.23,1.21-1.47,2.37-3.2,4.41-3.89.54-.18.92-.87,1.34-1.35,1.48-1.68,2.73-3.67,4.51-4.91a9.16,9.16,0,0,0,2.21-2.32,16.63,16.63,0,0,1,4-4,9.66,9.66,0,0,0,2.57-2.53c1.21-1.66,3.06-2.86,4.61-4.28.54-.5,1-1.07,1.52-1.62a38,38,0,0,1,4.35-4.6c.89-.7,2.09-.88,2.18-2.32s2.16-.46,2.49-2.15a2.82,2.82,0,0,1,2.89-2.29Zm-151.41.08c2.74,2.42,5.42,4.56,7.85,7,7.39,7.27,14.76,14.57,22,22,5.11,5.25,10.52,10.19,15.26,15.84,4.4,5.24,9.6,9.81,14.5,14.63a5.38,5.38,0,0,0,1.68.95L855.35,905l-60.61-60.61a3.94,3.94,0,0,0-1.69,1A60.12,60.12,0,0,1,786.2,853l-3.15,3.15-3.42,3.43-3.15,3.14-3.14,3.14c-1.05,1-2,2.15-3.15,3.13s-2.84,1.69-3.54,2.93-2,1.75-2.94,2.73c-1.46,1.58-3,3.06-4.55,4.59s-2.9,2.82-4.28,4.29-2.71,3.23-4.19,4.71-3.17,2.64-4.6,4.11-2.78,3.48-4.33,5C739.18,900,736.45,902.45,733.44,905.29Z" transform="translate(-0.81 -0.81)"/><path d="M42.22,905.31l90-90c-.61,0-.47,0-.34,0s.29,0,.36.09q44.69,44.65,89.57,89.55l-2.26,2.36c-2.33,2.46-4.6,5-7,7.37-2.54,2.54-5.23,4.94-7.81,7.44s-5,5-7.43,7.42L189.85,937l-7.71,7.71-7.43,7.43-7.42,7.42L159.86,967l-7.71,7.71c-2.48,2.48-5,4.92-7.41,7.45a12.6,12.6,0,0,0-2.71,3.3c-.54,1.14-2.26,1.65-3.23,2.66a15.87,15.87,0,0,0-3.3,3.85c-.6,1.2-2.4,1.8-3.7,2.69C129.37,993,45.88,909.68,42.22,905.31Zm149.72-.16-60.67-60.66L70.6,904.61c7.1,8,58.72,59.31,61,60.84Z" transform="translate(-0.81 -0.81)"/><path d="M1216.13,556.34,1126,646.46h.38c-.13,0-.3,0-.38-.06l-89.32-89.31c1.85-2.68,84.14-85.23,89.78-90.09,1.4,1.1,2.91,2.1,4.21,3.33s2.08,2.59,3.25,3.76q39.81,39.87,79.65,79.68Zm-150.38.47c7.66,8.53,58.25,58.78,61,60.56,13.32-12.37,58.67-58.14,60.4-61q-22.11-22.11-44.22-44.25c-1.17-1.17-1.88-3-3.23-3.79-3.74-2.24-5.8-6.18-9.23-8.68-.37-.27-.39-1.1-.75-1.25-1.34-.58-1.61-2.94-3.16-2.39Z" transform="translate(-0.81 -0.81)"/><path d="M463.39,118l89.83,89.85-90.05,90.05c-5.88-5.88-11.75-12.22-18.11-18-14.09-12.85-27.41-26.48-40.66-40.15-7-7.2-13.91-14.44-21-21.53-3.25-3.25-6.81-6.19-10.08-9.13a6.38,6.38,0,0,1,0-.72c0-.12,0-.29.08-.36Q418.41,163,463.39,118Zm-60.56,90.41,60.25,60.26,60.62-60.62-60.26-60.25Z" transform="translate(-0.81 -0.81)"/></svg>