<svg id="Layer_1" data-name="Layer 1" xmlns="http://www.w3.org/2000/svg" viewBox="0 0 472.85 432.74"><defs><style>.cls-1{fill:#0149af;}.cls-2{fill:#e1b792;}.cls-3{fill:#ece3de;}.cls-4{fill:#ffde59;}.cls-5{fill:#020202;}.cls-6{fill:#f6f2ef;}.cls-7{fill:#e9cb63;}.cls-8{fill:#ab7850;}.cls-9{fill:#fcfbf4;}.cls-10{fill:#fbf1b4;}.cls-11{fill:#f2c332;}.cls-12{fill:#dfb692;}.cls-13{fill:#dcc1aa;}.cls-14{fill:#fcf3c4;}.cls-15{fill:#0e0907;}.cls-16{fill:#2f1710;}.cls-17{fill:#381c11;}.cls-18{fill:#9e653e;}</style></defs><path class="cls-1" d="M6965.61,7231.15c.22-10.29,2.67-20.08,6.19-29.72a114.26,114.26,0,0,1,17.61-31.1c3.72-4.76,7.81-9.28,11-14.36a50,50,0,0,0,8-24.87c.47-11.2.81-22.46,3.81-33.35a122.29,122.29,0,0,1,11.57-27.83,108.87,108.87,0,0,1,21.28-27,170.46,170.46,0,0,1,18.23-14,85.64,85.64,0,0,1,14.41-8.15,135.46,135.46,0,0,1,28.73-9.37,146,146,0,0,1,32.23-2.42c5.14.18,10.25,1.25,15.38,1.84,8.91,1,17.35,3.77,25.66,7a116.91,116.91,0,0,1,32.32,18.75c7.15,5.9,14.49,11.42,23.48,14.27l2.59.82.88-2.14c.84,4.48,1.76,8.94,2.47,13.44a4.77,4.77,0,0,1-.79,3,16,16,0,0,1-2.56,2.57c-5.59,5.37-10.81,11-13.47,18.52a40.53,40.53,0,0,0-1.08,4.54l.66.35c6.4-3.87,11.92-9.24,18.86-11.85,1.19,4.4,2,8.55,3.46,12.47,2.17,5.86,5.16,11.31,10.2,15.31l1.07,1.07v0l.54.57a.93.93,0,0,0,.26.39l.47.5c.08.15.11.36.23.46,14.68,12,30.93,14.82,48.52,7.69,5-2,9.38-5.35,13.89-8,3.36,2.41,6.74,5.3,10.53,7.48,11.3,6.49,23.37,7.51,35.89,4.24,1,2.91,2.14,5.8,3.12,8.74,2.73,8.2,5,16.51,5.35,25.21.23,5.71.44,11.41.48,17.12,0,3.19-.52,6.39-.44,9.57.37,15.22,5.55,28.54,16.31,39.43,6.85,6.94,14.08,13.49,19.89,21.43a106.81,106.81,0,0,1,19.27,44,109.14,109.14,0,0,1,1.65,23.47,102.58,102.58,0,0,1-15.25,51,118.09,118.09,0,0,1-18.59,23.54,110.75,110.75,0,0,1-21.43,16.22c-3.27,1.88-6.45,3.89-9.68,5.84l-29.13,0-94.42,0c-.15-2.07-.26-4.14-.45-6.21-.91-9.56-1.81-19.12-2.77-28.68s-2-19.11-3-28.66c-.82-7.91-1.67-15.83-2.47-23.75-.31-3.11-.52-6.23-.78-9.35a3,3,0,0,1,1.84,1.08c6.9,8.07,15.76,11.85,26.25,11,15-1.18,27.83-8.18,39.46-17.15,8.28-6.39,15.81-13.75,23.74-20.6,1.28-1.1,1.14-2,.25-3.05-1.33-1.6-2.68-3.18-4-4.77l-.39-.47-.14-.61c3-1.67,6-3.44,9.1-5,5.8-2.91,11.88-5.33,17.44-8.63,4.69-2.79,8.89-6.46,13.17-9.9,1.45-1.17,1.74-2.8,0-3.74,1.8-1.94,3.64-3.66,5.18-5.62,2.31-2.95,2.18-3.71-.06-6,.62-2,2-4,1.55-5.46-.76-2.67-3.55-.8-5.36-1.15-.58-4.21-1.71-4.81-5.65-3.12a16.14,16.14,0,0,0-1.87.91c-3.8,2.25-7.5,4.66-11.39,6.74-5.18,2.76-10.45,5.38-15.8,7.79a4.9,4.9,0,0,1-4.21-.31c-.75-.59-.83-2.72-.46-3.93,1-3.38,2.61-6.59,3.66-10a13.26,13.26,0,0,0,.4-5.36,4.43,4.43,0,0,0-2-2.75c-.36-.24-1.79.7-2.4,1.4a16.78,16.78,0,0,0-2.73,4.07c-4.31,9.78-10.24,18.87-12.62,29.5-.2.89-1.33,1.58-2,2.36l-.45-.26-.58-.34a12.51,12.51,0,0,0-1.94.61c-8.82,4.43-17.63,8.9-26.46,13.33-1.44.72-3,1.26-4.56,1.93-.32-.93-.55-1.58-.77-2.23-3.33-10-6.15-20.24-10.11-30-6.88-16.94-16.26-32.34-30.57-44.23l-5.6-4.61h.17c0-.32,0-.64.05-1v-22.35l-.17-3.23-.09-2.54c1.22-.54,1.2-1.05,0-1.54-.08-1-.18-2.07-.23-3.1-.91-16.63-2.6-33.15-6.75-49.33-3.52-13.76-8.42-26.93-17.68-38-4.31-5.16-9.28-9.55-15.53-12.29l-5.78-2.39a7.7,7.7,0,0,0-1.18-.52c-18.29-5-43.28-1.69-58.49,19.21-14.55,20-18.57,43.29-20.55,67.16l-.57,7.85c-.14,1.46-.39,2.92-.39,4.38,0,13.26.11,26.51.17,39.77a24.08,24.08,0,0,1-2.39,2.35,75.43,75.43,0,0,0-18,20c-10.19,15.88-16.35,33.31-19.5,51.86-.17,1.06-.54,2.08-.88,3.34-1.05-.4-1.78-.63-2.47-.95-9.18-4.25-18.37-8.48-27.53-12.79-1.52-.72-2.77-.94-3.88.55-2-.19-2.21-1.87-2.68-3.33-1.23-3.87-2.15-7.86-3.77-11.55-2.73-6.24-5.87-12.31-8.93-18.4A14.18,14.18,0,0,0,7006,7222c-1.67-1.66-3.16-1.46-3.63.75a15.41,15.41,0,0,0,.15,7c1,3.64,2.71,7.07,3.86,10.67a3.64,3.64,0,0,1-.94,2.83c-1.34,1.55-3.1.81-4.54.11-5.28-2.56-10.54-5.19-15.72-8-4.49-2.4-8.76-5.21-13.31-7.47-3.9-1.93-5.41-.71-5,3.59Z" transform="translate(-6960.96 -6975.1)"/><path class="cls-1" d="M6997.91,7407.8c-1.32-5.61-2.71-11.2-3.9-16.83a32.1,32.1,0,0,1-.6-6.42c0-6.36-.17-12.73.21-19.07.7-11.41,5-22.42,3.84-34.08a64.81,64.81,0,0,0-5-18.61c-3.15-7.62-8.62-13.7-12.69-20.69a100.06,100.06,0,0,1-12-30.93c-.94-4.71-1.44-9.51-2.14-14.27l3.63,2.68c-2.87,1-3.07,1.63-1.25,3.61a50.21,50.21,0,0,0,14.51,10.73c7.7,3.89,15.46,7.69,23.15,11.61.69.36,1.07,1.33,1.59,2l-5.18,5.73c5.28,4.79,10.34,9.52,15.55,14.07a132.73,132.73,0,0,0,12.65,10.37c10.26,6.91,21.44,11.69,33.91,12.91,7.71.75,15.29.33,22.09-3.9,2.43-1.51,4.5-3.59,7-5.59,0,.95.06,1.63,0,2.3-.77,7.84-1.53,15.69-2.33,23.53-.93,9.13-1.92,18.25-2.83,27.39-.86,8.7-1.65,17.41-2.47,26.11q-.82,8.67-1.64,17.32Z" transform="translate(-6960.96 -6975.1)"/><path class="cls-2" d="M7007.28,7277.54c-.52-.68-.9-1.65-1.59-2-7.69-3.92-15.45-7.72-23.15-11.61a50.21,50.21,0,0,1-14.51-10.73c-1.82-2-1.62-2.65,1.25-3.61l-3.63-2.68c-1-1.15-2.16-2.25-3.13-3.45-2.13-2.63-2-3.63,0-5.37-.43-2.29-.81-4.29-1.18-6.29l4.29-.64,1.26.36c-.43-4.3,1.08-5.52,5-3.59,4.55,2.26,8.82,5.07,13.31,7.47,5.18,2.77,10.44,5.4,15.72,8,1.44.7,3.2,1.44,4.54-.11a3.64,3.64,0,0,0,.94-2.83c-1.15-3.6-2.87-7-3.86-10.67a15.41,15.41,0,0,1-.15-7c.47-2.21,2-2.41,3.63-.75a14.18,14.18,0,0,1,2.68,3.78c3.06,6.09,6.2,12.16,8.93,18.4,1.62,3.69,2.54,7.68,3.77,11.55.47,1.46.64,3.14,2.68,3.33-.75.78-1.52,1.55-2.25,2.36Zm-12.08-27.29.58-.83-27-16.71-.49.8Zm-8.72,10.84.5-.81-15.62-9.77-.52.83Zm2.61-5.7.52-.81-15.19-9.82-.53.84Zm-16.1-10.53.55-.78-7.45-5-.55.77Z" transform="translate(-6960.96 -6975.1)"/><path class="cls-1" d="M7258.58,7109.87a.93.93,0,0,1-.26-.39l-.54-.57v0l-1.07-1.07c-5-4-8-9.45-10.2-15.31-1.46-3.92-2.27-8.07-3.46-12.47-6.94,2.61-12.46,8-18.86,11.85l-.66-.35a40.53,40.53,0,0,1,1.08-4.54c2.66-7.49,7.88-13.15,13.47-18.52a16,16,0,0,0,2.56-2.57,4.77,4.77,0,0,0,.79-3c-.71-4.5-1.63-9-2.47-13.44q.15-4.58.32-9.15c.09-.24.19-.48.29-.72a45.4,45.4,0,0,1,11.24-23.05c8-8.71,17.87-13.88,29.72-15,3.1-.29,6.73.69,9.21-.63s3.65-4.8,5.47-7.28a46,46,0,0,1,60.89-11.92,44.4,44.4,0,0,1,14.25,13.39,3.71,3.71,0,0,0,4.38,1.73c27.33-5.63,53.57,14.84,55,42.8a50.66,50.66,0,0,1-2.36,17.93,5.9,5.9,0,0,0,0,3.48c8.33,23.17-4.82,48.64-28.45,54.8a40.46,40.46,0,0,1-16.51.87,6.24,6.24,0,0,0-3.21.58c-2.14.92-4.2,2-6.28,3.08l-.6.33-4.21,1.48c-12.52,3.27-24.59,2.25-35.89-4.24-3.79-2.18-7.17-5.07-10.53-7.48-4.51,2.64-8.93,6-13.89,8-17.59,7.13-33.84,4.28-48.52-7.69-.12-.1-.15-.31-.23-.46Zm-.11-2.66v0l1,.64.48.5.61.52a8.66,8.66,0,0,1,1.1.66,43.61,43.61,0,0,0,51.6,3.28c2.95-1.89,5.62-4.23,8.29-6.27,3,2.52,5.77,5.38,9,7.43,15.34,9.65,31,10.29,47,1.38a8,8,0,0,1,4.62-1c12.36,1.65,23.26-1.56,32.45-9.9a38.74,38.74,0,0,0,10.11-42.83,6.92,6.92,0,0,1,.07-4.22c2-6.27,3.07-12.59,2.37-19.19a42.61,42.61,0,0,0-16.55-30.13c-10.84-8.48-23.21-11.42-36.71-8.35-2.73.62-3.84-.27-5.19-2.29-7.9-11.72-19-18.68-33-19.53-19.22-1.17-33.62,7.25-42.72,24.31-.93,1.73-1.94,1.89-3.65,1.94-4.83.13-9.79-.09-14.43,1A43.66,43.66,0,0,0,7244,7062.2c.93,2.56.41,4-1.43,5.8-4.06,4-7.88,8.26-11.67,12.51a24.83,24.83,0,0,0-2.43,4.05l.53.4,16.61-9.6c.3,2.07.38,3.36.69,4.59,1.22,4.84,2.05,9.85,3.91,14.44,1.56,3.87,4.35,7.23,6.6,10.81l.6.51.56.81Z" transform="translate(-6960.96 -6975.1)"/><path class="cls-3" d="M7372.32,7120.77l.6-.33Z" transform="translate(-6960.96 -6975.1)"/><path class="cls-3" d="M7239.57,7039.62c-.1.24-.2.48-.29.72Z" transform="translate(-6960.96 -6975.1)"/><path class="cls-4" d="M7007.28,7277.54l14.51-16.15c.73-.81,1.5-1.58,2.25-2.36,1.11-1.49,2.36-1.27,3.88-.55,9.16,4.31,18.35,8.54,27.53,12.79.69.32,1.42.55,2.47.95.34-1.26.71-2.28.88-3.34,3.15-18.55,9.31-36,19.5-51.86a75.43,75.43,0,0,1,18-20,24.08,24.08,0,0,0,2.39-2.35,23.34,23.34,0,0,0,2.71-1.31,64.24,64.24,0,0,1,33.41-10c1.31,2.73,2.47,5.54,4,8.17,2,3.58,3.8,7.53,6.6,10.43,10.51,10.88,29.53,8.78,37.15-4,2.88-4.81,5.17-10,7.72-15,12.43.06,24.21,2.49,34.76,9.47.19.12.49.06.74.09l5.6,4.61c14.31,11.89,23.69,27.29,30.57,44.23,4,9.76,6.78,20,10.11,30,.22.65.45,1.3.77,2.23,1.59-.67,3.12-1.21,4.56-1.93,8.83-4.43,17.64-8.9,26.46-13.33a12.51,12.51,0,0,1,1.94-.61l.58.34.45.26c4.08,4.82,8.13,9.65,12.25,14.43,1.15,1.34,2.5,2.5,3.75,3.73.05.2.09.41.14.6l.39.48c1.33,1.59,2.68,3.17,4,4.77.89,1.08,1,1.95-.25,3.05-7.93,6.85-15.46,14.21-23.74,20.6-11.63,9-24.42,16-39.46,17.15-10.49.82-19.35-3-26.25-11a3,3,0,0,0-1.84-1.08c.26,3.12.47,6.24.78,9.35.8,7.92,1.65,15.84,2.47,23.75,1,9.55,2,19.1,3,28.66s1.86,19.12,2.77,28.68c.19,2.07.3,4.14.45,6.21l-119.64,0q-20.81,0-41.61-.05.81-8.65,1.64-17.32c.82-8.7,1.61-17.41,2.47-26.11.91-9.14,1.9-18.26,2.83-27.39.8-7.84,1.56-15.69,2.33-23.53.07-.67,0-1.35,0-2.3-2.47,2-4.54,4.08-7,5.59-6.8,4.23-14.38,4.65-22.09,3.9-12.47-1.22-23.65-6-33.91-12.91a132.73,132.73,0,0,1-12.65-10.37c-5.21-4.55-10.27-9.28-15.55-14.07Zm93.83.12,0,0c-2.3,1.21-.64,3.25-1,4.86,0,.62-.11,1.25-.16,1.87l-.4,1.12-.13,1-.4,1.57h0c-1.47,1-1.67,2-.59,3.09l-.3,1.64c-.42.49-1.12.95-1.18,1.48a27.21,27.21,0,0,0,0,3.83.32.32,0,0,1,0,.35c-.38.54-1,1.05-1.08,1.64a23.88,23.88,0,0,0,0,3.59h0c-1.9.91-1.18,2.27-.61,3.6,2.11,1.22,1.85-.76,2-1.66q3.24-15.45,6.34-30.92c.46-2.27.67-4.59,1-6.88-.08-1.43-.15-2.85-.23-4.28-.18-3.91-4.14-1.64-6.18-3.65l-2.54,2.91c2.11,1.71,2.5,2.93-.51,3.81-.83.24-1.31,1.67-1.94,2.56a7.43,7.43,0,0,1-1.11,1.56c-2.32,1.88-4.7,3.68-7,5.53-.25.2-.26.7-.51.89-1.57,1.15-2.18,3.77-5,3-2.2-.61-3.28.56-2.12,2.54,1.05,1.79,3,3.05,4.58,4.54l.75-.51-1-4,4,1.18c-.35-1.25-.61-2.22-.92-3.33,4.18.42,3.95.19,6.52-2.5a13.71,13.71,0,0,1,6-3.44c3.06-.86,3.53-1.31,2.42-4.35a6.15,6.15,0,0,1,.18-2.34,20.06,20.06,0,0,1,1.76,1.26,7.9,7.9,0,0,1,.94,1.2l-.18,1.56-.37,1.13a.59.59,0,0,1-.06.41l-.46,1.66-.09.95Zm-28.49,18.22c2.74-.07,4.08-1.62,5-3.71,1.11-2.45-1.15-3.66-2.06-5.3-.77-1.37-1.94-1.4-3.71-.89-2.94.85-4.16,2.16-3.68,5.16.08.49-.61,1.07-.62,1.61s.18,1.69.58,1.85A37,37,0,0,0,7072.62,7295.88Zm60.62,60.24c2.58-.08,5.58-2.37,5.05-4.41s-2.41-3.91-3.75-5.8a1.11,1.11,0,0,0-1,0c-1.94,1.36-5.69.93-5,5a1,1,0,0,1-.29.7c-1.44,1.81-.4,2.92,1.19,3.6A22,22,0,0,0,7133.24,7356.12Zm83.83-83.88c2.62-.31,5.47-2,5.11-4.05s-2-4.09-3.32-6c-.21-.31-1.64,0-2.35.32-2.1,1-5,1.52-3.73,5.07,0,.09-.29.3-.26.41.17.89.1,2.16.64,2.55A18,18,0,0,0,7217.07,7272.24Zm17.5,35.53.89-.16q-2.88-20.08-5.77-40.19C7227.86,7269.47,7232.93,7306.05,7234.57,7307.77Z" transform="translate(-6960.96 -6975.1)"/><path class="cls-5" d="M7225.74,7192.64c-.25,0-.55,0-.74-.09-10.55-7-22.33-9.41-34.76-9.47l-2.2-.27-.64-2.26,3.13-1-.22-.71-3-.35c-.2-1-.37-1.84-.55-2.71l-.59-.13-1.21,3-3.13-2.63-.6.54c.47.69.89,1.42,1.41,2.08,1.09,1.39,2.23,2.74,3.36,4.11h-5.2c-.05-6.16-.13-12.32-.1-18.47a3.07,3.07,0,0,1,1-1.93c8.26-7.84,13.44-17.54,17.19-28.13a7.05,7.05,0,0,1,2.36-3.14c5.59-4.11,8.61-13.58,6.2-19.87-1.36-3.52-4.29-5.65-7.19-4.25-3.14,1.52-5.54.46-8.29-.5-1.68-.59-2.52-1.33-2.54-3.25a65.86,65.86,0,0,0-.7-6.83l-.55.06q-.52,4.13-1.06,8.23c-.52.32-1,.9-1.56.91-12,0-24-.06-36-.1l-1.74-14.94-.44-.05-1.95,15h-5.15V7098a7.8,7.8,0,0,0-.71,3.26c-.31,4.32-.31,4.32-4.39,5.54-1.75.52-3.47,1.13-5.24,1.52a3.88,3.88,0,0,1-2.38-.25c-4.95-2.42-9-.8-9.91,4.61-.53,3.06.1,6.33.2,9.5-.72,1.33-1.17,3.45-2.22,3.81-2.4.82-3.17,2.35-3.3,4.57a5.4,5.4,0,0,1-1.13.2,2.28,2.28,0,0,0-2.72,2.62c.11,1.06,1.12,2.72,1.93,2.85,1.17.19,2.56-.7,3.76-1.3a10.17,10.17,0,0,0-.6-2.07h0c.09-.23.23-.68.25-.68,3,.83,4.48-.93,5.26-3.13l3.54,1.12c1.9,1.48,4.11,2.34,5,5.13a65.05,65.05,0,0,0,16.13,26.63,4.19,4.19,0,0,1,1,2.73c.09,6.06.06,12.13.06,18.2l-5.76.19-1.07.1-3.14.31a64.24,64.24,0,0,0-33.41,10,23.34,23.34,0,0,1-2.71,1.31c-.06-13.26-.14-26.51-.17-39.77,0-1.46.25-2.92.39-4.38,2.87-2.32,3.08-5.27.57-7.85,2-23.87,6-47.18,20.55-67.16,15.21-20.9,40.2-24.24,58.49-19.21a7.7,7.7,0,0,1,1.18.52c-.42.45-.79,1.18-1.28,1.28a17.48,17.48,0,0,1-3.25.06c-.69,2.1,2.27,4.73-1.18,6.22,4.49,3.18,8.53,3.83,10,1.14,1-1.81,1-4.19,1.47-6.31,6.25,2.74,11.22,7.13,15.53,12.29,9.26,11.1,14.16,24.27,17.68,38,4.15,16.18,5.84,32.7,6.75,49.33.05,1,.15,2.06.23,3.1l0,1.54.09,2.54c.06,1.07.12,2.15.17,3.23v22.35l-.05,1Zm-119.61-49.83.72-.61-3.07-5h-1.07l.2-2.08c-1.86.17-2.9,1.67-1.95,2.7C7102.59,7139.58,7104.4,7141.16,7106.13,7142.81Zm2.48-3,.7-.58c-.71-1.71-1.42-3.41-2.38-5.74-.58,1.09-1.72,2.36-1.45,2.89C7106.18,7137.73,7107.53,7138.72,7108.61,7139.84Z" transform="translate(-6960.96 -6975.1)"/><path class="cls-2" d="M7322.78,7276.6c-1.25-1.23-2.6-2.39-3.75-3.73-4.12-4.78-8.17-9.61-12.25-14.43.7-.78,1.83-1.47,2-2.36,2.38-10.63,8.31-19.72,12.62-29.5a16.78,16.78,0,0,1,2.73-4.07c.61-.7,2-1.64,2.4-1.4a4.43,4.43,0,0,1,2,2.75,13.26,13.26,0,0,1-.4,5.36c-1.05,3.37-2.63,6.58-3.66,10-.37,1.21-.29,3.34.46,3.93a4.9,4.9,0,0,0,4.21.31c5.35-2.41,10.62-5,15.8-7.79,3.89-2.08,7.59-4.49,11.39-6.74a16.14,16.14,0,0,1,1.87-.91c3.94-1.69,5.07-1.09,5.65,3.12,1.81.35,4.6-1.52,5.36,1.15.42,1.5-.93,3.5-1.55,5.46,2.24,2.3,2.37,3.06.06,6-1.54,2-3.38,3.68-5.18,5.62,1.7.94,1.41,2.57,0,3.74-4.28,3.44-8.48,7.11-13.17,9.9-5.56,3.3-11.64,5.72-17.44,8.63C7328.79,7273.16,7325.81,7274.93,7322.78,7276.6Zm37.17-33.83,2.15-1.51,2.94-1.5-.55-.78-2.55,2.12-2.07,1.57-1.63,1a30.74,30.74,0,0,0-3,1.5c-4.44,2.85-8.86,5.76-13.28,8.66-.43.28-.81.65-1.49,1.21.68.06,1,.19,1.15.09q8.41-5.62,16.78-11.28Zm2.11-9.24-.59-.78-27,16.89c.17.27.34.55.52.82Zm-18.73,26.82.5.81,16.06-10-.49-.82Z" transform="translate(-6960.96 -6975.1)"/><path class="cls-5" d="M7185.48,7059.26c-.46,2.12-.46,4.5-1.47,6.31-1.49,2.69-5.53,2-10-1.14,3.45-1.49.49-4.12,1.18-6.22a17.48,17.48,0,0,0,3.25-.06c.49-.1.86-.83,1.28-1.28Z" transform="translate(-6960.96 -6975.1)"/><path class="cls-5" d="M7099.48,7142.72c2.51,2.58,2.3,5.53-.57,7.85Z" transform="translate(-6960.96 -6975.1)"/><path class="cls-1" d="M7225.7,7163.55l0-1.54C7226.9,7162.5,7226.92,7163,7225.7,7163.55Z" transform="translate(-6960.96 -6975.1)"/><path class="cls-6" d="M7226,7169.32c-.05-1.08-.11-2.16-.17-3.23C7225.85,7167.16,7225.91,7168.24,7226,7169.32Z" transform="translate(-6960.96 -6975.1)"/><path class="cls-7" d="M7256.71,7107.87l1.07,1.07Z" transform="translate(-6960.96 -6975.1)"/><path class="cls-6" d="M7225.91,7192.63l.05-1Z" transform="translate(-6960.96 -6975.1)"/><path class="cls-7" d="M7258.58,7109.87l.47.5Z" transform="translate(-6960.96 -6975.1)"/><path class="cls-2" d="M7306.33,7258.18l-.58-.34Z" transform="translate(-6960.96 -6975.1)"/><path class="cls-2" d="M7323.31,7277.68l-.39-.48Z" transform="translate(-6960.96 -6975.1)"/><path class="cls-7" d="M7257.78,7108.91l.54.57Z" transform="translate(-6960.96 -6975.1)"/><path class="cls-8" d="M6995.2,7250.25l-26.87-16.74.49-.8,27,16.71Z" transform="translate(-6960.96 -6975.1)"/><path class="cls-8" d="M6986.48,7261.09l-15.64-9.75.52-.83,15.62,9.77Z" transform="translate(-6960.96 -6975.1)"/><path class="cls-8" d="M6989.09,7255.39l-15.2-9.79.53-.84,15.19,9.82Z" transform="translate(-6960.96 -6975.1)"/><path class="cls-8" d="M6973,7244.86l-7.45-5,.55-.77,7.45,5Z" transform="translate(-6960.96 -6975.1)"/><path class="cls-7" d="M7258.46,7107.17l1,.64Z" transform="translate(-6960.96 -6975.1)"/><path class="cls-7" d="M7256.8,7105.2l.6.51Z" transform="translate(-6960.96 -6975.1)"/><path class="cls-7" d="M7259.93,7108.31l.61.52Z" transform="translate(-6960.96 -6975.1)"/><path class="cls-7" d="M7258,7106.52l.51.69Z" transform="translate(-6960.96 -6975.1)"/><path class="cls-9" d="M7139,7183l5.76-.19c-.42,3.83,1.9,6.54,3.94,9.29,4.57,6.19,11.78,8.27,20,5.75,5.63-1.72,12.18-8.38,12.06-15.08h5.2l2.08,0,2.2.27c-2.55,5-4.84,10.18-7.72,15-7.62,12.74-26.64,14.84-37.15,4-2.8-2.9-4.56-6.85-6.6-10.43-1.49-2.63-2.65-5.44-4-8.17l3.14-.31Z" transform="translate(-6960.96 -6975.1)"/><path class="cls-4" d="M7102.71,7270.36a7.9,7.9,0,0,0-.94-1.2,20.06,20.06,0,0,0-1.76-1.26,6.15,6.15,0,0,0-.18,2.34c1.11,3,.64,3.49-2.42,4.35a13.71,13.71,0,0,0-6,3.44c-2.57,2.69-2.34,2.92-6.52,2.5.31,1.11.57,2.08.92,3.33l-4-1.18,1,4-.75.51c-1.56-1.49-3.53-2.75-4.58-4.54-1.16-2-.08-3.15,2.12-2.54,2.85.78,3.46-1.84,5-3,.25-.19.26-.69.51-.89,2.34-1.85,4.72-3.65,7-5.53a7.43,7.43,0,0,0,1.11-1.56c.63-.89,1.11-2.32,1.94-2.56,3-.88,2.62-2.1.51-3.81l2.54-2.91c2,2,6-.26,6.18,3.65.08,1.43.15,2.85.23,4.28Z" transform="translate(-6960.96 -6975.1)"/><path class="cls-4" d="M7072.62,7295.88a37,37,0,0,1-4.47-1.28c-.4-.16-.59-1.21-.58-1.85s.7-1.12.62-1.61c-.48-3,.74-4.31,3.68-5.16,1.77-.51,2.94-.48,3.71.89.91,1.64,3.17,2.85,2.06,5.3C7076.7,7294.26,7075.36,7295.81,7072.62,7295.88Z" transform="translate(-6960.96 -6975.1)"/><path class="cls-4" d="M7133.24,7356.12a22,22,0,0,1-3.75-.92c-1.59-.68-2.63-1.79-1.19-3.6a1,1,0,0,0,.29-.7c-.73-4,3-3.61,5-5a1.11,1.11,0,0,1,1,0c1.34,1.89,3.2,3.68,3.75,5.8S7135.82,7356,7133.24,7356.12Z" transform="translate(-6960.96 -6975.1)"/><path class="cls-4" d="M7217.07,7272.24a18,18,0,0,1-3.91-1.68c-.54-.39-.47-1.66-.64-2.55,0-.11.29-.32.26-.41-1.29-3.55,1.63-4.06,3.73-5.07.71-.34,2.14-.63,2.35-.32,1.3,1.89,3,3.84,3.32,6S7219.69,7271.93,7217.07,7272.24Z" transform="translate(-6960.96 -6975.1)"/><path class="cls-10" d="M7234.57,7307.77c-1.64-1.72-6.71-38.3-4.88-40.35q2.88,20.1,5.77,40.19Z" transform="translate(-6960.96 -6975.1)"/><path class="cls-10" d="M7102.71,7270.36l1.95-2.52c-.32,2.29-.53,4.61-1,6.88q-3.09,15.48-6.34,30.92c-.19.9.07,2.88-2,1.66.21-1.2.41-2.4.61-3.6h0q.54-2.62,1.1-5.23a.34.34,0,0,0,0-.36l1.17-5.3.3-1.64c.2-1,.4-2.06.59-3.09h0c.13-.52.26-1,.4-1.57,0-.32.09-.65.13-1s.26-.74.4-1.12c.05-.62.11-1.25.16-1.87l1-4.86,0,0c.15-.53.29-1.06.44-1.59l.09-.95c.16-.55.31-1.11.46-1.66a.59.59,0,0,0,.06-.41c.12-.38.24-.76.37-1.13Z" transform="translate(-6960.96 -6975.1)"/><path class="cls-4" d="M7098.14,7292.81l-1.17,5.3a27.06,27.06,0,0,1,0-3.82C7097,7293.76,7097.72,7293.3,7098.14,7292.81Z" transform="translate(-6960.96 -6975.1)"/><path class="cls-4" d="M7097,7298.47q-.56,2.61-1.1,5.23a23.88,23.88,0,0,1,0-3.59C7096,7299.52,7096.61,7299,7097,7298.47Z" transform="translate(-6960.96 -6975.1)"/><path class="cls-4" d="M7099,7288.08c-.19,1-.39,2.06-.59,3.09C7097.36,7290.12,7097.56,7289.08,7099,7288.08Z" transform="translate(-6960.96 -6975.1)"/><path class="cls-4" d="M7101.13,7277.68l-1,4.86C7100.49,7280.93,7098.83,7278.89,7101.13,7277.68Z" transform="translate(-6960.96 -6975.1)"/><path class="cls-4" d="M7095.9,7303.7c-.2,1.2-.4,2.4-.61,3.6C7094.72,7306,7094,7304.61,7095.9,7303.7Z" transform="translate(-6960.96 -6975.1)"/><path class="cls-11" d="M7101.55,7276.07c-.15.53-.29,1.06-.44,1.59C7101.26,7277.13,7101.4,7276.6,7101.55,7276.07Z" transform="translate(-6960.96 -6975.1)"/><path class="cls-11" d="M7102.1,7273.46c-.15.55-.3,1.11-.46,1.66C7101.8,7274.57,7102,7274,7102.1,7273.46Z" transform="translate(-6960.96 -6975.1)"/><path class="cls-11" d="M7099.42,7286.5c-.14.52-.27,1.05-.4,1.57C7099.15,7287.55,7099.28,7287,7099.42,7286.5Z" transform="translate(-6960.96 -6975.1)"/><path class="cls-11" d="M7102.53,7271.92c-.13.37-.25.75-.37,1.13C7102.28,7272.67,7102.4,7272.29,7102.53,7271.92Z" transform="translate(-6960.96 -6975.1)"/><path class="cls-11" d="M7100,7284.41c-.14.38-.27.75-.4,1.12C7099.68,7285.16,7099.81,7284.79,7100,7284.41Z" transform="translate(-6960.96 -6975.1)"/><path class="cls-12" d="M7180.76,7182.79c.12,6.7-6.43,13.36-12.06,15.08-8.2,2.52-15.41.44-20-5.75-2-2.75-4.36-5.46-3.94-9.29,0-6.07,0-12.14-.06-18.2a4.19,4.19,0,0,0-1-2.73,65.05,65.05,0,0,1-16.13-26.63c-.91-2.79-3.12-3.65-5-5.13l-4.77-8c-.1-3.17-.73-6.44-.2-9.5.95-5.41,5-7,9.91-4.61a3.88,3.88,0,0,0,2.38.25c1.77-.39,3.49-1,5.24-1.52,4.08-1.22,4.08-1.22,4.39-5.54a7.8,7.8,0,0,1,.71-3.26v7.55h5.15l1.95-15,.44.05,1.74,14.94a10.15,10.15,0,0,0,2.53.72c5.81.06,11.62,0,17.42,0,5.55,0,11.1,0,16.65,0,1.79,0,1.79-.05,1-1.55q.54-4.11,1.06-8.23l.55-.06a65.86,65.86,0,0,1,.7,6.83c0,1.92.86,2.66,2.54,3.25,2.75,1,5.15,2,8.29.5,2.9-1.4,5.83.73,7.19,4.25,2.41,6.29-.61,15.76-6.2,19.87a7.05,7.05,0,0,0-2.36,3.14c-3.75,10.59-8.93,20.29-17.19,28.13a3.07,3.07,0,0,0-1,1.93C7180.63,7170.47,7180.71,7176.63,7180.76,7182.79Zm6.21-66.53c-4.14-1.66-7.71-1.11-10.44,2.69-.11.15,0,.46,0,.86l1.45-.62c.57,3.43,2.21,5.24,4.5,5,2.47-.26,3.91-2.71,3.65-6.15,0-.33.24-.68.37-1l4.84,2.9.5-.86Zm-44.76-.07a11.38,11.38,0,0,0-5,3.09l.48.64,4.49-2.83a13.86,13.86,0,0,1,.47,2.25c.12,2.54,1.5,4.61,3.52,4.82,2.51.26,3.74-1.24,4.5-3.45.22-.64,1-1.1,1.57-1.71C7149.74,7115.32,7146.78,7114.42,7142.21,7116.19Zm49.35-3.86.59-.43c-.32-.45-.54-1.16-1-1.31a49.16,49.16,0,0,0-8.32-2.61,8.73,8.73,0,0,0-8,2.64,6.7,6.7,0,0,0-.88,2.15l.7.46C7180,7107.59,7185.78,7109.6,7191.56,7112.33Zm-54.86-.06a4,4,0,0,0,.48-.09,6.29,6.29,0,0,0,.71-.3c5.28-2.47,10.48-3.89,15.35.9.22.22.95-.08,1.58-.15-2.5-4.31-7.21-5.75-12.71-4.17C7138,7109.63,7136.66,7110.59,7136.7,7112.27Zm26.29,24.08-.29,1.17c1.31.2,2.81.88,3.88.46.72-.29,1.3-2.19,1.13-3.24-.87-5.45-2-10.85-3-16.28-.1-.49-.16-1-.24-1.49l-1.11.87c1.05,6.34,3.13,12.54,3.23,19.31Zm-9.14,7.39c.06,3.13,2.54,5.82,5.86,6.94s8,.37,10.34-2.33C7163,7151.22,7157.44,7150.73,7153.85,7143.74Zm44.28-16.36c3.32-1.72,5.41-4.18,5.4-7.87a6.26,6.26,0,0,0-4.78-5.79C7204.41,7119,7202.32,7123.22,7198.13,7127.38ZM7160.86,7170l-15.48-6.18C7149,7167.62,7157.84,7170.94,7160.86,7170Zm-35.39-57.2a5.78,5.78,0,0,0-4.1,6.12c.19,3.07,2.62,6.33,5.76,6.95C7122.4,7121.78,7120.23,7117.66,7125.47,7112.77Z" transform="translate(-6960.96 -6975.1)"/><path class="cls-5" d="M7117.84,7122.15l4.77,8-3.54-1.12c-.78,2.2-2.25,4-5.26,3.13,0,0-.16.45-.25.68l-2.06,1.4.73.7,1.33-2.1a10.17,10.17,0,0,1,.6,2.07c-1.2.6-2.59,1.49-3.76,1.3-.81-.13-1.82-1.79-1.93-2.85a2.28,2.28,0,0,1,2.72-2.62,5.4,5.4,0,0,0,1.13-.2c.13-2.22.9-3.75,3.3-4.57C7116.67,7125.6,7117.12,7123.48,7117.84,7122.15Zm.11,5.68.11-.35-.2.05Z" transform="translate(-6960.96 -6975.1)"/><path class="cls-5" d="M7188,7182.81l-2.08,0c-1.13-1.37-2.27-2.72-3.36-4.11-.52-.66-.94-1.39-1.41-2.08l.6-.54,3.13,2.63,1.21-3,.59.13c.18.87.35,1.74.55,2.71l3,.35.22.71-3.13,1Z" transform="translate(-6960.96 -6975.1)"/><path class="cls-13" d="M7187.1,7104.71c.84,1.5.84,1.55-1,1.55-5.55,0-11.1,0-16.65,0-5.8,0-11.61,0-17.42,0a10.15,10.15,0,0,1-2.53-.72c12,0,24,.1,36,.1C7186.06,7105.61,7186.58,7105,7187.1,7104.71Z" transform="translate(-6960.96 -6975.1)"/><path class="cls-5" d="M7106.13,7142.81c-1.73-1.65-3.54-3.23-5.17-5-.95-1,.09-2.53,1.95-2.7l-.2,2.08h1.07l3.07,5Z" transform="translate(-6960.96 -6975.1)"/><path class="cls-5" d="M7108.61,7139.84c-1.08-1.12-2.43-2.11-3.13-3.43-.27-.53.87-1.8,1.45-2.89,1,2.33,1.67,4,2.38,5.74Z" transform="translate(-6960.96 -6975.1)"/><path class="cls-12" d="M7139,7183l-1.07.1Z" transform="translate(-6960.96 -6975.1)"/><path class="cls-8" d="M7362.06,7233.53,7335,7250.46c-.18-.27-.35-.55-.52-.82l27-16.89Z" transform="translate(-6960.96 -6975.1)"/><path class="cls-8" d="M7358.42,7243.84q-8.39,5.65-16.78,11.28c-.15.1-.47,0-1.15-.09.68-.56,1.06-.93,1.49-1.21,4.42-2.9,8.84-5.81,13.28-8.66a30.74,30.74,0,0,1,3-1.5Z" transform="translate(-6960.96 -6975.1)"/><path class="cls-8" d="M7343.33,7260.35l16.07-10,.49.82-16.06,10Z" transform="translate(-6960.96 -6975.1)"/><path class="cls-8" d="M7361.94,7241.1l2.55-2.12.55.78-2.94,1.5Z" transform="translate(-6960.96 -6975.1)"/><path class="cls-8" d="M7359.86,7242.67l2.08-1.57.16.16-2.15,1.51Z" transform="translate(-6960.96 -6975.1)"/><path class="cls-8" d="M7360,7242.77l-1.53,1.07-.18-.18,1.63-1Z" transform="translate(-6960.96 -6975.1)"/><path class="cls-1" d="M7326,7021.84c-.15.37-.31.73-.46,1.09-.17.52-.33,1-.49,1.57-.17,1-.33,2.09-.49,3.13s-.4,2.06-.59,3.09a1.78,1.78,0,0,0-.47.09l-.54,0h-1.55l-6.32-.58c0-.7,0-1.4,0-2.09,0-.18,0-.36,0-.55l.07-1,.8-4.23c0-.32.1-.64.16-1l.09-.53a.66.66,0,0,0,.09-.39c.27-.58.54-1.16.8-1.74.09-.28.17-.56.25-.84s.26-.46.4-.69l.53-1c.52-.7,1.05-1.39,1.57-2.08l1.56-1.55.56-.5h0l2.55-1.62h0l8.34-1.67,2.08,0,6.25,1.14,1.42.61.68.37a.52.52,0,0,0,.36.14l.64.48,3.08,2.6.48.66.61.88c.32.55.65,1.1,1,1.65.15.34.31.67.47,1,.24.67.49,1.33.73,2,.06.33.12.66.17,1,.92,6.31.64,12.47-2.27,18.3a.57.57,0,0,0-.14.38l-.4.65a.64.64,0,0,0-.15.37c-.36.53-.72,1.07-1.09,1.6l-1.93,2.7-1.05,1.56c-.2.31-.4.62-.59.93l-1.52,2.17-.48,1.08-.51,1a.54.54,0,0,0-.11.37l-2.35,7.48c0,.33-.07.67-.1,1a11.25,11.25,0,0,0-.52,3c.23,2.45-.74,3.54-3.17,3.38h-4.16l-1.05-.07a1.33,1.33,0,0,0-.43-.13c-.07-.34-.15-.67-.22-1,0-1.38.07-2.76.1-4.13.11-.71.22-1.42.34-2.13.06-.52.13-1,.2-1.55.06,0,.17,0,.17-.09a1.53,1.53,0,0,0,0-.37c.15-.85.29-1.69.44-2.54l1.3-3.79c.09-.29.19-.58.29-.87.44-.92.87-1.85,1.31-2.77a1,1,0,0,0,.17-.46l.54-1.05a.37.37,0,0,0,.14-.29l.87-1.27h0c.54-.86,1.07-1.73,1.6-2.59a.42.42,0,0,0,.11-.33l.46-.65h0l1.47-2.16h0c.34-.52.69-1,1-1.57h0l1.79-3.49c.24-.76.49-1.51.73-2.26l.45-2.63,0-3.55a6.41,6.41,0,0,0-2.93-6.31l-1.57-1-2.65-.86-3.54,0-1.72.74a.74.74,0,0,0-.4.14l-1.49,1a.51.51,0,0,0-.21.32l-.86,1.23a.52.52,0,0,0-.16.34Z" transform="translate(-6960.96 -6975.1)"/><path class="cls-1" d="M7380.12,7041.24h-3.38c-4.19,0-4.39-.1-3.69-4.18,1-5.57,2.75-10.74,8.89-12.61s12.31-1.68,16.83,3.43,4.62,11.41,2.36,17.63a26.05,26.05,0,0,1-3.63,6.57c-3.79,5.06-6.31,10.53-6.34,17,0,1.32-.48,1.78-1.82,1.85-5.64.26-6.17-.35-5.28-6a35.71,35.71,0,0,1,6.53-15.4c2.49-3.48,4.5-7.21,4.17-11.75-.44-6.12-5.33-9.18-10.51-6.49-2.28,1.19-3.12,3.36-3.53,5.73C7380.5,7038.31,7380.35,7039.59,7380.12,7041.24Z" transform="translate(-6960.96 -6975.1)"/><path class="cls-1" d="M7273.4,7041.14h-6.77c-1.2-8.46,3.31-16.92,12.47-17.63,7.94-.62,14.31,3,15.92,9.59,1.46,6,.84,11.91-2.87,17.15-3.41,4.83-6.85,9.62-7.46,15.77,0,.17-.09.33-.11.5-.66,4.57-.65,4.5-5.46,4.36-1.6-.05-2.1-.6-2-2.17a33.6,33.6,0,0,1,6.44-18.62c2.55-3.55,4.73-7.24,4.56-11.89-.16-4.47-2.63-7.53-6.61-7.88-3.58-.31-6.39,2.09-7.3,6.32C7273.86,7038.07,7273.67,7039.52,7273.4,7041.14Z" transform="translate(-6960.96 -6975.1)"/><path class="cls-1" d="M7338,7081c0,4.86,0,4.86-5,4.86s-4.91,0-4.89-5,0-4.89,5-4.91S7338,7076,7338,7081Z" transform="translate(-6960.96 -6975.1)"/><path class="cls-1" d="M7387.36,7086c-1.84-.16-4.25,1-4.08-2.72.25-5.59,0-5.6,4.05-5.6,4.26,0,4.28,0,4.27,3.63C7391.58,7086.6,7391.84,7085.92,7387.36,7086Zm.05-1.12c2.57.62,3.4-.35,3.35-2.93-.05-2.29-.33-3.44-3.07-3.36-2.46.07-3.6.45-3.42,3.27C7384.41,7084.14,7384.68,7085.64,7387.41,7084.84Z" transform="translate(-6960.96 -6975.1)"/><path class="cls-1" d="M7331.08,7051.53l-1.3,3.79Z" transform="translate(-6960.96 -6975.1)"/><path class="cls-1" d="M7324.49,7010.43l-2.55,1.62Z" transform="translate(-6960.96 -6975.1)"/><path class="cls-1" d="M7336,7042.23c-.53.86-1.06,1.73-1.6,2.59C7334.94,7044,7335.47,7043.09,7336,7042.23Z" transform="translate(-6960.96 -6975.1)"/><path class="cls-1" d="M7332.68,7047.89c-.44.92-.87,1.85-1.31,2.77C7331.81,7049.74,7332.24,7048.81,7332.68,7047.89Z" transform="translate(-6960.96 -6975.1)"/><path class="cls-1" d="M7338.05,7039.09l-1.47,2.16Z" transform="translate(-6960.96 -6975.1)"/><path class="cls-14" d="M7329,7059.87c-.12.71-.23,1.42-.34,2.13C7328.75,7061.29,7328.86,7060.58,7329,7059.87Z" transform="translate(-6960.96 -6975.1)"/><path class="cls-1" d="M7350.61,7020.32c-.24-.67-.49-1.33-.73-2C7350.12,7019,7350.36,7019.65,7350.61,7020.32Z" transform="translate(-6960.96 -6975.1)"/><path class="cls-1" d="M7339.08,7037.52c-.34.53-.69,1-1,1.57C7338.39,7038.57,7338.74,7038.05,7339.08,7037.52Z" transform="translate(-6960.96 -6975.1)"/><path class="cls-1" d="M7346.73,7042.62c.37-.53.73-1.07,1.09-1.6C7347.46,7041.55,7347.1,7042.09,7346.73,7042.62Z" transform="translate(-6960.96 -6975.1)"/><path class="cls-1" d="M7317.07,7018.73c-.26.58-.53,1.16-.8,1.74C7316.54,7019.89,7316.81,7019.31,7317.07,7018.73Z" transform="translate(-6960.96 -6975.1)"/><path class="cls-1" d="M7334.4,7044.82l-.87,1.27Z" transform="translate(-6960.96 -6975.1)"/><path class="cls-1" d="M7340.65,7052.11l.51-1Z" transform="translate(-6960.96 -6975.1)"/><path class="cls-14" d="M7329.19,7067.27l1.05.07Z" transform="translate(-6960.96 -6975.1)"/><path class="cls-1" d="M7333.39,7046.38l-.54,1.05Z" transform="translate(-6960.96 -6975.1)"/><path class="cls-1" d="M7321.94,7012l-.56.5Z" transform="translate(-6960.96 -6975.1)"/><path class="cls-1" d="M7347.82,7014.79l-.48-.66Z" transform="translate(-6960.96 -6975.1)"/><path class="cls-14" d="M7331.25,7067.34h0Z" transform="translate(-6960.96 -6975.1)"/><path class="cls-1" d="M7348,7040.65l.4-.65Z" transform="translate(-6960.96 -6975.1)"/><path class="cls-1" d="M7322.93,7030.83l.54,0Z" transform="translate(-6960.96 -6975.1)"/><path class="cls-1" d="M7316.18,7020.86l-.09.53Z" transform="translate(-6960.96 -6975.1)"/><path class="cls-15" d="M7142.21,7116.19c4.57-1.77,7.53-.87,10.06,2.81-.59.61-1.35,1.07-1.57,1.71-.76,2.21-2,3.71-4.5,3.45-2-.21-3.4-2.28-3.52-4.82a13.86,13.86,0,0,0-.47-2.25Z" transform="translate(-6960.96 -6975.1)"/><path class="cls-15" d="M7186.49,7117c-.13.34-.4.69-.37,1,.26,3.44-1.18,5.89-3.65,6.15-2.29.24-3.93-1.57-4.5-5l-1.45.62c0-.4-.1-.71,0-.86,2.73-3.8,6.3-4.35,10.44-2.69Z" transform="translate(-6960.96 -6975.1)"/><path class="cls-16" d="M7191.56,7112.33c-5.78-2.73-11.52-4.74-16.93.9l-.7-.46a6.7,6.7,0,0,1,.88-2.15,8.73,8.73,0,0,1,8-2.64,49.16,49.16,0,0,1,8.32,2.61c.43.15.65.86,1,1.31Z" transform="translate(-6960.96 -6975.1)"/><path class="cls-16" d="M7136.7,7112.26c0-1.67,1.33-2.63,5.41-3.8,5.5-1.58,10.21-.14,12.71,4.17-.63.07-1.36.37-1.58.15-4.87-4.79-10.07-3.37-15.35-.9a6.29,6.29,0,0,1-.71.3A2.67,2.67,0,0,1,7136.7,7112.26Z" transform="translate(-6960.96 -6975.1)"/><path class="cls-16" d="M7163,7136.35l3.56.8c-.1-6.77-2.18-13-3.23-19.31l1.11-.87c.08.5.14,1,.24,1.49,1,5.43,2.17,10.83,3,16.28.17,1.05-.41,2.95-1.13,3.24-1.07.42-2.57-.26-3.88-.46Z" transform="translate(-6960.96 -6975.1)"/><path class="cls-17" d="M7153.85,7143.74c3.59,7,9.18,7.48,16.2,4.61-2.38,2.7-7,3.47-10.34,2.33S7153.91,7146.87,7153.85,7143.74Z" transform="translate(-6960.96 -6975.1)"/><path class="cls-18" d="M7198.13,7127.38c4.19-4.16,6.28-8.41.62-13.66a6.26,6.26,0,0,1,4.78,5.79C7203.54,7123.2,7201.45,7125.66,7198.13,7127.38Z" transform="translate(-6960.96 -6975.1)"/><path class="cls-8" d="M7160.86,7170c-3,1-11.85-2.35-15.48-6.18Z" transform="translate(-6960.96 -6975.1)"/><path class="cls-18" d="M7125.47,7112.77c-5.24,4.89-3.07,9,1.66,13.07-3.14-.62-5.57-3.88-5.76-6.95A5.78,5.78,0,0,1,7125.47,7112.77Z" transform="translate(-6960.96 -6975.1)"/><path class="cls-17" d="M7142.21,7116.19v.9l-4.49,2.83-.48-.64A11.38,11.38,0,0,1,7142.21,7116.19Z" transform="translate(-6960.96 -6975.1)"/><path class="cls-17" d="M7186.49,7117l.48-.76,4.86,2.8-.5.86Z" transform="translate(-6960.96 -6975.1)"/><path class="cls-5" d="M7113.56,7132.83l-1.33,2.1-.73-.7,2.06-1.4Z" transform="translate(-6960.96 -6975.1)"/><path class="cls-5" d="M7118,7127.83l-.09-.3.2-.05Z" transform="translate(-6960.96 -6975.1)"/><path class="cls-1" d="M7387.41,7084.84c-2.73.8-3-.7-3.14-3-.18-2.82,1-3.2,3.42-3.27,2.74-.08,3,1.07,3.07,3.36C7390.81,7084.49,7390,7085.46,7387.41,7084.84Z" transform="translate(-6960.96 -6975.1)"/><path class="cls-5" d="M7098.69,7194.72s-2.53-71.16,9.77-98.73c0,0,10.22-31.14,35.77-38.55,0,0,40.9-15.84,63.35,23.48,0,0,22.82,38.89,18.16,111.72l-13.28-68.14-11.63-34-15.35-2.71-7.53-6.9-12.89,6.39-11.94-3.58-13.39-1L7130,7097l-7.34,6.13-5.18,3.72-3.87,12.45,4.5,13.52,6.19,7,6.46,12.57,6,13.68-9.56,13.14-11.59,7.47S7103.76,7190.24,7098.69,7194.72Z" transform="translate(-6960.96 -6975.1)"/></svg>