<svg id="Layer_1" data-name="Layer 1" xmlns="http://www.w3.org/2000/svg" viewBox="0 0 128.09 128.26"><path d="M7141.52,7172.64c1.27.76,1.88,2,3.07,2.59.08.75.9.86,1.18,1.29s.9.86,1.22,1.44a3.05,3.05,0,0,0,1.26,1.12c.65.29.49,1.42,1.45,1.26.12.69.94.82,1.15,1.5.07.26.63.35.91.59s.27.55.49.67a1.67,1.67,0,0,1,.8,1.94c-.11.72-.44,1.41-.62,2.13a8.17,8.17,0,0,0-.58,2.78,5.59,5.59,0,0,1-.37,1.43c-.1.49.22,1.06-.32,1.48-.1.09-.1.37-.08.55.3,2.37-.49,4.68-.43,7,0,.92.31,1.76.4,2.64a29.79,29.79,0,0,1,0,3c.9.62-.11,1.86.8,2.47,0,2.84,1.18,5.36,2,8a30.28,30.28,0,0,0,3.23,6.86,25.84,25.84,0,0,1,1.53,2.37,25.28,25.28,0,0,0,4.54,6.12c.72.74,1.2,1.78,2,2.32a12.5,12.5,0,0,1,2.05,1.76,39.24,39.24,0,0,0,7.53,5.49,40.56,40.56,0,0,0,4.27,2.27,71.64,71.64,0,0,0,7.48,2.71c2.1.69,4.37.53,6.37,1.51,0,0,.13,0,.2,0,2.76-.18,5.47.7,8.23.39.82-.09,1.62-.3,2.44-.38s1.77.22,2.32-.16c.78-.54,1.78.25,2.35-.64a9.8,9.8,0,0,0,4.07-.81c1.48-.45,3-.78,4.45-1.33a31.88,31.88,0,0,0,5-2.31,64.34,64.34,0,0,0,7.27-4.7c1.18-.95,2.18-2.08,3.36-3a35.09,35.09,0,0,0,4.16-4.29,31.65,31.65,0,0,0,4.28-6c.91-1.61,1.91-3.2,2.66-4.89a72.52,72.52,0,0,0,2.61-7.33c.69-2.1.6-4.35,1.52-6.37a.85.85,0,0,0,0-.39c-.19-2.56.81-5.09.37-7.63s-.29-5.06-1-7.56c-.39-1.29-.58-2.68-.9-4a39.74,39.74,0,0,0-1.47-4.6,30.59,30.59,0,0,0-2.2-4.88,60.08,60.08,0,0,0-4.67-7.29c-1-1.23-2.11-2.31-3.13-3.5a13.45,13.45,0,0,0-2.1-2.1c-.79-.6-1.36-1.49-2.15-2.08a48.72,48.72,0,0,0-6.06-4.19c-1.53-.82-3-1.77-4.57-2.49a71.48,71.48,0,0,0-7.67-2.76c-2.1-.68-4.34-.61-6.36-1.52a.67.67,0,0,0-.2,0l-7.24-.4c-.91-.06-1.67.59-2.64.43a5.62,5.62,0,0,0-2.58,0c-2.09.69-4.37.45-6.38,1.49-.53.27-1.22.07-1.83.43s-1.08-.14-1.63-.31-.24-1.13-1-.88c-.06-1-1.3-1.07-1.54-1.93-.93.09-.6-1.49-1.64-1.25-.1-.7-.84-.9-1.17-1.47s-1.5-.95-1.75-1.62c-.33-.84-1.39-.83-1.53-1.7-.87.1-.39-1.13-1.09-1.13s-.63-.79-1-1.14c3-1.09,5.85-2.7,9-3.39a23.48,23.48,0,0,0,2.29-.74c.73-.25,1.59-.2,2.21-.47,1.73-.74,3.58-.64,5.35-1.08a55.76,55.76,0,0,1,12.41-.4c1.43.3,2.89,0,4.23.41,1.56.43,3.26.24,4.73,1.11.52.3,1.2,0,1.89.27,1.18.52,2.59.51,3.79,1,1.6.65,3.3,1,4.87,1.76s3,1.48,4.53,2.11a52,52,0,0,1,5.35,3c1.65.9,3.08,2.15,4.71,3.12a15.7,15.7,0,0,1,2.53,2.09c1.19,1.12,2.46,2.17,3.61,3.3,1.79,1.77,3.4,3.74,5.06,5.65,1.14,1.32,2.05,2.8,3.15,4.14a37.26,37.26,0,0,1,2.24,3.46,45.83,45.83,0,0,1,2.46,4.78,40.3,40.3,0,0,1,2.64,5.9,73,73,0,0,1,2.17,7.72c.26,1.49.52,3,.85,4.45.29,1.25.07,2.47.34,3.65.74,3.2.23,6.43.35,9.64a16.63,16.63,0,0,1-.38,3,10.65,10.65,0,0,1-.31,2.87,14.13,14.13,0,0,0-.45,2.8,46.89,46.89,0,0,1-1.39,5.64,41.34,41.34,0,0,1-1.85,5.43,47.54,47.54,0,0,1-3.78,7.84c-1,1.44-1.64,3.08-2.65,4.49-.78,1.08-1.51,2.2-2.34,3.24-1.14,1.42-2.44,2.72-3.65,4.1a16.58,16.58,0,0,1-1.58,1.93c-2.88,2.36-5.41,5.13-8.61,7.16-1.58,1-3.2,2-4.74,3.08a32.43,32.43,0,0,1-4.71,2.64c-1.89.89-3.91,1.51-5.74,2.55-1.55,0-2.85.85-4.29,1.24s-2.78.62-4.13,1.12a18.07,18.07,0,0,1-3.42.46,10.54,10.54,0,0,1-2.64.41,4.34,4.34,0,0,0-2.64.36c-.25.14-.66,0-1,0-1.27,0-2.54-.09-3.8,0a43.12,43.12,0,0,1-8.43-.5,41.62,41.62,0,0,1-9.49-2.13c-.87-.32-1.9-.22-2.59-1-1,.21-1.8-.45-2.67-.8a41.55,41.55,0,0,1-8-3.85c-1.38-.95-2.91-1.68-4.33-2.56a31.72,31.72,0,0,1-3.11-2.14c-1.17-.93-2.28-1.95-3.38-3q-1.22-1.11-2.49-2.16a20,20,0,0,1-2.58-2.91c-.84-1-1.77-1.9-2.62-2.88-1.15-1.32-2-2.81-3.13-4.15a35.39,35.39,0,0,1-2.25-3.46,43.08,43.08,0,0,1-2.46-4.78c-.93-1.94-1.83-3.91-2.68-5.89-.27-.62-.13-1.53-.55-1.94-.64-.66-.06-1.51-.69-2.17-.4-.42-.29-1.32-.47-2a18.27,18.27,0,0,0-.45-2c-.6-1.54-.44-3.23-1.1-4.74a1.17,1.17,0,0,1,0-.38c-.13-2.15-.32-4.29-.38-6.44s0-4.4,0-6.6c0-.78.61-1.4.44-2.24a5,5,0,0,1,.32-2.24c.24-1,.15-2,.41-3,.9-3.48,1.54-7,3.22-10.27C7140,7175.69,7141.3,7174.46,7141.52,7172.64Z" transform="translate(-7135.46 -7135.37)"/><path d="M7167.48,7188.33h5l8.52,8.53a3.13,3.13,0,0,1-.21,1.62,3.16,3.16,0,0,0-.06,2.32c.38.78.17,1.53.35,2.26.29,1.13.71,2.23,1.07,3.35a2.39,2.39,0,0,0,.15.54,24.37,24.37,0,0,0,4.18,5.89c2.45,2.62,5.55,3.91,8.76,5a13.89,13.89,0,0,0,5.19.44c.85-.05,1.74-.28,2.64-.33s1.53-.62,2.27-.73a13.61,13.61,0,0,0,2.42-1,13.07,13.07,0,0,0,2.14-1.09,3.61,3.61,0,0,0,.76-.59c.48-.45.9-1,1.42-1.4,3-2.41,4.49-5.73,5.65-9.26,0-.06.13-.09.13-.14.15-1.75.28-3.49.41-5.23-.74-1-.22-2.26-.56-3.37a46.46,46.46,0,0,0-2.65-6.1,3.09,3.09,0,0,0-.62-.74c-.56-.57-1.17-1.1-1.69-1.71a15,15,0,0,0-6.23-4.28,10.58,10.58,0,0,0-4.5-1.19c-.9.05-1.69-.63-2.64-.4-.8.2-1.61.32-2.31.45l-8.79-8.79v-4.78c1.81-.41,3.7-.77,5.55-1.29,2.46-.7,5-.18,7.43-.4,2.88-.26,5.53.86,8.31,1.21,2.32,1.29,4.92,1.92,7.2,3.4a37.58,37.58,0,0,1,7.48,6,48.77,48.77,0,0,1,4.09,5.48c1.54,2.26,2.3,4.8,3.38,7.22a21.82,21.82,0,0,1,1,4c.78,3.45.29,6.95.37,10.43a14.75,14.75,0,0,1-.85,4.44,34.26,34.26,0,0,1-2.68,6.89c-1,1.76-2.05,3.43-3.17,5.08a26.44,26.44,0,0,1-4,4.35,31.6,31.6,0,0,1-9.44,6.16,35.64,35.64,0,0,1-7.69,2.24,37.31,37.31,0,0,1-5.05.31,25.59,25.59,0,0,1-5.18-.05,13,13,0,0,1-4.53-1.11c-1.28.19-2.22-.77-3.38-1a14.89,14.89,0,0,1-3-1.34,28.45,28.45,0,0,1-5.07-3.18,34.51,34.51,0,0,1-4.08-3.66,31,31,0,0,1-6.46-9.71,38.4,38.4,0,0,1-2.27-7.68c-.48-2.5-.18-5-.32-7.44a24,24,0,0,1,1.58-8.74A3.43,3.43,0,0,0,7167.48,7188.33Z" transform="translate(-7135.46 -7135.37)"/><path d="M7175.28,7180.72h-14.74c-.51-.41-1-.76-1.45-1.18s-.76-1.21-1.29-1.42c-.69-.27-.89-.87-1.18-1.33-.42-.66-1.3-.63-1.64-1.47a2.37,2.37,0,0,0-1.75-1.45c-.22-1.32-1.65-1.59-2.28-2.61-.41-.66-1.41-1-1.83-1.62a7.08,7.08,0,0,0-1.69-1.76c-.75-.6-1-1.74-2.16-2-.3-1.35-1.75-1.69-2.42-2.75-.38-.61-1.44-.85-1.7-1.47a3.31,3.31,0,0,0-1.37-1.59c-1-.57-1.31-1.73-2.41-2.28-.84-.42-1.28-1.64-1.9-2.5v-2c.09-.08.24-.15.27-.26.68-2.2,2.43-2.69,4.41-2.71,3.46,0,6.92,0,10.53,0v-6c0-1.73,0-3.46,0-5.2a3.65,3.65,0,0,1,3.66-3.61c.4,0,.8,0,1.41,0,.61.51,1.39,1.08,2.06,1.75q8.29,8.25,16.55,16.53a33.93,33.93,0,0,1,2.38,2.42,19.64,19.64,0,0,0,1.93,1.94,22.25,22.25,0,0,1,2,2.41v14.74l20.75,20.76c.29.28.57.56.85.85a2.64,2.64,0,0,1,.83,2.06c0,.66,0,1.32,0,1.65-.93,2.68-2.89,2.64-5.14,2.45-.56-.47-1.34-1-2-1.72Q7185.59,7191.06,7175.28,7180.72Z" transform="translate(-7135.46 -7135.37)"/></svg>